<svg width="361" height="723" viewBox="0 0 361 723" fill="none" xmlns="http://www.w3.org/2000/svg">
<path d="M330.501 229.824H351.559C353.793 229.824 355.935 229.974 357.515 230.241C359.095 230.508 359.982 230.87 359.982 231.247V314.14C359.982 314.517 359.095 314.879 357.515 315.146C355.935 315.413 353.793 315.563 351.559 315.563H330.501C328.267 315.563 326.125 315.413 324.545 315.146C322.966 314.879 322.078 314.517 322.078 314.14V231.247C322.078 230.87 322.966 230.508 324.545 230.241C326.125 229.974 328.267 229.824 330.501 229.824V229.824Z" fill="url(#paint0_linear_72_22699)"/>
<path d="M330.973 229.646H351.095C353.496 229.646 355.797 229.815 357.495 230.115C359.192 230.416 360.147 230.822 360.15 231.247V314.14C360.147 314.564 359.192 314.971 357.495 315.271C355.797 315.571 353.496 315.74 351.095 315.74H330.973C328.572 315.74 326.271 315.571 324.573 315.271C322.875 314.971 321.921 314.564 321.918 314.14V231.247C321.921 230.822 322.875 230.416 324.573 230.115C326.271 229.815 328.572 229.646 330.973 229.646ZM351.095 315.385C352.963 315.385 354.754 315.254 356.075 315.02C357.396 314.787 358.138 314.47 358.138 314.14V231.247C358.138 230.917 357.396 230.6 356.075 230.366C354.754 230.133 352.963 230.002 351.095 230.002H330.973C329.105 230.002 327.314 230.133 325.993 230.366C324.672 230.6 323.93 230.917 323.93 231.247V314.14C323.93 314.47 324.672 314.787 325.993 315.02C327.314 315.254 329.105 315.385 330.973 315.385H351.095Z" fill="#362D3A"/>
<path d="M6.92534 139.817H33.9161C34.6795 139.814 35.438 139.84 36.1461 139.893C36.8542 139.946 37.4974 140.024 38.0373 140.124C38.5772 140.224 39.0027 140.342 39.2884 140.473C39.574 140.604 39.714 140.743 39.6999 140.884V165.432C39.714 165.573 39.574 165.713 39.2884 165.843C39.0027 165.974 38.5772 166.093 38.0373 166.192C37.4974 166.292 36.8542 166.371 36.1461 166.423C35.438 166.476 34.6795 166.502 33.9161 166.499H6.92534C6.16192 166.502 5.40349 166.476 4.69539 166.423C3.98729 166.371 3.34406 166.292 2.80415 166.192C2.26424 166.093 1.83874 165.974 1.55308 165.843C1.26742 165.713 1.12747 165.573 1.1416 165.432V140.884C1.12747 140.743 1.26742 140.604 1.55308 140.473C1.83874 140.342 2.26424 140.224 2.80415 140.124C3.34406 140.024 3.98729 139.946 4.69539 139.893C5.40349 139.84 6.16192 139.814 6.92534 139.817Z" fill="url(#paint1_linear_72_22699)"/>
<path d="M7.45845 139.638H33.3828C34.2377 139.635 35.0865 139.666 35.8789 139.727C36.6713 139.789 37.3912 139.881 37.9957 139.997C38.6003 140.113 39.0772 140.251 39.3981 140.403C39.719 140.556 39.8774 140.719 39.8639 140.883V165.431C39.8774 165.595 39.719 165.758 39.3981 165.91C39.0772 166.062 38.6003 166.201 37.9957 166.317C37.3912 166.433 36.6713 166.525 35.8789 166.586C35.0865 166.648 34.2377 166.678 33.3828 166.676H7.45845C6.60361 166.678 5.75478 166.648 4.96236 166.586C4.16993 166.525 3.45008 166.433 2.84554 166.317C2.24101 166.201 1.76412 166.062 1.44319 165.91C1.12227 165.758 0.963855 165.595 0.977359 165.431V140.883C0.963855 140.719 1.12227 140.556 1.44319 140.403C1.76412 140.251 2.24101 140.113 2.84554 139.997C3.45008 139.881 4.16993 139.789 4.96236 139.727C5.75478 139.666 6.60361 139.635 7.45845 139.638ZM33.3828 166.32C33.9946 166.323 34.6028 166.302 35.1707 166.258C35.7387 166.214 36.2546 166.149 36.6873 166.065C37.12 165.982 37.4604 165.883 37.6882 165.774C37.9159 165.665 38.0261 165.548 38.0122 165.431V140.883C38.0261 140.765 37.9159 140.649 37.6882 140.54C37.4604 140.43 37.12 140.331 36.6873 140.248C36.2546 140.165 35.7387 140.1 35.1707 140.056C34.6028 140.012 33.9946 139.991 33.3828 139.994H7.45845C6.84671 139.991 6.23849 140.012 5.67054 140.056C5.10258 140.1 4.58668 140.165 4.154 140.248C3.72132 140.331 3.38084 140.43 3.15312 140.54C2.9254 140.649 2.81518 140.765 2.8291 140.883V165.431C2.81518 165.548 2.9254 165.665 3.15312 165.774C3.38084 165.883 3.72132 165.982 4.154 166.065C4.58668 166.149 5.10258 166.214 5.67054 166.258C6.23849 166.302 6.84671 166.323 7.45845 166.32H33.3828Z" fill="#362D3A"/>
<path d="M7.57768 191.758H34.5685C35.3319 191.755 36.0903 191.781 36.7984 191.833C37.5065 191.886 38.1497 191.965 38.6896 192.064C39.2296 192.164 39.6551 192.283 39.9407 192.413C40.2264 192.544 40.3663 192.684 40.3522 192.825V245.122C40.3663 245.263 40.2264 245.403 39.9407 245.533C39.6551 245.664 39.2296 245.783 38.6896 245.882C38.1497 245.982 37.5065 246.061 36.7984 246.113C36.0903 246.166 35.3319 246.192 34.5685 246.189H7.57768C6.81426 246.192 6.05583 246.166 5.34773 246.113C4.63964 246.061 3.9964 245.982 3.45649 245.882C2.91658 245.783 2.49108 245.664 2.20542 245.533C1.91976 245.403 1.77981 245.263 1.79394 245.122V192.825C1.77981 192.684 1.91976 192.544 2.20542 192.413C2.49108 192.283 2.91658 192.164 3.45649 192.064C3.9964 191.965 4.63964 191.886 5.34773 191.833C6.05583 191.781 6.81426 191.755 7.57768 191.758Z" fill="url(#paint2_linear_72_22699)"/>
<path d="M8.1147 191.579H34.0391C34.8939 191.577 35.7427 191.607 36.5352 191.669C37.3276 191.73 38.0474 191.822 38.652 191.938C39.2565 192.054 39.7334 192.193 40.0543 192.345C40.3753 192.497 40.5337 192.66 40.5202 192.824V245.122C40.5337 245.286 40.3753 245.449 40.0543 245.601C39.7334 245.753 39.2565 245.892 38.652 246.008C38.0474 246.124 37.3276 246.216 36.5352 246.277C35.7427 246.339 34.8939 246.369 34.0391 246.367H8.1147C7.25986 246.369 6.41103 246.339 5.61861 246.277C4.82618 246.216 4.10633 246.124 3.50179 246.008C2.89726 245.892 2.42037 245.753 2.09944 245.601C1.77852 245.449 1.6201 245.286 1.63361 245.122V192.824C1.6201 192.66 1.77852 192.497 2.09944 192.345C2.42037 192.193 2.89726 192.054 3.50179 191.938C4.10633 191.822 4.82618 191.73 5.61861 191.669C6.41103 191.607 7.25986 191.577 8.1147 191.579ZM34.0391 246.011C34.6508 246.014 35.259 245.992 35.827 245.949C36.3949 245.905 36.9108 245.839 37.3435 245.756C37.7762 245.673 38.1167 245.574 38.3444 245.465C38.5721 245.356 38.6823 245.239 38.6684 245.122V192.824C38.6823 192.707 38.5721 192.59 38.3444 192.481C38.1167 192.372 37.7762 192.273 37.3435 192.19C36.9108 192.106 36.3949 192.041 35.827 191.997C35.259 191.954 34.6508 191.932 34.0391 191.935H8.1147C7.50296 191.932 6.89474 191.954 6.32679 191.997C5.75883 192.041 5.24293 192.106 4.81025 192.19C4.37757 192.273 4.03709 192.372 3.80937 192.481C3.58165 192.59 3.47143 192.707 3.48535 192.824V245.122C3.47143 245.239 3.58165 245.356 3.80937 245.465C4.03709 245.574 4.37757 245.673 4.81025 245.756C5.24293 245.839 5.75883 245.905 6.32679 245.949C6.89474 245.992 7.50296 246.014 8.1147 246.011H34.0391Z" fill="#362D3A"/>
<path d="M7.57768 261.132H34.5685C35.3319 261.129 36.0903 261.155 36.7984 261.208C37.5065 261.261 38.1497 261.339 38.6896 261.439C39.2296 261.538 39.6551 261.657 39.9407 261.788C40.2264 261.918 40.3663 262.058 40.3522 262.199V314.496C40.3663 314.637 40.2264 314.777 39.9407 314.908C39.6551 315.039 39.2296 315.157 38.6896 315.257C38.1497 315.356 37.5065 315.435 36.7984 315.488C36.0903 315.54 35.3319 315.566 34.5685 315.564H7.57768C6.81426 315.566 6.05583 315.54 5.34773 315.488C4.63964 315.435 3.9964 315.356 3.45649 315.257C2.91658 315.157 2.49108 315.039 2.20542 314.908C1.91976 314.777 1.77981 314.637 1.79394 314.496V262.199C1.77981 262.058 1.91976 261.918 2.20542 261.788C2.49108 261.657 2.91658 261.538 3.45649 261.439C3.9964 261.339 4.63964 261.261 5.34773 261.208C6.05583 261.155 6.81426 261.129 7.57768 261.132Z" fill="url(#paint3_linear_72_22699)"/>
<path d="M8.1147 260.954H34.0391C34.8939 260.952 35.7427 260.982 36.5352 261.044C37.3276 261.105 38.0474 261.197 38.652 261.313C39.2565 261.429 39.7334 261.568 40.0543 261.72C40.3753 261.872 40.5337 262.035 40.5202 262.199V314.497C40.5337 314.661 40.3753 314.824 40.0543 314.976C39.7334 315.128 39.2565 315.267 38.652 315.383C38.0474 315.499 37.3276 315.591 36.5352 315.652C35.7427 315.714 34.8939 315.744 34.0391 315.742H8.1147C7.25986 315.744 6.41103 315.714 5.61861 315.652C4.82618 315.591 4.10633 315.499 3.50179 315.383C2.89726 315.267 2.42037 315.128 2.09944 314.976C1.77852 314.824 1.6201 314.661 1.63361 314.497V262.199C1.6201 262.035 1.77852 261.872 2.09944 261.72C2.42037 261.568 2.89726 261.429 3.50179 261.313C4.10633 261.197 4.82618 261.105 5.61861 261.044C6.41103 260.982 7.25986 260.952 8.1147 260.954ZM34.0391 315.386C34.6508 315.389 35.259 315.367 35.827 315.324C36.3949 315.28 36.9108 315.214 37.3435 315.131C37.7762 315.048 38.1167 314.949 38.3444 314.84C38.5721 314.731 38.6823 314.614 38.6684 314.497V262.199C38.6823 262.082 38.5721 261.965 38.3444 261.856C38.1167 261.747 37.7762 261.648 37.3435 261.565C36.9108 261.481 36.3949 261.416 35.827 261.372C35.259 261.329 34.6508 261.307 34.0391 261.31H8.1147C7.50296 261.307 6.89474 261.329 6.32679 261.372C5.75883 261.416 5.24293 261.481 4.81025 261.565C4.37757 261.648 4.03709 261.747 3.80937 261.856C3.58165 261.965 3.47143 262.082 3.48535 262.199V314.497C3.47143 314.614 3.58165 314.731 3.80937 314.84C4.03709 314.949 4.37757 315.048 4.81025 315.131C5.24293 315.214 5.75883 315.28 6.32679 315.324C6.89474 315.367 7.50296 315.389 8.1147 315.386H34.0391Z" fill="#362D3A"/>
<path d="M61.7906 0.712891H300.329C307.949 0.714105 315.494 2.19625 322.533 5.07471C329.572 7.95316 335.968 12.1716 341.355 17.489C346.742 22.8065 351.015 29.1189 353.93 36.0659C356.844 43.0128 358.344 50.4583 358.343 57.9771V665.119C358.344 672.638 356.844 680.083 353.93 687.03C351.015 693.977 346.742 700.289 341.355 705.607C335.968 710.924 329.572 715.143 322.533 718.021C315.494 720.9 307.949 722.382 300.329 722.383H61.7906C54.1709 722.382 46.6262 720.9 39.587 718.021C32.5478 715.143 26.1522 710.924 20.7651 705.607C15.3781 700.289 11.1052 693.977 8.19046 687.03C5.27569 680.083 3.77611 672.638 3.77734 665.119V57.9771C3.77611 50.4583 5.27569 43.0128 8.19046 36.0659C11.1052 29.1189 15.3781 22.8065 20.7651 17.489C26.1522 12.1716 32.5478 7.95316 39.587 5.07471C46.6262 2.19625 54.1709 0.714105 61.7906 0.712891V0.712891Z" fill="#B3A8A6"/>
<path d="M61.6443 1.42442C57.764 1.42347 53.8934 1.80845 50.0913 2.57353C42.7592 4.05527 35.7945 6.94724 29.5946 11.0844C20.3788 17.224 13.1649 25.8692 8.82685 35.9725C7.36124 39.3942 6.24252 42.9506 5.48705 46.5899C4.71174 50.3419 4.32162 54.1614 4.32259 57.9906V665.277C4.32162 669.106 4.71174 672.926 5.48705 676.678C6.98866 683.913 9.91939 690.786 14.112 696.904C20.3334 705.999 29.094 713.118 39.3325 717.399C42.7997 718.846 46.4036 719.95 50.0913 720.695C53.8934 721.46 57.764 721.844 61.6443 721.843H300.305C304.185 721.844 308.056 721.459 311.858 720.694C319.189 719.212 326.154 716.32 332.353 712.183C341.569 706.044 348.784 697.399 353.122 687.295C354.588 683.874 355.706 680.317 356.462 676.678C357.237 672.926 357.627 669.106 357.626 665.277V57.9906C357.627 54.1614 357.237 50.3419 356.462 46.5899C354.96 39.3543 352.03 32.4814 347.837 26.3634C341.616 17.2685 332.855 10.1493 322.616 5.86824C319.149 4.42234 315.545 3.31871 311.858 2.57353C308.056 1.80845 304.185 1.42347 300.305 1.42442H61.6443ZM61.6443 0.712891H300.305C315.698 0.712891 330.462 6.74749 341.347 17.4892C352.232 28.2308 358.347 42.7996 358.347 57.9906V665.277C358.347 680.468 352.232 695.037 341.347 705.779C330.462 716.52 315.698 722.555 300.305 722.555H61.6443C46.2504 722.555 31.487 716.52 20.6019 705.779C9.71676 695.037 3.60156 680.468 3.60156 665.277L3.60156 57.9906C3.60156 42.7996 9.71676 28.2308 20.6019 17.4892C31.487 6.74749 46.2504 0.712891 61.6443 0.712891V0.712891Z" fill="#18121C"/>
<path d="M78.7687 722.555V720.064H63.8074C48.4135 720.064 33.6501 714.03 22.765 703.288C11.8798 692.547 5.76465 677.978 5.76465 662.787V646.244H3.60156V641.263H5.76465V81.6488H3.60156V76.6682H5.76465V60.481C5.76465 45.29 11.8798 30.7211 22.765 19.9795C33.6501 9.23781 48.4135 3.20323 63.8074 3.20323H278.854V0.712891H283.901V3.20323H297.781C313.175 3.20323 327.938 9.23781 338.823 19.9795C349.709 30.7211 355.824 45.29 355.824 60.481V76.6682H358.347V81.6488H355.824V641.263H358.347V646.244H355.824V662.787C355.824 677.978 349.709 692.547 338.823 703.288C327.938 714.03 313.175 720.064 297.781 720.064H83.8159V722.555H78.7687Z" fill="#3A3044"/>
<path d="M62.7781 5.33838H298.839C313.316 5.33838 327.2 10.9982 337.437 21.0726C347.674 31.1471 353.425 44.811 353.425 59.0585V663.499C353.425 677.746 347.674 691.41 337.437 701.485C327.2 711.559 313.316 717.219 298.839 717.219H62.7781C48.3008 717.219 34.4165 711.559 24.1795 701.485C13.9425 691.41 8.19141 677.746 8.19141 663.499L8.19141 59.0585C8.19141 44.811 13.9425 31.1471 24.1795 21.0726C34.4165 10.9982 48.3008 5.33838 62.7781 5.33838V5.33838Z" fill="#404040"/>
<path d="M130.859 5.69482H230.426V9.96397H130.859V5.69482Z" fill="#141414"/>
<path d="M298.496 716.508H63.451C59.7549 716.509 56.0682 716.143 52.4466 715.417C45.4622 714.009 38.8277 711.263 32.922 707.333C24.1433 701.503 17.2716 693.293 13.1392 683.698C11.7428 680.448 10.6769 677.071 9.95702 673.614C9.21845 670.051 8.84681 666.424 8.84766 662.788V59.4146C8.84683 55.7782 9.21847 52.151 9.95702 48.588C11.3874 41.7164 14.1793 35.1892 18.1732 29.379C24.0994 20.7421 32.4443 13.9814 42.1968 9.91594C45.4999 8.54213 48.9331 7.49345 52.4462 6.78524C56.0679 6.05896 59.7548 5.69365 63.451 5.69483H145.068L146.39 7.37936C146.469 7.46687 146.566 7.53611 146.675 7.58208C146.784 7.62804 146.902 7.64958 147.021 7.64511H214.205C214.323 7.6495 214.441 7.62793 214.55 7.58197C214.659 7.53601 214.756 7.4668 214.835 7.37936L216.157 5.69483H298.496C302.192 5.69402 305.878 6.05969 309.5 6.7863C316.484 8.19358 323.119 10.9403 329.025 14.8696C337.803 20.7 344.675 28.9099 348.807 38.5046C350.204 41.7543 351.27 45.132 351.99 48.5884C352.728 52.1514 353.1 55.7786 353.099 59.4149V662.788C353.1 666.424 352.728 670.051 351.99 673.614C350.559 680.486 347.767 687.013 343.773 692.824C337.847 701.46 329.502 708.221 319.75 712.287C316.447 713.66 313.013 714.709 309.5 715.417C305.879 716.144 302.192 716.509 298.496 716.508Z" fill="black"/>
<path opacity="0.197" d="M114.85 695.339H246.437C247.062 695.339 247.662 695.545 248.104 695.912C248.546 696.279 248.794 696.777 248.794 697.296C248.794 697.815 248.546 698.312 248.104 698.679C247.662 699.046 247.062 699.252 246.437 699.252H114.85C114.224 699.252 113.625 699.046 113.183 698.679C112.741 698.312 112.492 697.815 112.492 697.296C112.492 696.777 112.741 696.279 113.183 695.912C113.625 695.545 114.224 695.339 114.85 695.339V695.339Z" fill="white"/>
<path d="M142.845 24.5146H218.155C222.357 24.5146 226.388 26.3254 229.359 29.5484C232.331 32.7715 234 37.1429 234 41.7011C234 46.2592 232.331 50.6306 229.359 53.8537C226.388 57.0768 222.357 58.8875 218.155 58.8875H142.845C138.643 58.8875 134.612 57.0768 131.641 53.8537C128.669 50.6306 127 46.2592 127 41.7011C127 37.1429 128.669 32.7715 131.641 29.5484C134.612 26.3254 138.643 24.5146 142.845 24.5146V24.5146Z" fill="#010101"/>
<path d="M142.845 25.7278C139.447 25.7296 136.154 27.0055 133.524 29.3393C130.895 31.6732 129.089 34.9213 128.415 38.5336C127.74 42.1458 128.238 45.8998 129.823 49.1597C131.408 52.4196 133.984 54.9848 137.113 56.4207C138.927 57.2526 140.876 57.679 142.845 57.6743H218.155C221.553 57.6725 224.846 56.3966 227.476 54.0628C230.105 51.729 231.911 48.4808 232.585 44.8686C233.26 41.2564 232.762 37.5023 231.177 34.2424C229.592 30.9825 227.016 28.4173 223.887 26.9814C222.073 26.1495 220.124 25.7232 218.155 25.7278H142.845ZM142.845 24.5146H218.155C222.357 24.5146 226.388 26.3254 229.359 29.5484C232.331 32.7715 234 37.1429 234 41.7011C234 46.2592 232.331 50.6306 229.359 53.8537C226.388 57.0768 222.357 58.8875 218.155 58.8875H142.845C138.643 58.8875 134.612 57.0768 131.641 53.8537C128.669 50.6306 127 46.2592 127 41.7011C127 37.1429 128.669 32.7715 131.641 29.5484C134.612 26.3254 138.643 24.5146 142.845 24.5146V24.5146Z" fill="#0D0D0D"/>
<path d="M142.848 31.5923H178.639C181.111 31.5923 183.482 32.6574 185.229 34.5533C186.977 36.4493 187.959 39.0207 187.959 41.7019C187.959 44.3832 186.977 46.9546 185.229 48.8506C183.482 50.7465 181.111 51.8116 178.639 51.8116H142.848C140.376 51.8116 138.005 50.7465 136.257 48.8506C134.509 46.9546 133.527 44.3832 133.527 41.7019C133.527 39.0207 134.509 36.4493 136.257 34.5533C138.005 32.6574 140.376 31.5923 142.848 31.5923V31.5923Z" fill="#030303"/>
<path d="M217.782 32.4009C219.478 32.4009 221.136 32.9464 222.546 33.9684C223.956 34.9904 225.055 36.443 225.704 38.1425C226.353 39.842 226.523 41.7121 226.192 43.5163C225.861 45.3205 225.045 46.9777 223.845 48.2785C222.646 49.5792 221.118 50.4651 219.455 50.8239C217.791 51.1828 216.067 50.9986 214.5 50.2947C212.934 49.5907 211.594 48.3986 210.652 46.8691C209.71 45.3395 209.207 43.5413 209.207 41.7018C209.207 39.235 210.11 36.8693 211.719 35.125C213.327 33.3808 215.508 32.4009 217.782 32.4009V32.4009Z" fill="#0F0C0F"/>
<path d="M217.782 36.8486C218.667 36.8486 219.532 37.1332 220.268 37.6664C221.004 38.1997 221.577 38.9575 221.916 39.8442C222.254 40.7309 222.343 41.7067 222.17 42.648C221.998 43.5893 221.572 44.4539 220.946 45.1326C220.32 45.8113 219.523 46.2734 218.655 46.4607C217.787 46.6479 216.888 46.5518 216.07 46.1845C215.253 45.8172 214.554 45.1953 214.063 44.3972C213.571 43.5992 213.309 42.661 213.309 41.7013C213.309 40.4143 213.78 39.18 214.619 38.2699C215.458 37.3599 216.596 36.8486 217.782 36.8486V36.8486Z" fill="url(#paint4_radial_72_22699)"/>
<defs>
<linearGradient id="paint0_linear_72_22699" x1="341.03" y1="229.824" x2="341.03" y2="315.563" gradientUnits="userSpaceOnUse">
<stop stop-color="#B7AEAE"/>
<stop offset="0.077" stop-color="#211828"/>
<stop offset="0.499" stop-color="#5F5668"/>
<stop offset="0.913" stop-color="#241B2B"/>
<stop offset="1" stop-color="#AFA6A7"/>
</linearGradient>
<linearGradient id="paint1_linear_72_22699" x1="20.4207" y1="139.817" x2="20.4207" y2="166.499" gradientUnits="userSpaceOnUse">
<stop stop-color="#B7AEAE"/>
<stop offset="0.077" stop-color="#211828"/>
<stop offset="0.499" stop-color="#5F5668"/>
<stop offset="0.913" stop-color="#241B2B"/>
<stop offset="1" stop-color="#AFA6A7"/>
</linearGradient>
<linearGradient id="paint2_linear_72_22699" x1="21.0731" y1="191.757" x2="21.0731" y2="246.189" gradientUnits="userSpaceOnUse">
<stop stop-color="#B7AEAE"/>
<stop offset="0.077" stop-color="#211828"/>
<stop offset="0.499" stop-color="#5F5668"/>
<stop offset="0.913" stop-color="#241B2B"/>
<stop offset="1" stop-color="#AFA6A7"/>
</linearGradient>
<linearGradient id="paint3_linear_72_22699" x1="21.0731" y1="261.132" x2="21.0731" y2="315.564" gradientUnits="userSpaceOnUse">
<stop stop-color="#B7AEAE"/>
<stop offset="0.077" stop-color="#211828"/>
<stop offset="0.499" stop-color="#5F5668"/>
<stop offset="0.913" stop-color="#241B2B"/>
<stop offset="1" stop-color="#AFA6A7"/>
</linearGradient>
<radialGradient id="paint4_radial_72_22699" cx="0" cy="0" r="1" gradientUnits="userSpaceOnUse" gradientTransform="translate(217.782 41.7013) scale(4.47387 4.85264)">
<stop stop-color="#48235C"/>
<stop offset="0.537" stop-color="#0B112F"/>
<stop offset="1"/>
</radialGradient>
</defs>
</svg>
