<svg width="15" height="12" viewBox="0 0 15 12" fill="none" xmlns="http://www.w3.org/2000/svg">
<path d="M13.7139 0C14.1873 0 14.5713 0.384035 14.5713 0.857422V11.1426C14.5713 11.616 14.1873 12 13.7139 12H0.857422L0.769531 11.9951C0.337321 11.9512 0 11.5864 0 11.1426V0.857422C0 0.413628 0.337321 0.0487863 0.769531 0.00488281L0.857422 0H13.7139ZM1.88574 10.1143H12.6855V1.88574H1.88574V10.1143ZM10.373 3.43359C10.8053 3.47747 11.1426 3.84232 11.1426 4.28613V7.71484L11.1387 7.80176C11.0978 8.20532 10.7766 8.52647 10.373 8.56738L10.2861 8.57129H4.28613L4.19824 8.56738C3.79478 8.52643 3.47452 8.20523 3.43359 7.80176L3.42871 7.71484V4.28613C3.42871 3.84234 3.76603 3.4775 4.19824 3.43359L4.28613 3.42871H10.2861L10.373 3.43359ZM5.31445 6.68555H9.25684V5.31445H5.31445V6.68555Z" fill="#14C087"/>
</svg>
