<svg width="107" height="35" viewBox="0 0 107 35" fill="none" xmlns="http://www.w3.org/2000/svg">
<path d="M15.8449 0.514648H91.1551C95.3574 0.514648 99.3876 2.32536 102.359 5.54843C105.331 8.77151 107 13.1429 107 17.7011C107 22.2592 105.331 26.6306 102.359 29.8537C99.3876 33.0768 95.3574 34.8875 91.1551 34.8875H15.8449C11.6426 34.8875 7.61238 33.0768 4.64088 29.8537C1.66937 26.6306 0 22.2592 0 17.7011C0 13.1429 1.66937 8.77151 4.64088 5.54843C7.61238 2.32536 11.6426 0.514648 15.8449 0.514648V0.514648Z" fill="#010101"/>
<path d="M15.8449 1.72781C12.4471 1.72963 9.15422 3.00553 6.52437 5.33934C3.89453 7.67315 2.08939 10.9213 1.41483 14.5336C0.740265 18.1458 1.23775 21.8998 2.823 25.1597C4.40825 28.4196 6.98377 30.9848 10.1132 32.4207C11.9266 33.2526 13.8761 33.679 15.8449 33.6743H91.1551C94.5529 33.6725 97.8458 32.3966 100.476 30.0628C103.105 27.729 104.911 24.4808 105.585 20.8686C106.26 17.2564 105.762 13.5023 104.177 10.2424C102.592 6.98251 100.016 4.4173 96.8868 2.98141C95.0734 2.14955 93.1239 1.72317 91.1551 1.72781H15.8449ZM15.8449 0.514648H91.1551C95.3574 0.514648 99.3876 2.32536 102.359 5.54843C105.331 8.77151 107 13.1429 107 17.7011C107 22.2592 105.331 26.6306 102.359 29.8537C99.3876 33.0768 95.3574 34.8875 91.1551 34.8875H15.8449C11.6426 34.8875 7.61238 33.0768 4.64088 29.8537C1.66937 26.6306 0 22.2592 0 17.7011C0 13.1429 1.66937 8.77151 4.64088 5.54843C7.61238 2.32536 11.6426 0.514648 15.8449 0.514648V0.514648Z" fill="#0D0D0D"/>
<path d="M15.8479 7.59229H51.6388C54.1108 7.59229 56.4815 8.65741 58.2295 10.5533C59.9774 12.4493 60.9594 15.0207 60.9594 17.7019C60.9594 20.3832 59.9774 22.9546 58.2295 24.8506C56.4815 26.7465 54.1108 27.8116 51.6388 27.8116H15.8479C13.3759 27.8116 11.0052 26.7465 9.25727 24.8506C7.50933 22.9546 6.52734 20.3832 6.52734 17.7019C6.52734 15.0207 7.50933 12.4493 9.25727 10.5533C11.0052 8.65741 13.3759 7.59229 15.8479 7.59229V7.59229Z" fill="#030303"/>
<path d="M90.7819 8.40088C92.4779 8.40088 94.1358 8.94637 95.5459 9.96836C96.956 10.9904 98.0551 12.443 98.7041 14.1425C99.3531 15.842 99.523 17.7121 99.1921 19.5163C98.8612 21.3205 98.0445 22.9777 96.8453 24.2785C95.6461 25.5792 94.1182 26.4651 92.4548 26.8239C90.7915 27.1828 89.0673 26.9986 87.5005 26.2947C85.9336 25.5907 84.5944 24.3986 83.6522 22.8691C82.7099 21.3395 82.207 19.5413 82.207 17.7018C82.207 15.235 83.1105 12.8693 84.7186 11.125C86.3267 9.38079 88.5077 8.40088 90.7819 8.40088V8.40088Z" fill="#0F0C0F"/>
<path d="M90.7825 12.8486C91.6673 12.8486 92.5323 13.1332 93.268 13.6664C94.0037 14.1997 94.5772 14.9575 94.9158 15.8442C95.2544 16.7309 95.343 17.7067 95.1704 18.648C94.9977 19.5893 94.5716 20.4539 93.946 21.1326C93.3203 21.8113 92.5231 22.2734 91.6553 22.4607C90.7874 22.6479 89.8879 22.5518 89.0704 22.1845C88.2529 21.8172 87.5542 21.1953 87.0626 20.3972C86.571 19.5992 86.3086 18.661 86.3086 17.7013C86.3086 16.4143 86.7799 15.18 87.619 14.2699C88.458 13.3599 89.5959 12.8486 90.7825 12.8486V12.8486Z" fill="url(#paint0_radial_72_22717)"/>
<defs>
<radialGradient id="paint0_radial_72_22717" cx="0" cy="0" r="1" gradientUnits="userSpaceOnUse" gradientTransform="translate(90.7825 17.7013) scale(4.47387 4.85264)">
<stop stop-color="#48235C"/>
<stop offset="0.537" stop-color="#0B112F"/>
<stop offset="1"/>
</radialGradient>
</defs>
</svg>
