<svg width="142" height="142" viewBox="0 0 142 142" fill="none" xmlns="http://www.w3.org/2000/svg">
<circle cx="69.769" cy="69.77" r="67.77" fill="#081B18"/>
<circle cx="69.769" cy="69.77" r="67.77" stroke="url(#paint0_linear_388_288)" stroke-opacity="0.08" stroke-width="3.5"/>
<circle cx="69.769" cy="69.77" r="67.77" stroke="url(#paint1_linear_388_288)" stroke-opacity="0.3" stroke-width="3.5"/>
<circle cx="69.769" cy="69.77" r="67.77" stroke="url(#paint2_linear_388_288)" stroke-opacity="0.3" stroke-width="3.5"/>
<path d="M104.91 84.6572C99.9126 98.0505 86.9814 107.614 71.8695 107.614C57.3987 107.614 44.9415 98.839 39.5248 86.3366L35.0527 90.4242L36.6264 72.5265C36.6264 72.477 36.6213 72.4174 36.6213 72.3662H36.646V72.2963L54.8498 72.3159L48.2985 78.3122C50.9574 88.8659 60.5009 96.701 71.8687 96.701C80.8043 96.701 88.6301 91.8641 92.8669 84.6572H104.91Z" fill="url(#paint3_linear_388_288)"/>
<path d="M50.977 59.8939C55.2342 52.7988 63.0046 48.0419 71.8695 48.0419C83.2032 48.0419 92.7074 55.8268 95.4064 66.3199L88.9114 72.2659L96.1966 72.2753C96.1966 72.3051 96.206 72.3358 96.206 72.3657H107.119C107.119 72.3461 107.119 72.3154 107.119 72.2958L108.707 54.1585L104.17 58.316C98.7225 45.8536 86.3011 37.1191 71.8695 37.1191C56.8241 37.1191 43.9517 46.603 38.8999 59.8939H50.977Z" fill="url(#paint4_linear_388_288)"/>
<path d="M104.91 84.6572C99.9126 98.0505 86.9814 107.614 71.8695 107.614C57.3987 107.614 44.9415 98.839 39.5248 86.3366L35.0527 90.4242L36.6264 72.5265C36.6264 72.477 36.6213 72.4174 36.6213 72.3662H36.646V72.2963L54.8498 72.3159L48.2985 78.3122C50.9574 88.8659 60.5009 96.701 71.8687 96.701C80.8043 96.701 88.6301 91.8641 92.8669 84.6572H104.91Z" fill="url(#paint5_radial_388_288)" fill-opacity="0.4"/>
<path d="M50.977 59.8939C55.2342 52.7988 63.0046 48.0419 71.8695 48.0419C83.2032 48.0419 92.7074 55.8268 95.4064 66.3199L88.9114 72.2659L96.1966 72.2753C96.1966 72.3051 96.206 72.3358 96.206 72.3657H107.119C107.119 72.3461 107.119 72.3154 107.119 72.2958L108.707 54.1585L104.17 58.316C98.7225 45.8536 86.3011 37.1191 71.8695 37.1191C56.8241 37.1191 43.9517 46.603 38.8999 59.8939H50.977Z" fill="url(#paint6_radial_388_288)" fill-opacity="0.4"/>
<path d="M104.91 84.6572C99.9126 98.0505 86.9814 107.614 71.8695 107.614C57.3987 107.614 44.9415 98.839 39.5248 86.3366L35.0527 90.4242L36.6264 72.5265C36.6264 72.477 36.6213 72.4174 36.6213 72.3662H36.646V72.2963L54.8498 72.3159L48.2985 78.3122C50.9574 88.8659 60.5009 96.701 71.8687 96.701C80.8043 96.701 88.6301 91.8641 92.8669 84.6572H104.91Z" fill="url(#paint7_radial_388_288)" fill-opacity="0.7"/>
<path d="M50.977 59.8939C55.2342 52.7988 63.0046 48.0419 71.8695 48.0419C83.2032 48.0419 92.7074 55.8268 95.4064 66.3199L88.9114 72.2659L96.1966 72.2753C96.1966 72.3051 96.206 72.3358 96.206 72.3657H107.119C107.119 72.3461 107.119 72.3154 107.119 72.2958L108.707 54.1585L104.17 58.316C98.7225 45.8536 86.3011 37.1191 71.8695 37.1191C56.8241 37.1191 43.9517 46.603 38.8999 59.8939H50.977Z" fill="url(#paint8_radial_388_288)" fill-opacity="0.7"/>
<g filter="url(#filter0_i_388_288)">
<circle cx="69.5" cy="70" r="68" fill="#081B18"/>
</g>
<circle cx="69.5" cy="70" r="66.8943" stroke="url(#paint9_linear_388_288)" stroke-opacity="0.2" stroke-width="2.21138"/>
<path d="M101.132 82.0237C96.2937 94.9903 83.7744 104.249 69.1439 104.249C55.1341 104.249 43.0737 95.7537 37.8296 83.6495L33.5 87.607L35.0235 70.2794C35.0235 70.2315 35.0186 70.1737 35.0186 70.1242H35.0425V70.0565L52.6664 70.0755L46.3238 75.8808C48.898 86.0983 58.1375 93.6838 69.1431 93.6838C77.7941 93.6838 85.3706 89.0009 89.4724 82.0237H101.132Z" fill="url(#paint10_linear_388_288)"/>
<path d="M48.9169 58.0493C53.0386 51.1801 60.5614 46.5748 69.1439 46.5748C80.1165 46.5748 89.318 54.1116 91.931 64.2705L85.6429 70.0271L92.696 70.0362C92.696 70.0651 92.7051 70.0948 92.7051 70.1237H103.27C103.27 70.1047 103.27 70.075 103.27 70.056L104.808 52.4965L100.415 56.5216C95.1415 44.4562 83.1157 36 69.1439 36C54.5778 36 42.1155 45.1817 37.2246 58.0493H48.9169Z" fill="url(#paint11_linear_388_288)"/>
<defs>
<filter id="filter0_i_388_288" x="1.5" y="2" width="136" height="145.951" filterUnits="userSpaceOnUse" color-interpolation-filters="sRGB">
<feFlood flood-opacity="0" result="BackgroundImageFix"/>
<feBlend mode="normal" in="SourceGraphic" in2="BackgroundImageFix" result="shape"/>
<feColorMatrix in="SourceAlpha" type="matrix" values="0 0 0 0 0 0 0 0 0 0 0 0 0 0 0 0 0 0 127 0" result="hardAlpha"/>
<feOffset dy="9.95122"/>
<feGaussianBlur stdDeviation="9.95122"/>
<feComposite in2="hardAlpha" operator="arithmetic" k2="-1" k3="1"/>
<feColorMatrix type="matrix" values="0 0 0 0 0.0588235 0 0 0 0 0.0901961 0 0 0 0 0.117647 0 0 0 0.4 0"/>
<feBlend mode="normal" in2="shape" result="effect1_innerShadow_388_288"/>
</filter>
<linearGradient id="paint0_linear_388_288" x1="53.3902" y1="0.262313" x2="53.3902" y2="102.55" gradientUnits="userSpaceOnUse">
<stop stop-color="white"/>
<stop offset="1" stop-color="white" stop-opacity="0.1"/>
</linearGradient>
<linearGradient id="paint1_linear_388_288" x1="104.332" y1="10.8101" x2="63.6697" y2="74.5139" gradientUnits="userSpaceOnUse">
<stop stop-color="#02C394"/>
<stop offset="0.575" stop-color="#02C394" stop-opacity="0"/>
</linearGradient>
<linearGradient id="paint2_linear_388_288" x1="44.6941" y1="133.474" x2="107.72" y2="5.3885" gradientUnits="userSpaceOnUse">
<stop stop-color="#02C394"/>
<stop offset="0.575" stop-color="#02C394" stop-opacity="0"/>
</linearGradient>
<linearGradient id="paint3_linear_388_288" x1="61.2194" y1="64.0183" x2="87.2178" y2="92.3801" gradientUnits="userSpaceOnUse">
<stop stop-color="#85FCDF"/>
<stop offset="1" stop-color="white" stop-opacity="0.1"/>
</linearGradient>
<linearGradient id="paint4_linear_388_288" x1="61.2194" y1="64.0183" x2="87.2178" y2="92.3801" gradientUnits="userSpaceOnUse">
<stop stop-color="#85FCDF"/>
<stop offset="1" stop-color="white" stop-opacity="0.1"/>
</linearGradient>
<radialGradient id="paint5_radial_388_288" cx="0" cy="0" r="1" gradientUnits="userSpaceOnUse" gradientTransform="translate(71.8797 68.6561) rotate(27.941) scale(56.2767 162.775)">
<stop stop-color="#047047"/>
<stop offset="0.279894" stop-color="#02C394" stop-opacity="0"/>
</radialGradient>
<radialGradient id="paint6_radial_388_288" cx="0" cy="0" r="1" gradientUnits="userSpaceOnUse" gradientTransform="translate(71.8797 68.6561) rotate(27.941) scale(56.2767 162.775)">
<stop stop-color="#047047"/>
<stop offset="0.279894" stop-color="#02C394" stop-opacity="0"/>
</radialGradient>
<radialGradient id="paint7_radial_388_288" cx="0" cy="0" r="1" gradientUnits="userSpaceOnUse" gradientTransform="translate(68.9722 69.5836) rotate(43.7443) scale(20.1223 70.6384)">
<stop stop-color="#02C394"/>
<stop offset="0.313259" stop-color="#02C394" stop-opacity="0"/>
</radialGradient>
<radialGradient id="paint8_radial_388_288" cx="0" cy="0" r="1" gradientUnits="userSpaceOnUse" gradientTransform="translate(68.9722 69.5836) rotate(43.7443) scale(20.1223 70.6384)">
<stop stop-color="#02C394"/>
<stop offset="0.313259" stop-color="#02C394" stop-opacity="0"/>
</radialGradient>
<linearGradient id="paint9_linear_388_288" x1="69.5" y1="2" x2="69.5" y2="138" gradientUnits="userSpaceOnUse">
<stop stop-color="#076A49"/>
<stop offset="0.5" stop-color="#0E8F64"/>
<stop offset="1" stop-color="#076A49"/>
</linearGradient>
<linearGradient id="paint10_linear_388_288" x1="69.1538" y1="36" x2="69.1538" y2="104.249" gradientUnits="userSpaceOnUse">
<stop stop-color="white"/>
<stop offset="1" stop-color="#999999"/>
</linearGradient>
<linearGradient id="paint11_linear_388_288" x1="69.1538" y1="36" x2="69.1538" y2="104.249" gradientUnits="userSpaceOnUse">
<stop stop-color="white"/>
<stop offset="1" stop-color="#999999"/>
</linearGradient>
</defs>
</svg>
