<svg width="143" height="142" viewBox="0 0 143 142" fill="none" xmlns="http://www.w3.org/2000/svg">
<circle cx="70.269" cy="69.77" r="67.77" fill="#081B18"/>
<circle cx="70.269" cy="69.77" r="67.77" stroke="url(#paint0_linear_388_320)" stroke-opacity="0.08" stroke-width="3.5"/>
<circle cx="70.269" cy="69.77" r="67.77" stroke="url(#paint1_linear_388_320)" stroke-opacity="0.3" stroke-width="3.5"/>
<circle cx="70.269" cy="69.77" r="67.77" stroke="url(#paint2_linear_388_320)" stroke-opacity="0.3" stroke-width="3.5"/>
<path d="M80.7696 66.4182H56.9257L52.9649 55.9381C51.8384 52.9107 53.3929 49.4944 56.422 48.3304L61.5094 46.4279C62.9839 45.885 64.5759 45.9242 66.013 46.5836C67.4884 47.243 68.5758 48.4079 69.1204 49.8824L69.7415 51.4744C70.5949 53.8032 73.1586 54.9672 75.4883 54.0746C77.7797 53.2212 78.9437 50.6593 78.0903 48.3304L77.5074 46.7393C76.1094 43.0508 73.3526 40.1017 69.7024 38.4706C66.0913 36.802 62.0522 36.6854 58.3637 38.0826L53.2764 39.9851C49.587 41.3814 46.6353 44.1382 45.0051 47.7484C43.3731 51.3578 43.2182 55.3952 44.6162 59.082L47.4122 66.5348C43.0634 67.0785 39.6846 70.7662 39.6846 75.2298V98.4032C39.6846 103.256 43.6454 107.215 48.5387 107.215H80.7696C85.6239 107.215 89.5855 103.256 89.5855 98.4032V75.2298C89.5855 70.3782 85.6239 66.4182 80.7696 66.4182ZM69.0038 95.3758C69.1978 96.1135 68.6541 96.8113 67.9164 96.8113H61.3911C60.6151 96.8113 60.0714 96.1135 60.2662 95.3758L62.4402 86.8748C60.6151 86.0597 59.372 84.2354 59.372 82.0997C59.372 79.1889 61.7417 76.8218 64.6542 76.8218C67.5659 76.8218 69.9355 79.1889 69.9355 82.0997C69.9355 84.2354 68.6541 86.098 66.829 86.9139L69.0038 95.3758Z" fill="url(#paint3_linear_388_320)"/>
<path d="M93.631 58.5289C94.1543 58.5289 94.6759 58.4192 95.1668 58.1971L100.799 55.6632C102.68 54.8158 103.522 52.5941 102.675 50.7103C101.824 48.8282 99.599 47.9909 97.7228 48.8358L92.0918 51.3706C90.2088 52.2189 89.3665 54.4388 90.2139 56.3209C90.6257 57.2322 91.3668 57.9299 92.3028 58.2847C92.7342 58.4473 93.1826 58.5289 93.631 58.5289Z" fill="url(#paint4_linear_388_320)"/>
<path d="M93.8561 40.5435C93.6961 39.5557 93.1592 38.6895 92.3458 38.1058C90.6696 36.9043 88.3263 37.283 87.1189 38.9566L83.5087 43.9666C82.7301 45.0506 82.5872 46.4775 83.1343 47.6942C83.4006 48.2856 83.8235 48.8046 84.3604 49.1918C85.0215 49.6674 85.7856 49.8971 86.5437 49.8971C87.7077 49.8971 88.8572 49.3568 89.589 48.3426L93.1992 43.3335C93.7821 42.5201 94.0161 41.5288 93.8561 40.5435Z" fill="url(#paint5_linear_388_320)"/>
<path d="M101.962 62.6937L95.82 62.0751C94.8211 61.9671 93.8485 62.2666 93.0743 62.8996C92.2983 63.5327 91.8167 64.4295 91.7171 65.4241C91.6507 66.0802 91.758 66.7396 92.026 67.3326C92.5739 68.5502 93.7388 69.3892 95.067 69.5245L101.213 70.1439C101.338 70.1567 101.463 70.1626 101.586 70.1626C103.485 70.1626 105.119 68.7204 105.314 66.7932C105.519 64.7383 104.016 62.8996 101.962 62.6937Z" fill="url(#paint6_linear_388_320)"/>
<path d="M80.7696 66.4182H56.9257L52.9649 55.9381C51.8384 52.9107 53.3929 49.4944 56.422 48.3304L61.5094 46.4279C62.9839 45.885 64.5759 45.9242 66.013 46.5836C67.4884 47.243 68.5758 48.4079 69.1204 49.8824L69.7415 51.4744C70.5949 53.8032 73.1586 54.9672 75.4883 54.0746C77.7797 53.2212 78.9437 50.6593 78.0903 48.3304L77.5074 46.7393C76.1094 43.0508 73.3526 40.1017 69.7024 38.4706C66.0913 36.802 62.0522 36.6854 58.3637 38.0826L53.2764 39.9851C49.587 41.3814 46.6353 44.1382 45.0051 47.7484C43.3731 51.3578 43.2182 55.3952 44.6162 59.082L47.4122 66.5348C43.0634 67.0785 39.6846 70.7662 39.6846 75.2298V98.4032C39.6846 103.256 43.6454 107.215 48.5387 107.215H80.7696C85.6239 107.215 89.5855 103.256 89.5855 98.4032V75.2298C89.5855 70.3782 85.6239 66.4182 80.7696 66.4182ZM69.0038 95.3758C69.1978 96.1135 68.6541 96.8113 67.9164 96.8113H61.3911C60.6151 96.8113 60.0714 96.1135 60.2662 95.3758L62.4402 86.8748C60.6151 86.0597 59.372 84.2354 59.372 82.0997C59.372 79.1889 61.7417 76.8218 64.6542 76.8218C67.5659 76.8218 69.9355 79.1889 69.9355 82.0997C69.9355 84.2354 68.6541 86.098 66.829 86.9139L69.0038 95.3758Z" fill="url(#paint7_radial_388_320)" fill-opacity="0.4"/>
<path d="M93.631 58.5289C94.1543 58.5289 94.6759 58.4192 95.1668 58.1971L100.799 55.6632C102.68 54.8158 103.522 52.5941 102.675 50.7103C101.824 48.8282 99.599 47.9909 97.7228 48.8358L92.0918 51.3706C90.2088 52.2189 89.3665 54.4388 90.2139 56.3209C90.6257 57.2322 91.3668 57.9299 92.3028 58.2847C92.7342 58.4473 93.1826 58.5289 93.631 58.5289Z" fill="url(#paint8_radial_388_320)" fill-opacity="0.4"/>
<path d="M93.8561 40.5435C93.6961 39.5557 93.1592 38.6895 92.3458 38.1058C90.6696 36.9043 88.3263 37.283 87.1189 38.9566L83.5087 43.9666C82.7301 45.0506 82.5872 46.4775 83.1343 47.6942C83.4006 48.2856 83.8235 48.8046 84.3604 49.1918C85.0215 49.6674 85.7856 49.8971 86.5437 49.8971C87.7077 49.8971 88.8572 49.3568 89.589 48.3426L93.1992 43.3335C93.7821 42.5201 94.0161 41.5288 93.8561 40.5435Z" fill="url(#paint9_radial_388_320)" fill-opacity="0.4"/>
<path d="M101.962 62.6937L95.82 62.0751C94.8211 61.9671 93.8485 62.2666 93.0743 62.8996C92.2983 63.5327 91.8167 64.4295 91.7171 65.4241C91.6507 66.0802 91.758 66.7396 92.026 67.3326C92.5739 68.5502 93.7388 69.3892 95.067 69.5245L101.213 70.1439C101.338 70.1567 101.463 70.1626 101.586 70.1626C103.485 70.1626 105.119 68.7204 105.314 66.7932C105.519 64.7383 104.016 62.8996 101.962 62.6937Z" fill="url(#paint10_radial_388_320)" fill-opacity="0.4"/>
<path d="M80.7696 66.4182H56.9257L52.9649 55.9381C51.8384 52.9107 53.3929 49.4944 56.422 48.3304L61.5094 46.4279C62.9839 45.885 64.5759 45.9242 66.013 46.5836C67.4884 47.243 68.5758 48.4079 69.1204 49.8824L69.7415 51.4744C70.5949 53.8032 73.1586 54.9672 75.4883 54.0746C77.7797 53.2212 78.9437 50.6593 78.0903 48.3304L77.5074 46.7393C76.1094 43.0508 73.3526 40.1017 69.7024 38.4706C66.0913 36.802 62.0522 36.6854 58.3637 38.0826L53.2764 39.9851C49.587 41.3814 46.6353 44.1382 45.0051 47.7484C43.3731 51.3578 43.2182 55.3952 44.6162 59.082L47.4122 66.5348C43.0634 67.0785 39.6846 70.7662 39.6846 75.2298V98.4032C39.6846 103.256 43.6454 107.215 48.5387 107.215H80.7696C85.6239 107.215 89.5855 103.256 89.5855 98.4032V75.2298C89.5855 70.3782 85.6239 66.4182 80.7696 66.4182ZM69.0038 95.3758C69.1978 96.1135 68.6541 96.8113 67.9164 96.8113H61.3911C60.6151 96.8113 60.0714 96.1135 60.2662 95.3758L62.4402 86.8748C60.6151 86.0597 59.372 84.2354 59.372 82.0997C59.372 79.1889 61.7417 76.8218 64.6542 76.8218C67.5659 76.8218 69.9355 79.1889 69.9355 82.0997C69.9355 84.2354 68.6541 86.098 66.829 86.9139L69.0038 95.3758Z" fill="url(#paint11_radial_388_320)" fill-opacity="0.7"/>
<path d="M93.631 58.5289C94.1543 58.5289 94.6759 58.4192 95.1668 58.1971L100.799 55.6632C102.68 54.8158 103.522 52.5941 102.675 50.7103C101.824 48.8282 99.599 47.9909 97.7228 48.8358L92.0918 51.3706C90.2088 52.2189 89.3665 54.4388 90.2139 56.3209C90.6257 57.2322 91.3668 57.9299 92.3028 58.2847C92.7342 58.4473 93.1826 58.5289 93.631 58.5289Z" fill="url(#paint12_radial_388_320)" fill-opacity="0.7"/>
<path d="M93.8561 40.5435C93.6961 39.5557 93.1592 38.6895 92.3458 38.1058C90.6696 36.9043 88.3263 37.283 87.1189 38.9566L83.5087 43.9666C82.7301 45.0506 82.5872 46.4775 83.1343 47.6942C83.4006 48.2856 83.8235 48.8046 84.3604 49.1918C85.0215 49.6674 85.7856 49.8971 86.5437 49.8971C87.7077 49.8971 88.8572 49.3568 89.589 48.3426L93.1992 43.3335C93.7821 42.5201 94.0161 41.5288 93.8561 40.5435Z" fill="url(#paint13_radial_388_320)" fill-opacity="0.7"/>
<path d="M101.962 62.6937L95.82 62.0751C94.8211 61.9671 93.8485 62.2666 93.0743 62.8996C92.2983 63.5327 91.8167 64.4295 91.7171 65.4241C91.6507 66.0802 91.758 66.7396 92.026 67.3326C92.5739 68.5502 93.7388 69.3892 95.067 69.5245L101.213 70.1439C101.338 70.1567 101.463 70.1626 101.586 70.1626C103.485 70.1626 105.119 68.7204 105.314 66.7932C105.519 64.7383 104.016 62.8996 101.962 62.6937Z" fill="url(#paint14_radial_388_320)" fill-opacity="0.7"/>
<g filter="url(#filter0_i_388_320)">
<circle cx="70.5" cy="70" r="68" fill="#081B18"/>
</g>
<circle cx="70.5" cy="70" r="66.8943" stroke="url(#paint15_linear_388_320)" stroke-opacity="0.2" stroke-width="2.21138"/>
<path d="M84.2762 64.3657H61.1919L57.3573 54.2194C56.2666 51.2884 57.7716 47.981 60.7042 46.8541L65.6295 45.0122C67.0571 44.4866 68.5984 44.5245 69.9897 45.1629C71.4181 45.8014 72.4709 46.9291 72.9981 48.3567L73.5994 49.8979C74.4257 52.1526 76.9077 53.2795 79.1631 52.4154C81.3815 51.5891 82.5084 49.1088 81.6822 46.8541L81.1179 45.3137C79.7645 41.7427 77.0955 38.8875 73.5615 37.3084C70.0655 35.693 66.1551 35.5801 62.5841 36.9327L57.6588 38.7747C54.087 40.1265 51.2293 42.7955 49.651 46.2907C48.071 49.7851 47.9211 53.6938 49.2745 57.2632L51.9814 64.4785C47.7712 65.0049 44.5 68.5751 44.5 72.8966V95.3318C44.5 100.03 48.3346 103.863 53.0721 103.863H84.2762C88.9758 103.863 92.8112 100.03 92.8112 95.3318V72.8966C92.8112 68.1995 88.9758 64.3657 84.2762 64.3657ZM72.8852 92.4008C73.0731 93.115 72.5467 93.7905 71.8325 93.7905H65.515C64.7638 93.7905 64.2374 93.115 64.426 92.4008L66.5307 84.1706C64.7638 83.3814 63.5602 81.6153 63.5602 79.5476C63.5602 76.7295 65.8544 74.4378 68.6742 74.4378C71.4931 74.4378 73.7873 76.7295 73.7873 79.5476C73.7873 81.6153 72.5467 83.4185 70.7797 84.2085L72.8852 92.4008Z" fill="url(#paint16_linear_388_320)"/>
<path d="M96.7279 56.7278C97.2345 56.7278 97.7395 56.6215 98.2148 56.4065L103.667 53.9533C105.489 53.1329 106.304 50.982 105.484 49.1582C104.66 47.336 102.506 46.5254 100.689 47.3434L95.2377 49.7974C93.4147 50.6187 92.5992 52.7679 93.4196 54.5901C93.8183 55.4723 94.5358 56.1478 95.442 56.4913C95.8596 56.6487 96.2938 56.7278 96.7279 56.7278Z" fill="url(#paint17_linear_388_320)"/>
<path d="M96.9458 39.3153C96.7909 38.3589 96.2711 37.5203 95.4836 36.9552C93.8608 35.792 91.5921 36.1586 90.4232 37.779L86.928 42.6293C86.1743 43.6788 86.0359 45.0602 86.5655 46.2382C86.8234 46.8107 87.2328 47.3132 87.7526 47.688C88.3927 48.1485 89.1324 48.3709 89.8664 48.3709C90.9933 48.3709 92.1062 47.8478 92.8146 46.8659L96.3098 42.0164C96.8741 41.2289 97.1007 40.2692 96.9458 39.3153Z" fill="url(#paint18_linear_388_320)"/>
<path d="M104.794 60.7598L98.8471 60.161C97.88 60.0563 96.9385 60.3463 96.1889 60.9592C95.4376 61.5721 94.9713 62.4403 94.875 63.4033C94.8107 64.0384 94.9145 64.6768 95.174 65.251C95.7045 66.4298 96.8322 67.242 98.1181 67.373L104.068 67.9727C104.189 67.9851 104.31 67.9908 104.43 67.9908C106.268 67.9908 107.85 66.5945 108.039 64.7287C108.237 62.7393 106.782 60.9592 104.794 60.7598Z" fill="url(#paint19_linear_388_320)"/>
<defs>
<filter id="filter0_i_388_320" x="2.5" y="2" width="136" height="145.951" filterUnits="userSpaceOnUse" color-interpolation-filters="sRGB">
<feFlood flood-opacity="0" result="BackgroundImageFix"/>
<feBlend mode="normal" in="SourceGraphic" in2="BackgroundImageFix" result="shape"/>
<feColorMatrix in="SourceAlpha" type="matrix" values="0 0 0 0 0 0 0 0 0 0 0 0 0 0 0 0 0 0 127 0" result="hardAlpha"/>
<feOffset dy="9.95122"/>
<feGaussianBlur stdDeviation="9.95122"/>
<feComposite in2="hardAlpha" operator="arithmetic" k2="-1" k3="1"/>
<feColorMatrix type="matrix" values="0 0 0 0 0.0588235 0 0 0 0 0.0901961 0 0 0 0 0.117647 0 0 0 0.4 0"/>
<feBlend mode="normal" in2="shape" result="effect1_innerShadow_388_320"/>
</filter>
<linearGradient id="paint0_linear_388_320" x1="53.8902" y1="0.262313" x2="53.8902" y2="102.55" gradientUnits="userSpaceOnUse">
<stop stop-color="white"/>
<stop offset="1" stop-color="white" stop-opacity="0.1"/>
</linearGradient>
<linearGradient id="paint1_linear_388_320" x1="104.832" y1="10.8101" x2="64.1697" y2="74.5139" gradientUnits="userSpaceOnUse">
<stop stop-color="#02C394"/>
<stop offset="0.575" stop-color="#02C394" stop-opacity="0"/>
</linearGradient>
<linearGradient id="paint2_linear_388_320" x1="45.1941" y1="133.474" x2="108.22" y2="5.3885" gradientUnits="userSpaceOnUse">
<stop stop-color="#02C394"/>
<stop offset="0.575" stop-color="#02C394" stop-opacity="0"/>
</linearGradient>
<linearGradient id="paint3_linear_388_320" x1="63.0071" y1="63.8662" x2="88.9498" y2="89.2345" gradientUnits="userSpaceOnUse">
<stop stop-color="#85FCDF"/>
<stop offset="1" stop-color="white" stop-opacity="0.1"/>
</linearGradient>
<linearGradient id="paint4_linear_388_320" x1="63.0071" y1="63.8662" x2="88.9498" y2="89.2345" gradientUnits="userSpaceOnUse">
<stop stop-color="#85FCDF"/>
<stop offset="1" stop-color="white" stop-opacity="0.1"/>
</linearGradient>
<linearGradient id="paint5_linear_388_320" x1="63.0071" y1="63.8662" x2="88.9498" y2="89.2345" gradientUnits="userSpaceOnUse">
<stop stop-color="#85FCDF"/>
<stop offset="1" stop-color="white" stop-opacity="0.1"/>
</linearGradient>
<linearGradient id="paint6_linear_388_320" x1="63.0071" y1="63.8662" x2="88.9498" y2="89.2345" gradientUnits="userSpaceOnUse">
<stop stop-color="#85FCDF"/>
<stop offset="1" stop-color="white" stop-opacity="0.1"/>
</linearGradient>
<radialGradient id="paint7_radial_388_320" cx="0" cy="0" r="1" gradientUnits="userSpaceOnUse" gradientTransform="translate(72.5087 68.4777) rotate(30.613) scale(51.4888 157.676)">
<stop stop-color="#047047"/>
<stop offset="0.279894" stop-color="#02C394" stop-opacity="0"/>
</radialGradient>
<radialGradient id="paint8_radial_388_320" cx="0" cy="0" r="1" gradientUnits="userSpaceOnUse" gradientTransform="translate(72.5087 68.4777) rotate(30.613) scale(51.4888 157.676)">
<stop stop-color="#047047"/>
<stop offset="0.279894" stop-color="#02C394" stop-opacity="0"/>
</radialGradient>
<radialGradient id="paint9_radial_388_320" cx="0" cy="0" r="1" gradientUnits="userSpaceOnUse" gradientTransform="translate(72.5087 68.4777) rotate(30.613) scale(51.4888 157.676)">
<stop stop-color="#047047"/>
<stop offset="0.279894" stop-color="#02C394" stop-opacity="0"/>
</radialGradient>
<radialGradient id="paint10_radial_388_320" cx="0" cy="0" r="1" gradientUnits="userSpaceOnUse" gradientTransform="translate(72.5087 68.4777) rotate(30.613) scale(51.4888 157.676)">
<stop stop-color="#047047"/>
<stop offset="0.279894" stop-color="#02C394" stop-opacity="0"/>
</radialGradient>
<radialGradient id="paint11_radial_388_320" cx="0" cy="0" r="1" gradientUnits="userSpaceOnUse" gradientTransform="translate(69.9172 69.4) rotate(46.8765) scale(18.9547 66.4607)">
<stop stop-color="#02C394"/>
<stop offset="0.313259" stop-color="#02C394" stop-opacity="0"/>
</radialGradient>
<radialGradient id="paint12_radial_388_320" cx="0" cy="0" r="1" gradientUnits="userSpaceOnUse" gradientTransform="translate(69.9172 69.4) rotate(46.8765) scale(18.9547 66.4607)">
<stop stop-color="#02C394"/>
<stop offset="0.313259" stop-color="#02C394" stop-opacity="0"/>
</radialGradient>
<radialGradient id="paint13_radial_388_320" cx="0" cy="0" r="1" gradientUnits="userSpaceOnUse" gradientTransform="translate(69.9172 69.4) rotate(46.8765) scale(18.9547 66.4607)">
<stop stop-color="#02C394"/>
<stop offset="0.313259" stop-color="#02C394" stop-opacity="0"/>
</radialGradient>
<radialGradient id="paint14_radial_388_320" cx="0" cy="0" r="1" gradientUnits="userSpaceOnUse" gradientTransform="translate(69.9172 69.4) rotate(46.8765) scale(18.9547 66.4607)">
<stop stop-color="#02C394"/>
<stop offset="0.313259" stop-color="#02C394" stop-opacity="0"/>
</radialGradient>
<linearGradient id="paint15_linear_388_320" x1="70.5" y1="2" x2="70.5" y2="138" gradientUnits="userSpaceOnUse">
<stop stop-color="#076A49"/>
<stop offset="0.5" stop-color="#0E8F64"/>
<stop offset="1" stop-color="#076A49"/>
</linearGradient>
<linearGradient id="paint16_linear_388_320" x1="76.2784" y1="36" x2="76.2784" y2="103.863" gradientUnits="userSpaceOnUse">
<stop stop-color="white"/>
<stop offset="1" stop-color="#999999"/>
</linearGradient>
<linearGradient id="paint17_linear_388_320" x1="76.2784" y1="36" x2="76.2784" y2="103.863" gradientUnits="userSpaceOnUse">
<stop stop-color="white"/>
<stop offset="1" stop-color="#999999"/>
</linearGradient>
<linearGradient id="paint18_linear_388_320" x1="76.2784" y1="36" x2="76.2784" y2="103.863" gradientUnits="userSpaceOnUse">
<stop stop-color="white"/>
<stop offset="1" stop-color="#999999"/>
</linearGradient>
<linearGradient id="paint19_linear_388_320" x1="76.2784" y1="36" x2="76.2784" y2="103.863" gradientUnits="userSpaceOnUse">
<stop stop-color="white"/>
<stop offset="1" stop-color="#999999"/>
</linearGradient>
</defs>
</svg>
