<svg width="140" height="140" viewBox="0 0 140 140" fill="none" xmlns="http://www.w3.org/2000/svg">
<circle cx="70.269" cy="69.77" r="67.77" fill="#081B18"/>
<circle cx="70.269" cy="69.77" r="67.77" stroke="url(#paint0_linear_388_302)" stroke-opacity="0.08" stroke-width="3.5"/>
<circle cx="70.269" cy="69.77" r="67.77" stroke="url(#paint1_linear_388_302)" stroke-opacity="0.3" stroke-width="3.5"/>
<circle cx="70.269" cy="69.77" r="67.77" stroke="url(#paint2_linear_388_302)" stroke-opacity="0.3" stroke-width="3.5"/>
<path fill-rule="evenodd" clip-rule="evenodd" d="M51.2267 62.2065H64.2193V86.8181H51.2267C50.0882 86.8181 49.1564 85.8872 49.1564 84.7487V64.2749C49.1564 63.1374 50.0882 62.2065 51.2267 62.2065ZM54.135 101.925L40.5916 105.447C40.2608 105.533 40.0617 105.874 40.1471 106.204L40.7992 108.704C40.8855 109.034 41.2258 109.234 41.5557 109.149L55.099 105.625C55.4289 105.54 55.6289 105.2 55.5427 104.87L54.8914 102.368C54.8052 102.038 54.4649 101.839 54.134 101.925H54.135ZM40.4618 86.3261C39.9594 86.8247 39.5309 87.4238 39.529 88.1585C39.5271 88.6827 39.7243 89.2069 40.1196 89.6051L44.2175 93.7239C44.6346 94.1448 44.6318 94.8245 44.2109 95.2416C43.79 95.6596 43.1103 95.6568 42.6923 95.2359L38.5953 91.1161C36.432 88.9415 37.2824 85.217 40.1878 84.2141L40.2589 74.2293C40.2693 72.6813 39.0105 71.4054 37.4615 71.394C35.9116 71.3836 34.6347 72.6415 34.6234 74.1895L34.5001 91.5408C34.4906 92.9447 35.0205 94.123 35.9694 95.1572L40.1385 99.7026C41.0846 100.734 41.3775 101.8 41.5149 102.988L53.2363 99.9396L53.5283 97.8295C53.7198 96.4379 53.5311 95.0482 52.5405 94.0519L44.8697 86.3403C43.663 85.127 41.6761 85.1203 40.4618 86.3261ZM86.5302 101.925L100.073 105.447C100.403 105.533 100.603 105.874 100.517 106.204L99.865 108.704C99.7796 109.034 99.4393 109.234 99.1085 109.149L85.5652 105.625C85.2353 105.54 85.0353 105.2 85.1215 104.869L85.7728 102.368C85.859 102.038 86.1993 101.839 86.5302 101.925ZM100.202 86.3261C98.9881 85.1203 97.0012 85.127 95.7945 86.3403L88.1237 94.0528C87.1331 95.0491 86.9444 96.4379 87.1359 97.8295L87.4279 99.9396L99.1492 102.989C99.2867 101.801 99.5796 100.734 100.526 99.7026L104.695 95.1581C105.644 94.123 106.174 92.9447 106.164 91.5408L106.041 74.1895C106.029 72.6415 104.753 71.3846 103.203 71.395C101.654 71.4054 100.394 72.6813 100.405 74.2303L100.476 84.215C103.382 85.218 104.231 88.9425 102.069 91.117L97.9719 95.2368C97.5539 95.6568 96.8742 95.6596 96.4533 95.2425C96.0314 94.8254 96.0295 94.1457 96.4466 93.7248L100.544 89.6051C100.94 89.2069 101.137 88.6827 101.135 88.1594C101.133 87.4248 100.704 86.8257 100.201 86.3271L100.202 86.3261ZM37.6938 51.1961C36.9354 53.0019 37.7942 55.0988 39.6001 55.8591L47.2225 59.0688C46.8178 55.6221 45.7589 51.0312 42.3615 49.2917C40.6172 48.3977 38.454 49.3903 37.6947 51.1961H37.6938ZM102.97 51.1961C103.73 53.0019 102.871 55.0988 101.064 55.8591L93.4426 59.0688C93.8464 55.6221 94.9053 51.0312 98.3027 49.2917C100.048 48.3977 102.211 49.3903 102.97 51.1961ZM70.3354 50.5818C71.9716 50.5818 73.1091 51.8018 73.3101 53.2693C73.5859 55.2836 71.3374 57.1521 70.3515 59.0935C69.3543 57.1521 67.0422 55.4296 67.3617 53.2693C67.5778 51.8037 68.6993 50.5818 70.3354 50.5818ZM81.4245 34.0022C81.7686 35.9446 80.4595 37.8111 78.5162 38.159L70.3326 39.6264C69.1827 36.3237 67.1285 32.0532 63.4002 31.0958C61.4882 30.6057 59.5838 32.0599 59.2397 34.0022C58.8956 35.9446 60.2047 37.8111 62.148 38.159L70.3326 39.6264C71.4824 36.3237 73.5357 32.0532 77.264 31.0958C79.176 30.6057 81.0804 32.0599 81.4245 34.0022ZM49.1601 39.6264H59.2501C59.9611 40.1288 60.7896 40.4881 61.7006 40.6511L64.2193 41.1023V46.7199H49.1601C48.2681 46.7199 47.5392 45.9909 47.5392 45.0998V41.2455C47.5392 40.3544 48.2691 39.6254 49.1601 39.6254V39.6264ZM81.415 39.6264H91.504C92.3961 39.6264 93.125 40.3554 93.125 41.2464V45.0998C93.125 45.9909 92.3961 46.7199 91.504 46.7199H76.4449V41.1023L78.9636 40.6511C79.8746 40.4881 80.7031 40.1288 81.415 39.6264ZM82.8578 49.9913L84.1575 53.0806L87.4999 53.3612L84.9604 55.551L85.7263 58.8138L82.8578 57.0772L79.9884 58.8138L80.7543 55.551L78.2157 53.3612L81.5572 53.0806L82.8578 49.9913ZM57.8064 49.9913L59.107 53.0806L62.4485 53.3612L59.9099 55.551L60.6758 58.8138L57.8064 57.0772L54.9379 58.8138L55.7038 55.551L53.1643 53.3612L56.5067 53.0806L57.8064 49.9913ZM76.4449 62.2065H89.4375C90.576 62.2065 91.5078 63.1374 91.5078 64.2749V84.7487C91.5078 85.8872 90.576 86.8181 89.4375 86.8181H76.4449V62.2056V62.2065Z" fill="url(#paint3_linear_388_302)"/>
<path d="M66.753 57.7786H73.911V82.3902H66.753V57.7786Z" fill="url(#paint4_linear_388_302)"/>
<path fill-rule="evenodd" clip-rule="evenodd" d="M73.911 41.5317V46.6943H66.753V41.5317L70.3325 42.1725L73.911 41.5317Z" fill="url(#paint5_linear_388_302)"/>
<path fill-rule="evenodd" clip-rule="evenodd" d="M51.2267 62.2065H64.2193V86.8181H51.2267C50.0882 86.8181 49.1564 85.8872 49.1564 84.7487V64.2749C49.1564 63.1374 50.0882 62.2065 51.2267 62.2065ZM54.135 101.925L40.5916 105.447C40.2608 105.533 40.0617 105.874 40.1471 106.204L40.7992 108.704C40.8855 109.034 41.2258 109.234 41.5557 109.149L55.099 105.625C55.4289 105.54 55.6289 105.2 55.5427 104.87L54.8914 102.368C54.8052 102.038 54.4649 101.839 54.134 101.925H54.135ZM40.4618 86.3261C39.9594 86.8247 39.5309 87.4238 39.529 88.1585C39.5271 88.6827 39.7243 89.2069 40.1196 89.6051L44.2175 93.7239C44.6346 94.1448 44.6318 94.8245 44.2109 95.2416C43.79 95.6596 43.1103 95.6568 42.6923 95.2359L38.5953 91.1161C36.432 88.9415 37.2824 85.217 40.1878 84.2141L40.2589 74.2293C40.2693 72.6813 39.0105 71.4054 37.4615 71.394C35.9116 71.3836 34.6347 72.6415 34.6234 74.1895L34.5001 91.5408C34.4906 92.9447 35.0205 94.123 35.9694 95.1572L40.1385 99.7026C41.0846 100.734 41.3775 101.8 41.5149 102.988L53.2363 99.9396L53.5283 97.8295C53.7198 96.4379 53.5311 95.0482 52.5405 94.0519L44.8697 86.3403C43.663 85.127 41.6761 85.1203 40.4618 86.3261ZM86.5302 101.925L100.073 105.447C100.403 105.533 100.603 105.874 100.517 106.204L99.865 108.704C99.7796 109.034 99.4393 109.234 99.1085 109.149L85.5652 105.625C85.2353 105.54 85.0353 105.2 85.1215 104.869L85.7728 102.368C85.859 102.038 86.1993 101.839 86.5302 101.925ZM100.202 86.3261C98.9881 85.1203 97.0012 85.127 95.7945 86.3403L88.1237 94.0528C87.1331 95.0491 86.9444 96.4379 87.1359 97.8295L87.4279 99.9396L99.1492 102.989C99.2867 101.801 99.5796 100.734 100.526 99.7026L104.695 95.1581C105.644 94.123 106.174 92.9447 106.164 91.5408L106.041 74.1895C106.029 72.6415 104.753 71.3846 103.203 71.395C101.654 71.4054 100.394 72.6813 100.405 74.2303L100.476 84.215C103.382 85.218 104.231 88.9425 102.069 91.117L97.9719 95.2368C97.5539 95.6568 96.8742 95.6596 96.4533 95.2425C96.0314 94.8254 96.0295 94.1457 96.4466 93.7248L100.544 89.6051C100.94 89.2069 101.137 88.6827 101.135 88.1594C101.133 87.4248 100.704 86.8257 100.201 86.3271L100.202 86.3261ZM37.6938 51.1961C36.9354 53.0019 37.7942 55.0988 39.6001 55.8591L47.2225 59.0688C46.8178 55.6221 45.7589 51.0312 42.3615 49.2917C40.6172 48.3977 38.454 49.3903 37.6947 51.1961H37.6938ZM102.97 51.1961C103.73 53.0019 102.871 55.0988 101.064 55.8591L93.4426 59.0688C93.8464 55.6221 94.9053 51.0312 98.3027 49.2917C100.048 48.3977 102.211 49.3903 102.97 51.1961ZM70.3354 50.5818C71.9716 50.5818 73.1091 51.8018 73.3101 53.2693C73.5859 55.2836 71.3374 57.1521 70.3515 59.0935C69.3543 57.1521 67.0422 55.4296 67.3617 53.2693C67.5778 51.8037 68.6993 50.5818 70.3354 50.5818ZM81.4245 34.0022C81.7686 35.9446 80.4595 37.8111 78.5162 38.159L70.3326 39.6264C69.1827 36.3237 67.1285 32.0532 63.4002 31.0958C61.4882 30.6057 59.5838 32.0599 59.2397 34.0022C58.8956 35.9446 60.2047 37.8111 62.148 38.159L70.3326 39.6264C71.4824 36.3237 73.5357 32.0532 77.264 31.0958C79.176 30.6057 81.0804 32.0599 81.4245 34.0022ZM49.1601 39.6264H59.2501C59.9611 40.1288 60.7896 40.4881 61.7006 40.6511L64.2193 41.1023V46.7199H49.1601C48.2681 46.7199 47.5392 45.9909 47.5392 45.0998V41.2455C47.5392 40.3544 48.2691 39.6254 49.1601 39.6254V39.6264ZM81.415 39.6264H91.504C92.3961 39.6264 93.125 40.3554 93.125 41.2464V45.0998C93.125 45.9909 92.3961 46.7199 91.504 46.7199H76.4449V41.1023L78.9636 40.6511C79.8746 40.4881 80.7031 40.1288 81.415 39.6264ZM82.8578 49.9913L84.1575 53.0806L87.4999 53.3612L84.9604 55.551L85.7263 58.8138L82.8578 57.0772L79.9884 58.8138L80.7543 55.551L78.2157 53.3612L81.5572 53.0806L82.8578 49.9913ZM57.8064 49.9913L59.107 53.0806L62.4485 53.3612L59.9099 55.551L60.6758 58.8138L57.8064 57.0772L54.9379 58.8138L55.7038 55.551L53.1643 53.3612L56.5067 53.0806L57.8064 49.9913ZM76.4449 62.2065H89.4375C90.576 62.2065 91.5078 63.1374 91.5078 64.2749V84.7487C91.5078 85.8872 90.576 86.8181 89.4375 86.8181H76.4449V62.2056V62.2065Z" fill="url(#paint6_radial_388_302)" fill-opacity="0.4"/>
<path d="M66.753 57.7786H73.911V82.3902H66.753V57.7786Z" fill="url(#paint7_radial_388_302)" fill-opacity="0.4"/>
<path fill-rule="evenodd" clip-rule="evenodd" d="M73.911 41.5317V46.6943H66.753V41.5317L70.3325 42.1725L73.911 41.5317Z" fill="url(#paint8_radial_388_302)" fill-opacity="0.4"/>
<path fill-rule="evenodd" clip-rule="evenodd" d="M51.2267 62.2065H64.2193V86.8181H51.2267C50.0882 86.8181 49.1564 85.8872 49.1564 84.7487V64.2749C49.1564 63.1374 50.0882 62.2065 51.2267 62.2065ZM54.135 101.925L40.5916 105.447C40.2608 105.533 40.0617 105.874 40.1471 106.204L40.7992 108.704C40.8855 109.034 41.2258 109.234 41.5557 109.149L55.099 105.625C55.4289 105.54 55.6289 105.2 55.5427 104.87L54.8914 102.368C54.8052 102.038 54.4649 101.839 54.134 101.925H54.135ZM40.4618 86.3261C39.9594 86.8247 39.5309 87.4238 39.529 88.1585C39.5271 88.6827 39.7243 89.2069 40.1196 89.6051L44.2175 93.7239C44.6346 94.1448 44.6318 94.8245 44.2109 95.2416C43.79 95.6596 43.1103 95.6568 42.6923 95.2359L38.5953 91.1161C36.432 88.9415 37.2824 85.217 40.1878 84.2141L40.2589 74.2293C40.2693 72.6813 39.0105 71.4054 37.4615 71.394C35.9116 71.3836 34.6347 72.6415 34.6234 74.1895L34.5001 91.5408C34.4906 92.9447 35.0205 94.123 35.9694 95.1572L40.1385 99.7026C41.0846 100.734 41.3775 101.8 41.5149 102.988L53.2363 99.9396L53.5283 97.8295C53.7198 96.4379 53.5311 95.0482 52.5405 94.0519L44.8697 86.3403C43.663 85.127 41.6761 85.1203 40.4618 86.3261ZM86.5302 101.925L100.073 105.447C100.403 105.533 100.603 105.874 100.517 106.204L99.865 108.704C99.7796 109.034 99.4393 109.234 99.1085 109.149L85.5652 105.625C85.2353 105.54 85.0353 105.2 85.1215 104.869L85.7728 102.368C85.859 102.038 86.1993 101.839 86.5302 101.925ZM100.202 86.3261C98.9881 85.1203 97.0012 85.127 95.7945 86.3403L88.1237 94.0528C87.1331 95.0491 86.9444 96.4379 87.1359 97.8295L87.4279 99.9396L99.1492 102.989C99.2867 101.801 99.5796 100.734 100.526 99.7026L104.695 95.1581C105.644 94.123 106.174 92.9447 106.164 91.5408L106.041 74.1895C106.029 72.6415 104.753 71.3846 103.203 71.395C101.654 71.4054 100.394 72.6813 100.405 74.2303L100.476 84.215C103.382 85.218 104.231 88.9425 102.069 91.117L97.9719 95.2368C97.5539 95.6568 96.8742 95.6596 96.4533 95.2425C96.0314 94.8254 96.0295 94.1457 96.4466 93.7248L100.544 89.6051C100.94 89.2069 101.137 88.6827 101.135 88.1594C101.133 87.4248 100.704 86.8257 100.201 86.3271L100.202 86.3261ZM37.6938 51.1961C36.9354 53.0019 37.7942 55.0988 39.6001 55.8591L47.2225 59.0688C46.8178 55.6221 45.7589 51.0312 42.3615 49.2917C40.6172 48.3977 38.454 49.3903 37.6947 51.1961H37.6938ZM102.97 51.1961C103.73 53.0019 102.871 55.0988 101.064 55.8591L93.4426 59.0688C93.8464 55.6221 94.9053 51.0312 98.3027 49.2917C100.048 48.3977 102.211 49.3903 102.97 51.1961ZM70.3354 50.5818C71.9716 50.5818 73.1091 51.8018 73.3101 53.2693C73.5859 55.2836 71.3374 57.1521 70.3515 59.0935C69.3543 57.1521 67.0422 55.4296 67.3617 53.2693C67.5778 51.8037 68.6993 50.5818 70.3354 50.5818ZM81.4245 34.0022C81.7686 35.9446 80.4595 37.8111 78.5162 38.159L70.3326 39.6264C69.1827 36.3237 67.1285 32.0532 63.4002 31.0958C61.4882 30.6057 59.5838 32.0599 59.2397 34.0022C58.8956 35.9446 60.2047 37.8111 62.148 38.159L70.3326 39.6264C71.4824 36.3237 73.5357 32.0532 77.264 31.0958C79.176 30.6057 81.0804 32.0599 81.4245 34.0022ZM49.1601 39.6264H59.2501C59.9611 40.1288 60.7896 40.4881 61.7006 40.6511L64.2193 41.1023V46.7199H49.1601C48.2681 46.7199 47.5392 45.9909 47.5392 45.0998V41.2455C47.5392 40.3544 48.2691 39.6254 49.1601 39.6254V39.6264ZM81.415 39.6264H91.504C92.3961 39.6264 93.125 40.3554 93.125 41.2464V45.0998C93.125 45.9909 92.3961 46.7199 91.504 46.7199H76.4449V41.1023L78.9636 40.6511C79.8746 40.4881 80.7031 40.1288 81.415 39.6264ZM82.8578 49.9913L84.1575 53.0806L87.4999 53.3612L84.9604 55.551L85.7263 58.8138L82.8578 57.0772L79.9884 58.8138L80.7543 55.551L78.2157 53.3612L81.5572 53.0806L82.8578 49.9913ZM57.8064 49.9913L59.107 53.0806L62.4485 53.3612L59.9099 55.551L60.6758 58.8138L57.8064 57.0772L54.9379 58.8138L55.7038 55.551L53.1643 53.3612L56.5067 53.0806L57.8064 49.9913ZM76.4449 62.2065H89.4375C90.576 62.2065 91.5078 63.1374 91.5078 64.2749V84.7487C91.5078 85.8872 90.576 86.8181 89.4375 86.8181H76.4449V62.2056V62.2065Z" fill="url(#paint9_radial_388_302)" fill-opacity="0.7"/>
<path d="M66.753 57.7786H73.911V82.3902H66.753V57.7786Z" fill="url(#paint10_radial_388_302)" fill-opacity="0.7"/>
<path fill-rule="evenodd" clip-rule="evenodd" d="M73.911 41.5317V46.6943H66.753V41.5317L70.3325 42.1725L73.911 41.5317Z" fill="url(#paint11_radial_388_302)" fill-opacity="0.7"/>
<g filter="url(#filter0_i_388_302)">
<circle cx="70.5" cy="70" r="68" fill="#081B18"/>
</g>
<circle cx="70.5" cy="70" r="66.8943" stroke="url(#paint12_linear_388_302)" stroke-opacity="0.2" stroke-width="2.21138"/>
<path fill-rule="evenodd" clip-rule="evenodd" d="M51.2267 63.2065H64.2193V87.8181H51.2267C50.0882 87.8181 49.1564 86.8872 49.1564 85.7487V65.2749C49.1564 64.1374 50.0882 63.2065 51.2267 63.2065ZM54.135 102.925L40.5916 106.447C40.2608 106.533 40.0617 106.874 40.1471 107.204L40.7992 109.704C40.8855 110.034 41.2258 110.234 41.5557 110.149L55.099 106.625C55.4289 106.54 55.6289 106.2 55.5427 105.87L54.8914 103.368C54.8052 103.038 54.4649 102.839 54.134 102.925H54.135ZM40.4618 87.3261C39.9594 87.8247 39.5309 88.4238 39.529 89.1585C39.5271 89.6827 39.7243 90.2069 40.1196 90.6051L44.2175 94.7239C44.6346 95.1448 44.6318 95.8245 44.2109 96.2416C43.79 96.6596 43.1103 96.6568 42.6923 96.2359L38.5953 92.1161C36.432 89.9415 37.2824 86.217 40.1878 85.2141L40.2589 75.2293C40.2693 73.6813 39.0105 72.4054 37.4615 72.394C35.9116 72.3836 34.6347 73.6415 34.6234 75.1895L34.5001 92.5408C34.4906 93.9447 35.0205 95.123 35.9694 96.1572L40.1385 100.703C41.0846 101.734 41.3775 102.8 41.5149 103.988L53.2363 100.94L53.5283 98.8295C53.7198 97.4379 53.5311 96.0482 52.5405 95.0519L44.8697 87.3403C43.663 86.127 41.6761 86.1203 40.4618 87.3261ZM86.5302 102.925L100.073 106.447C100.403 106.533 100.603 106.874 100.517 107.204L99.865 109.704C99.7796 110.034 99.4393 110.234 99.1085 110.149L85.5652 106.625C85.2353 106.54 85.0353 106.2 85.1215 105.869L85.7728 103.368C85.859 103.038 86.1993 102.839 86.5302 102.925ZM100.202 87.3261C98.9881 86.1203 97.0012 86.127 95.7945 87.3403L88.1237 95.0528C87.1331 96.0491 86.9444 97.4379 87.1359 98.8295L87.4279 100.94L99.1492 103.989C99.2867 102.801 99.5796 101.734 100.526 100.703L104.695 96.1581C105.644 95.123 106.174 93.9447 106.164 92.5408L106.041 75.1895C106.029 73.6415 104.753 72.3846 103.203 72.395C101.654 72.4054 100.394 73.6813 100.405 75.2303L100.476 85.215C103.382 86.218 104.231 89.9425 102.069 92.117L97.9719 96.2368C97.5539 96.6568 96.8742 96.6596 96.4533 96.2425C96.0314 95.8254 96.0295 95.1457 96.4466 94.7248L100.544 90.6051C100.94 90.2069 101.137 89.6827 101.135 89.1594C101.133 88.4248 100.704 87.8257 100.201 87.3271L100.202 87.3261ZM37.6938 52.1961C36.9354 54.0019 37.7942 56.0988 39.6001 56.8591L47.2225 60.0688C46.8178 56.6221 45.7589 52.0312 42.3615 50.2917C40.6172 49.3977 38.454 50.3903 37.6947 52.1961H37.6938ZM102.97 52.1961C103.73 54.0019 102.871 56.0988 101.064 56.8591L93.4426 60.0688C93.8464 56.6221 94.9053 52.0312 98.3027 50.2917C100.048 49.3977 102.211 50.3903 102.97 52.1961ZM70.3354 51.5818C71.9716 51.5818 73.1091 52.8018 73.3101 54.2693C73.5859 56.2836 71.3374 58.1521 70.3515 60.0935C69.3543 58.1521 67.0422 56.4296 67.3617 54.2693C67.5778 52.8037 68.6993 51.5818 70.3354 51.5818ZM81.4245 35.0022C81.7686 36.9446 80.4595 38.8111 78.5162 39.159L70.3326 40.6264C69.1827 37.3237 67.1285 33.0532 63.4002 32.0958C61.4882 31.6057 59.5838 33.0599 59.2397 35.0022C58.8956 36.9446 60.2047 38.8111 62.148 39.159L70.3326 40.6264C71.4824 37.3237 73.5357 33.0532 77.264 32.0958C79.176 31.6057 81.0804 33.0599 81.4245 35.0022ZM49.1601 40.6264H59.2501C59.9611 41.1288 60.7896 41.4881 61.7006 41.6511L64.2193 42.1023V47.7199H49.1601C48.2681 47.7199 47.5392 46.9909 47.5392 46.0998V42.2455C47.5392 41.3544 48.2691 40.6254 49.1601 40.6254V40.6264ZM81.415 40.6264H91.504C92.3961 40.6264 93.125 41.3554 93.125 42.2464V46.0998C93.125 46.9909 92.3961 47.7199 91.504 47.7199H76.4449V42.1023L78.9636 41.6511C79.8746 41.4881 80.7031 41.1288 81.415 40.6264ZM82.8578 50.9913L84.1575 54.0806L87.4999 54.3612L84.9604 56.551L85.7263 59.8138L82.8578 58.0772L79.9884 59.8138L80.7543 56.551L78.2157 54.3612L81.5572 54.0806L82.8578 50.9913ZM57.8064 50.9913L59.107 54.0806L62.4485 54.3612L59.9099 56.551L60.6758 59.8138L57.8064 58.0772L54.9379 59.8138L55.7038 56.551L53.1643 54.3612L56.5067 54.0806L57.8064 50.9913ZM76.4449 63.2065H89.4375C90.576 63.2065 91.5078 64.1374 91.5078 65.2749V85.7487C91.5078 86.8872 90.576 87.8181 89.4375 87.8181H76.4449V63.2056V63.2065Z" fill="url(#paint13_linear_388_302)"/>
<path d="M66.753 58.7786H73.911V83.3902H66.753V58.7786Z" fill="url(#paint14_linear_388_302)"/>
<path fill-rule="evenodd" clip-rule="evenodd" d="M73.911 42.5317V47.6943H66.753V42.5317L70.3325 43.1725L73.911 42.5317Z" fill="url(#paint15_linear_388_302)"/>
<defs>
<filter id="filter0_i_388_302" x="2.5" y="2" width="136" height="145.951" filterUnits="userSpaceOnUse" color-interpolation-filters="sRGB">
<feFlood flood-opacity="0" result="BackgroundImageFix"/>
<feBlend mode="normal" in="SourceGraphic" in2="BackgroundImageFix" result="shape"/>
<feColorMatrix in="SourceAlpha" type="matrix" values="0 0 0 0 0 0 0 0 0 0 0 0 0 0 0 0 0 0 127 0" result="hardAlpha"/>
<feOffset dy="9.95122"/>
<feGaussianBlur stdDeviation="9.95122"/>
<feComposite in2="hardAlpha" operator="arithmetic" k2="-1" k3="1"/>
<feColorMatrix type="matrix" values="0 0 0 0 0.0588235 0 0 0 0 0.0901961 0 0 0 0 0.117647 0 0 0 0.4 0"/>
<feBlend mode="normal" in2="shape" result="effect1_innerShadow_388_302"/>
</filter>
<linearGradient id="paint0_linear_388_302" x1="53.8902" y1="0.262313" x2="53.8902" y2="102.55" gradientUnits="userSpaceOnUse">
<stop stop-color="white"/>
<stop offset="1" stop-color="white" stop-opacity="0.1"/>
</linearGradient>
<linearGradient id="paint1_linear_388_302" x1="104.832" y1="10.8101" x2="64.1697" y2="74.5139" gradientUnits="userSpaceOnUse">
<stop stop-color="#02C394"/>
<stop offset="0.575" stop-color="#02C394" stop-opacity="0"/>
</linearGradient>
<linearGradient id="paint2_linear_388_302" x1="45.1941" y1="133.474" x2="108.22" y2="5.3885" gradientUnits="userSpaceOnUse">
<stop stop-color="#02C394"/>
<stop offset="0.575" stop-color="#02C394" stop-opacity="0"/>
</linearGradient>
<linearGradient id="paint3_linear_388_302" x1="59.9598" y1="60.8275" x2="88.87" y2="88.5011" gradientUnits="userSpaceOnUse">
<stop stop-color="#85FCDF"/>
<stop offset="1" stop-color="white" stop-opacity="0.1"/>
</linearGradient>
<linearGradient id="paint4_linear_388_302" x1="59.9598" y1="60.8275" x2="88.87" y2="88.5011" gradientUnits="userSpaceOnUse">
<stop stop-color="#85FCDF"/>
<stop offset="1" stop-color="white" stop-opacity="0.1"/>
</linearGradient>
<linearGradient id="paint5_linear_388_302" x1="59.9598" y1="60.8275" x2="88.87" y2="88.5011" gradientUnits="userSpaceOnUse">
<stop stop-color="#85FCDF"/>
<stop offset="1" stop-color="white" stop-opacity="0.1"/>
</linearGradient>
<radialGradient id="paint6_radial_388_302" cx="0" cy="0" r="1" gradientUnits="userSpaceOnUse" gradientTransform="translate(70.3321 65.9701) rotate(31.1512) scale(56.5239 174.851)">
<stop stop-color="#047047"/>
<stop offset="0.279894" stop-color="#02C394" stop-opacity="0"/>
</radialGradient>
<radialGradient id="paint7_radial_388_302" cx="0" cy="0" r="1" gradientUnits="userSpaceOnUse" gradientTransform="translate(70.3321 65.9701) rotate(31.1512) scale(56.5239 174.851)">
<stop stop-color="#047047"/>
<stop offset="0.279894" stop-color="#02C394" stop-opacity="0"/>
</radialGradient>
<radialGradient id="paint8_radial_388_302" cx="0" cy="0" r="1" gradientUnits="userSpaceOnUse" gradientTransform="translate(70.3321 65.9701) rotate(31.1512) scale(56.5239 174.851)">
<stop stop-color="#047047"/>
<stop offset="0.279894" stop-color="#02C394" stop-opacity="0"/>
</radialGradient>
<radialGradient id="paint9_radial_388_302" cx="0" cy="0" r="1" gradientUnits="userSpaceOnUse" gradientTransform="translate(67.5032 66.9986) rotate(47.4857) scale(20.9305 73.2694)">
<stop stop-color="#02C394"/>
<stop offset="0.313259" stop-color="#02C394" stop-opacity="0"/>
</radialGradient>
<radialGradient id="paint10_radial_388_302" cx="0" cy="0" r="1" gradientUnits="userSpaceOnUse" gradientTransform="translate(67.5032 66.9986) rotate(47.4857) scale(20.9305 73.2694)">
<stop stop-color="#02C394"/>
<stop offset="0.313259" stop-color="#02C394" stop-opacity="0"/>
</radialGradient>
<radialGradient id="paint11_radial_388_302" cx="0" cy="0" r="1" gradientUnits="userSpaceOnUse" gradientTransform="translate(67.5032 66.9986) rotate(47.4857) scale(20.9305 73.2694)">
<stop stop-color="#02C394"/>
<stop offset="0.313259" stop-color="#02C394" stop-opacity="0"/>
</radialGradient>
<linearGradient id="paint12_linear_388_302" x1="70.5" y1="2" x2="70.5" y2="138" gradientUnits="userSpaceOnUse">
<stop stop-color="#076A49"/>
<stop offset="0.5" stop-color="#0E8F64"/>
<stop offset="1" stop-color="#076A49"/>
</linearGradient>
<linearGradient id="paint13_linear_388_302" x1="70.3321" y1="32" x2="70.3321" y2="110.169" gradientUnits="userSpaceOnUse">
<stop stop-color="white"/>
<stop offset="1" stop-color="#999999"/>
</linearGradient>
<linearGradient id="paint14_linear_388_302" x1="70.3321" y1="32" x2="70.3321" y2="110.169" gradientUnits="userSpaceOnUse">
<stop stop-color="white"/>
<stop offset="1" stop-color="#999999"/>
</linearGradient>
<linearGradient id="paint15_linear_388_302" x1="70.3321" y1="32" x2="70.3321" y2="110.169" gradientUnits="userSpaceOnUse">
<stop stop-color="white"/>
<stop offset="1" stop-color="#999999"/>
</linearGradient>
</defs>
</svg>
