<svg width="143" height="142" viewBox="0 0 143 142" fill="none" xmlns="http://www.w3.org/2000/svg">
<circle cx="70.269" cy="69.77" r="67.77" fill="#081B18"/>
<circle cx="70.269" cy="69.77" r="67.77" stroke="url(#paint0_linear_388_275)" stroke-opacity="0.08" stroke-width="3.5"/>
<circle cx="70.269" cy="69.77" r="67.77" stroke="url(#paint1_linear_388_275)" stroke-opacity="0.3" stroke-width="3.5"/>
<circle cx="70.269" cy="69.77" r="67.77" stroke="url(#paint2_linear_388_275)" stroke-opacity="0.3" stroke-width="3.5"/>
<path d="M59.51 85.3719C59.51 85.3719 65.4114 91.1226 73.0733 91.1226C77.2134 91.1226 80.963 88.9793 80.963 84.5259C80.963 75.3203 55.0668 76.2425 55.0668 59.7509C55.0668 51.8519 60.9674 45.7117 69.4702 44.3289V37.1191H76.0592V44.1764C84.9515 44.9419 89.5463 49.7747 89.5463 49.7747L85.2741 57.8549C85.2741 57.8549 80.0519 53.1018 73.2444 53.1018C68.6488 53.1018 65.0456 55.787 65.0456 59.6222C65.0456 68.7525 90.8715 67.141 90.8715 84.3362C90.8715 92.159 85.4308 98.8361 76.0787 100.062V107.12H69.4702V100.024C59.5862 98.8742 54.1455 92.8145 54.1455 92.8145L59.51 85.3719Z" fill="url(#paint3_linear_388_275)"/>
<path d="M59.51 85.3719C59.51 85.3719 65.4114 91.1226 73.0733 91.1226C77.2134 91.1226 80.963 88.9793 80.963 84.5259C80.963 75.3203 55.0668 76.2425 55.0668 59.7509C55.0668 51.8519 60.9674 45.7117 69.4702 44.3289V37.1191H76.0592V44.1764C84.9515 44.9419 89.5463 49.7747 89.5463 49.7747L85.2741 57.8549C85.2741 57.8549 80.0519 53.1018 73.2444 53.1018C68.6488 53.1018 65.0456 55.787 65.0456 59.6222C65.0456 68.7525 90.8715 67.141 90.8715 84.3362C90.8715 92.159 85.4308 98.8361 76.0787 100.062V107.12H69.4702V100.024C59.5862 98.8742 54.1455 92.8145 54.1455 92.8145L59.51 85.3719Z" fill="url(#paint4_radial_388_275)" fill-opacity="0.4"/>
<path d="M59.51 85.3719C59.51 85.3719 65.4114 91.1226 73.0733 91.1226C77.2134 91.1226 80.963 88.9793 80.963 84.5259C80.963 75.3203 55.0668 76.2425 55.0668 59.7509C55.0668 51.8519 60.9674 45.7117 69.4702 44.3289V37.1191H76.0592V44.1764C84.9515 44.9419 89.5463 49.7747 89.5463 49.7747L85.2741 57.8549C85.2741 57.8549 80.0519 53.1018 73.2444 53.1018C68.6488 53.1018 65.0456 55.787 65.0456 59.6222C65.0456 68.7525 90.8715 67.141 90.8715 84.3362C90.8715 92.159 85.4308 98.8361 76.0787 100.062V107.12H69.4702V100.024C59.5862 98.8742 54.1455 92.8145 54.1455 92.8145L59.51 85.3719Z" fill="url(#paint5_radial_388_275)" fill-opacity="0.7"/>
<g filter="url(#filter0_i_388_275)">
<circle cx="70.5" cy="70" r="68" fill="#081B18"/>
</g>
<circle cx="70.5" cy="70" r="66.8943" stroke="url(#paint6_linear_388_275)" stroke-opacity="0.2" stroke-width="2.21138"/>
<path d="M57.6936 82.7156C57.6936 82.7156 63.407 88.283 70.8248 88.283C74.833 88.283 78.4632 86.208 78.4632 81.8966C78.4632 72.9842 53.392 73.877 53.392 57.9108C53.392 50.2634 59.1046 44.3188 67.3365 42.98V36H73.7156V42.8325C82.3246 43.5736 86.773 48.2524 86.773 48.2524L82.637 56.0752C82.637 56.0752 77.5811 51.4735 70.9905 51.4735C66.5412 51.4735 63.0529 54.0732 63.0529 57.7862C63.0529 66.6256 88.056 65.0654 88.056 81.7129C88.056 89.2865 82.7886 95.7509 73.7344 96.938V103.771H67.3365V96.9011C57.7674 95.7878 52.5 89.9211 52.5 89.9211L57.6936 82.7156Z" fill="url(#paint7_linear_388_275)"/>
<defs>
<filter id="filter0_i_388_275" x="2.5" y="2" width="136" height="145.951" filterUnits="userSpaceOnUse" color-interpolation-filters="sRGB">
<feFlood flood-opacity="0" result="BackgroundImageFix"/>
<feBlend mode="normal" in="SourceGraphic" in2="BackgroundImageFix" result="shape"/>
<feColorMatrix in="SourceAlpha" type="matrix" values="0 0 0 0 0 0 0 0 0 0 0 0 0 0 0 0 0 0 127 0" result="hardAlpha"/>
<feOffset dy="9.95122"/>
<feGaussianBlur stdDeviation="9.95122"/>
<feComposite in2="hardAlpha" operator="arithmetic" k2="-1" k3="1"/>
<feColorMatrix type="matrix" values="0 0 0 0 0.0588235 0 0 0 0 0.0901961 0 0 0 0 0.117647 0 0 0 0.4 0"/>
<feBlend mode="normal" in2="shape" result="effect1_innerShadow_388_275"/>
</filter>
<linearGradient id="paint0_linear_388_275" x1="53.8902" y1="0.262313" x2="53.8902" y2="102.55" gradientUnits="userSpaceOnUse">
<stop stop-color="white"/>
<stop offset="1" stop-color="white" stop-opacity="0.1"/>
</linearGradient>
<linearGradient id="paint1_linear_388_275" x1="104.832" y1="10.8101" x2="64.1697" y2="74.5139" gradientUnits="userSpaceOnUse">
<stop stop-color="#02C394"/>
<stop offset="0.575" stop-color="#02C394" stop-opacity="0"/>
</linearGradient>
<linearGradient id="paint2_linear_388_275" x1="45.1941" y1="133.474" x2="108.22" y2="5.3885" gradientUnits="userSpaceOnUse">
<stop stop-color="#02C394"/>
<stop offset="0.575" stop-color="#02C394" stop-opacity="0"/>
</linearGradient>
<linearGradient id="paint3_linear_388_275" x1="67.193" y1="63.8301" x2="89.0311" y2="75.7928" gradientUnits="userSpaceOnUse">
<stop stop-color="#85FCDF"/>
<stop offset="1" stop-color="white" stop-opacity="0.1"/>
</linearGradient>
<radialGradient id="paint4_radial_388_275" cx="0" cy="0" r="1" gradientUnits="userSpaceOnUse" gradientTransform="translate(72.5085 68.4355) rotate(46.5671) scale(36.0581 125.789)">
<stop stop-color="#047047"/>
<stop offset="0.279894" stop-color="#02C394" stop-opacity="0"/>
</radialGradient>
<radialGradient id="paint5_radial_388_275" cx="0" cy="0" r="1" gradientUnits="userSpaceOnUse" gradientTransform="translate(71.0588 69.3565) rotate(62.3163) scale(15.6021 45.1091)">
<stop stop-color="#02C394"/>
<stop offset="0.313259" stop-color="#02C394" stop-opacity="0"/>
</radialGradient>
<linearGradient id="paint6_linear_388_275" x1="70.5" y1="2" x2="70.5" y2="138" gradientUnits="userSpaceOnUse">
<stop stop-color="#076A49"/>
<stop offset="0.5" stop-color="#0E8F64"/>
<stop offset="1" stop-color="#076A49"/>
</linearGradient>
<linearGradient id="paint7_linear_388_275" x1="70.278" y1="36" x2="70.278" y2="103.771" gradientUnits="userSpaceOnUse">
<stop stop-color="white"/>
<stop offset="1" stop-color="#999999"/>
</linearGradient>
</defs>
</svg>
