<svg width="142" height="142" viewBox="0 0 142 142" fill="none" xmlns="http://www.w3.org/2000/svg">
<circle cx="69.769" cy="69.77" r="67.77" fill="#081B18"/>
<circle cx="69.769" cy="69.77" r="67.77" stroke="url(#paint0_linear_388_262)" stroke-opacity="0.08" stroke-width="3.5"/>
<circle cx="69.769" cy="69.77" r="67.77" stroke="url(#paint1_linear_388_262)" stroke-opacity="0.3" stroke-width="3.5"/>
<circle cx="69.769" cy="69.77" r="67.77" stroke="url(#paint2_linear_388_262)" stroke-opacity="0.3" stroke-width="3.5"/>
<path d="M95.6715 56.4272H92.7042L89.1938 59.9461H92.6465C93.0444 59.9461 93.3703 60.2643 93.3703 60.6699C93.3703 61.0678 93.0444 61.3937 92.6465 61.3937H47.1C46.7021 61.3937 46.3762 61.0678 46.3762 60.6699C46.3762 60.2643 46.7021 59.9461 47.1 59.9461H49.8942L53.4114 56.4272H45.4861C43.0975 56.4272 41.1798 58.3967 41.252 60.7929C41.3249 63.1247 43.3436 64.9057 45.6745 64.9057H97.0826V57.8392C97.0826 57.0645 96.453 56.4272 95.6715 56.4272Z" fill="url(#paint3_linear_388_262)"/>
<path d="M85.944 86.1354C85.944 89.5236 88.7017 92.2898 92.0958 92.2898H101.274V105.237C101.274 106.409 100.325 107.358 99.1531 107.358H48.019C44.2779 107.358 41.252 104.324 41.252 100.581V64.3842C42.3305 65.5857 43.9232 66.3536 45.6746 66.3536H101.165C101.237 66.5632 101.274 66.7881 101.274 67.0197V79.981H92.0958C88.7017 79.981 85.944 82.7396 85.944 86.1354Z" fill="url(#paint4_linear_388_262)"/>
<path d="M102.974 81.4292H92.0959C89.4909 81.4292 87.3916 83.5361 87.3916 86.136C87.3916 88.735 89.4909 90.8427 92.0959 90.8427H102.974C103.503 90.8427 103.915 90.4151 103.915 89.8941V82.371C103.915 81.8568 103.503 81.4292 102.974 81.4292ZM93.1744 88.1419C92.0603 88.1419 91.1625 87.2433 91.1625 86.136C91.1625 85.021 92.0603 84.1232 93.1744 84.1232C94.2817 84.1232 95.1794 85.021 95.1794 86.136C95.1794 87.2433 94.2817 88.1419 93.1744 88.1419Z" fill="url(#paint5_linear_388_262)"/>
<path d="M91.9806 55.1094L87.1457 59.946H82.1012L85.1262 56.9193C83.469 55.2613 83.4767 52.5672 85.1338 50.9092L78.5764 44.3492C76.9192 46.0073 74.2269 46.0149 72.5697 44.3569L56.9873 59.946H51.942L74.3787 37.4991C74.8853 36.9925 75.7109 36.9925 76.2175 37.4991L91.9806 53.2698C92.4872 53.7764 92.4872 54.6029 91.9806 55.1094Z" fill="url(#paint6_linear_388_262)"/>
<path d="M78.9461 52.4197C78.9461 52.5385 78.9342 52.6564 78.9113 52.7727C78.8884 52.8898 78.8536 53.0026 78.8086 53.1129C78.7628 53.2224 78.7068 53.3268 78.6415 53.4252C78.5753 53.5245 78.5006 53.6161 78.4166 53.7001C78.3317 53.7841 78.2409 53.8588 78.1417 53.925C78.0432 53.9912 77.9389 54.0472 77.8294 54.0921C77.7191 54.138 77.6063 54.1719 77.49 54.1957C77.3729 54.2186 77.2558 54.2305 77.137 54.2305C77.0182 54.2305 76.9003 54.2186 76.784 54.1957C76.6669 54.1719 76.5541 54.138 76.4446 54.0921C76.3343 54.0472 76.2299 53.9912 76.1315 53.925C76.0331 53.8588 75.9414 53.7841 75.8574 53.7001C75.7734 53.6161 75.6979 53.5245 75.6326 53.4252C75.5664 53.3268 75.5104 53.2224 75.4654 53.1129C75.4196 53.0026 75.3857 52.8898 75.3619 52.7727C75.339 52.6564 75.3271 52.5385 75.3271 52.4197C75.3271 52.3009 75.339 52.183 75.3619 52.0667C75.3857 51.9505 75.4196 51.8368 75.4654 51.7273C75.5104 51.617 75.5664 51.5135 75.6326 51.4142C75.6979 51.3158 75.7734 51.2241 75.8574 51.1401C75.9414 51.0561 76.0331 50.9806 76.1315 50.9144C76.2299 50.8491 76.3343 50.7931 76.4446 50.7472C76.5541 50.7023 76.6669 50.6675 76.784 50.6446C76.9003 50.6217 77.0182 50.6098 77.137 50.6098C77.2558 50.6098 77.3729 50.6217 77.49 50.6446C77.6063 50.6675 77.7191 50.7023 77.8294 50.7472C77.9389 50.7931 78.0432 50.8491 78.1417 50.9144C78.2409 50.9806 78.3317 51.0561 78.4166 51.1401C78.5006 51.2241 78.5753 51.3158 78.6415 51.4142C78.7068 51.5135 78.7628 51.617 78.8086 51.7273C78.8536 51.8368 78.8884 51.9505 78.9113 52.0667C78.9342 52.183 78.9461 52.3009 78.9461 52.4197Z" fill="url(#paint7_linear_388_262)"/>
<path d="M95.6715 56.4272H92.7042L89.1938 59.9461H92.6465C93.0444 59.9461 93.3703 60.2643 93.3703 60.6699C93.3703 61.0678 93.0444 61.3937 92.6465 61.3937H47.1C46.7021 61.3937 46.3762 61.0678 46.3762 60.6699C46.3762 60.2643 46.7021 59.9461 47.1 59.9461H49.8942L53.4114 56.4272H45.4861C43.0975 56.4272 41.1798 58.3967 41.252 60.7929C41.3249 63.1247 43.3436 64.9057 45.6745 64.9057H97.0826V57.8392C97.0826 57.0645 96.453 56.4272 95.6715 56.4272Z" fill="url(#paint8_radial_388_262)" fill-opacity="0.4"/>
<path d="M85.944 86.1354C85.944 89.5236 88.7017 92.2898 92.0958 92.2898H101.274V105.237C101.274 106.409 100.325 107.358 99.1531 107.358H48.019C44.2779 107.358 41.252 104.324 41.252 100.581V64.3842C42.3305 65.5857 43.9232 66.3536 45.6746 66.3536H101.165C101.237 66.5632 101.274 66.7881 101.274 67.0197V79.981H92.0958C88.7017 79.981 85.944 82.7396 85.944 86.1354Z" fill="url(#paint9_radial_388_262)" fill-opacity="0.4"/>
<path d="M102.974 81.4292H92.0959C89.4909 81.4292 87.3916 83.5361 87.3916 86.136C87.3916 88.735 89.4909 90.8427 92.0959 90.8427H102.974C103.503 90.8427 103.915 90.4151 103.915 89.8941V82.371C103.915 81.8568 103.503 81.4292 102.974 81.4292ZM93.1744 88.1419C92.0603 88.1419 91.1625 87.2433 91.1625 86.136C91.1625 85.021 92.0603 84.1232 93.1744 84.1232C94.2817 84.1232 95.1794 85.021 95.1794 86.136C95.1794 87.2433 94.2817 88.1419 93.1744 88.1419Z" fill="url(#paint10_radial_388_262)" fill-opacity="0.4"/>
<path d="M91.9806 55.1094L87.1457 59.946H82.1012L85.1262 56.9193C83.469 55.2613 83.4767 52.5672 85.1338 50.9092L78.5764 44.3492C76.9192 46.0073 74.2269 46.0149 72.5697 44.3569L56.9873 59.946H51.942L74.3787 37.4991C74.8853 36.9925 75.7109 36.9925 76.2175 37.4991L91.9806 53.2698C92.4872 53.7764 92.4872 54.6029 91.9806 55.1094Z" fill="url(#paint11_radial_388_262)" fill-opacity="0.4"/>
<path d="M78.9461 52.4197C78.9461 52.5385 78.9342 52.6564 78.9113 52.7727C78.8884 52.8898 78.8536 53.0026 78.8086 53.1129C78.7628 53.2224 78.7068 53.3268 78.6415 53.4252C78.5753 53.5245 78.5006 53.6161 78.4166 53.7001C78.3317 53.7841 78.2409 53.8588 78.1417 53.925C78.0432 53.9912 77.9389 54.0472 77.8294 54.0921C77.7191 54.138 77.6063 54.1719 77.49 54.1957C77.3729 54.2186 77.2558 54.2305 77.137 54.2305C77.0182 54.2305 76.9003 54.2186 76.784 54.1957C76.6669 54.1719 76.5541 54.138 76.4446 54.0921C76.3343 54.0472 76.2299 53.9912 76.1315 53.925C76.0331 53.8588 75.9414 53.7841 75.8574 53.7001C75.7734 53.6161 75.6979 53.5245 75.6326 53.4252C75.5664 53.3268 75.5104 53.2224 75.4654 53.1129C75.4196 53.0026 75.3857 52.8898 75.3619 52.7727C75.339 52.6564 75.3271 52.5385 75.3271 52.4197C75.3271 52.3009 75.339 52.183 75.3619 52.0667C75.3857 51.9505 75.4196 51.8368 75.4654 51.7273C75.5104 51.617 75.5664 51.5135 75.6326 51.4142C75.6979 51.3158 75.7734 51.2241 75.8574 51.1401C75.9414 51.0561 76.0331 50.9806 76.1315 50.9144C76.2299 50.8491 76.3343 50.7931 76.4446 50.7472C76.5541 50.7023 76.6669 50.6675 76.784 50.6446C76.9003 50.6217 77.0182 50.6098 77.137 50.6098C77.2558 50.6098 77.3729 50.6217 77.49 50.6446C77.6063 50.6675 77.7191 50.7023 77.8294 50.7472C77.9389 50.7931 78.0432 50.8491 78.1417 50.9144C78.2409 50.9806 78.3317 51.0561 78.4166 51.1401C78.5006 51.2241 78.5753 51.3158 78.6415 51.4142C78.7068 51.5135 78.7628 51.617 78.8086 51.7273C78.8536 51.8368 78.8884 51.9505 78.9113 52.0667C78.9342 52.183 78.9461 52.3009 78.9461 52.4197Z" fill="url(#paint12_radial_388_262)" fill-opacity="0.4"/>
<path d="M95.6715 56.4272H92.7042L89.1938 59.9461H92.6465C93.0444 59.9461 93.3703 60.2643 93.3703 60.6699C93.3703 61.0678 93.0444 61.3937 92.6465 61.3937H47.1C46.7021 61.3937 46.3762 61.0678 46.3762 60.6699C46.3762 60.2643 46.7021 59.9461 47.1 59.9461H49.8942L53.4114 56.4272H45.4861C43.0975 56.4272 41.1798 58.3967 41.252 60.7929C41.3249 63.1247 43.3436 64.9057 45.6745 64.9057H97.0826V57.8392C97.0826 57.0645 96.453 56.4272 95.6715 56.4272Z" fill="url(#paint13_radial_388_262)" fill-opacity="0.7"/>
<path d="M85.944 86.1354C85.944 89.5236 88.7017 92.2898 92.0958 92.2898H101.274V105.237C101.274 106.409 100.325 107.358 99.1531 107.358H48.019C44.2779 107.358 41.252 104.324 41.252 100.581V64.3842C42.3305 65.5857 43.9232 66.3536 45.6746 66.3536H101.165C101.237 66.5632 101.274 66.7881 101.274 67.0197V79.981H92.0958C88.7017 79.981 85.944 82.7396 85.944 86.1354Z" fill="url(#paint14_radial_388_262)" fill-opacity="0.7"/>
<path d="M102.974 81.4292H92.0959C89.4909 81.4292 87.3916 83.5361 87.3916 86.136C87.3916 88.735 89.4909 90.8427 92.0959 90.8427H102.974C103.503 90.8427 103.915 90.4151 103.915 89.8941V82.371C103.915 81.8568 103.503 81.4292 102.974 81.4292ZM93.1744 88.1419C92.0603 88.1419 91.1625 87.2433 91.1625 86.136C91.1625 85.021 92.0603 84.1232 93.1744 84.1232C94.2817 84.1232 95.1794 85.021 95.1794 86.136C95.1794 87.2433 94.2817 88.1419 93.1744 88.1419Z" fill="url(#paint15_radial_388_262)" fill-opacity="0.7"/>
<path d="M91.9806 55.1094L87.1457 59.946H82.1012L85.1262 56.9193C83.469 55.2613 83.4767 52.5672 85.1338 50.9092L78.5764 44.3492C76.9192 46.0073 74.2269 46.0149 72.5697 44.3569L56.9873 59.946H51.942L74.3787 37.4991C74.8853 36.9925 75.7109 36.9925 76.2175 37.4991L91.9806 53.2698C92.4872 53.7764 92.4872 54.6029 91.9806 55.1094Z" fill="url(#paint16_radial_388_262)" fill-opacity="0.7"/>
<path d="M78.9461 52.4197C78.9461 52.5385 78.9342 52.6564 78.9113 52.7727C78.8884 52.8898 78.8536 53.0026 78.8086 53.1129C78.7628 53.2224 78.7068 53.3268 78.6415 53.4252C78.5753 53.5245 78.5006 53.6161 78.4166 53.7001C78.3317 53.7841 78.2409 53.8588 78.1417 53.925C78.0432 53.9912 77.9389 54.0472 77.8294 54.0921C77.7191 54.138 77.6063 54.1719 77.49 54.1957C77.3729 54.2186 77.2558 54.2305 77.137 54.2305C77.0182 54.2305 76.9003 54.2186 76.784 54.1957C76.6669 54.1719 76.5541 54.138 76.4446 54.0921C76.3343 54.0472 76.2299 53.9912 76.1315 53.925C76.0331 53.8588 75.9414 53.7841 75.8574 53.7001C75.7734 53.6161 75.6979 53.5245 75.6326 53.4252C75.5664 53.3268 75.5104 53.2224 75.4654 53.1129C75.4196 53.0026 75.3857 52.8898 75.3619 52.7727C75.339 52.6564 75.3271 52.5385 75.3271 52.4197C75.3271 52.3009 75.339 52.183 75.3619 52.0667C75.3857 51.9505 75.4196 51.8368 75.4654 51.7273C75.5104 51.617 75.5664 51.5135 75.6326 51.4142C75.6979 51.3158 75.7734 51.2241 75.8574 51.1401C75.9414 51.0561 76.0331 50.9806 76.1315 50.9144C76.2299 50.8491 76.3343 50.7931 76.4446 50.7472C76.5541 50.7023 76.6669 50.6675 76.784 50.6446C76.9003 50.6217 77.0182 50.6098 77.137 50.6098C77.2558 50.6098 77.3729 50.6217 77.49 50.6446C77.6063 50.6675 77.7191 50.7023 77.8294 50.7472C77.9389 50.7931 78.0432 50.8491 78.1417 50.9144C78.2409 50.9806 78.3317 51.0561 78.4166 51.1401C78.5006 51.2241 78.5753 51.3158 78.6415 51.4142C78.7068 51.5135 78.7628 51.617 78.8086 51.7273C78.8536 51.8368 78.8884 51.9505 78.9113 52.0667C78.9342 52.183 78.9461 52.3009 78.9461 52.4197Z" fill="url(#paint17_radial_388_262)" fill-opacity="0.7"/>
<g filter="url(#filter0_i_388_262)">
<circle cx="69.5" cy="70" r="68" fill="#081B18"/>
</g>
<circle cx="69.5" cy="70" r="66.8943" stroke="url(#paint18_linear_388_262)" stroke-opacity="0.2" stroke-width="2.21138"/>
<path d="M92.1878 51.693H89.315L85.9165 55.0998H89.2592C89.6444 55.0998 89.9599 55.4078 89.9599 55.8005C89.9599 56.1858 89.6444 56.5012 89.2592 56.5012H45.1637C44.7784 56.5012 44.4629 56.1858 44.4629 55.8005C44.4629 55.4078 44.7784 55.0998 45.1637 55.0998H47.8689L51.274 51.693H43.6012C41.2887 51.693 39.4321 53.5997 39.5019 55.9196C39.5726 58.1771 41.5269 59.9014 43.7835 59.9014H93.5539V53.06C93.5539 52.3099 92.9444 51.693 92.1878 51.693Z" fill="url(#paint19_linear_388_262)"/>
<path d="M82.7702 80.4547C82.7702 83.735 85.4401 86.4131 88.7261 86.4131H97.6114V98.9475C97.6114 100.083 96.6929 101.001 95.5584 101.001H46.0534C42.4314 101.001 39.502 98.0643 39.502 94.4399V59.3965C40.5461 60.5597 42.088 61.3032 43.7836 61.3032H97.5062C97.576 61.5061 97.6114 61.7238 97.6114 61.9481V74.4964H88.7261C85.4401 74.4964 82.7702 77.1671 82.7702 80.4547Z" fill="url(#paint20_linear_388_262)"/>
<path d="M99.2577 75.8985H88.7261C86.2041 75.8985 84.1717 77.9382 84.1717 80.4553C84.1717 82.9715 86.2041 85.0121 88.7261 85.0121H99.2577C99.7695 85.0121 100.169 84.5981 100.169 84.0937V76.8103C100.169 76.3125 99.7695 75.8985 99.2577 75.8985ZM89.7702 82.3973C88.6916 82.3973 87.8225 81.5273 87.8225 80.4553C87.8225 79.3758 88.6916 78.5067 89.7702 78.5067C90.8423 78.5067 91.7114 79.3758 91.7114 80.4553C91.7114 81.5273 90.8423 82.3973 89.7702 82.3973Z" fill="url(#paint21_linear_388_262)"/>
<path d="M88.6145 50.4172L83.9336 55.0997H79.0498L81.9785 52.1694C80.3741 50.5642 80.3815 47.956 81.9858 46.3508L75.6373 39.9998C74.0329 41.605 71.4263 41.6124 69.8219 40.0072L54.736 55.0997H49.8514L71.5734 33.3678C72.0638 32.8774 72.8631 32.8774 73.3536 33.3678L88.6145 48.6362C89.1049 49.1266 89.1049 49.9267 88.6145 50.4172Z" fill="url(#paint22_linear_388_262)"/>
<path d="M75.9952 47.8131C75.9952 47.9281 75.9837 48.0423 75.9615 48.1549C75.9393 48.2682 75.9057 48.3775 75.8621 48.4843C75.8178 48.5903 75.7635 48.6913 75.7003 48.7866C75.6362 48.8827 75.5639 48.9714 75.4826 49.0528C75.4004 49.1341 75.3125 49.2064 75.2164 49.2705C75.1211 49.3345 75.0201 49.3888 74.9141 49.4323C74.8073 49.4767 74.6981 49.5095 74.5855 49.5325C74.4721 49.5547 74.3588 49.5662 74.2438 49.5662C74.1288 49.5662 74.0146 49.5547 73.902 49.5325C73.7887 49.5095 73.6794 49.4767 73.5734 49.4323C73.4666 49.3888 73.3656 49.3345 73.2703 49.2705C73.175 49.2064 73.0863 49.1341 73.005 49.0528C72.9236 48.9714 72.8505 48.8827 72.7873 48.7866C72.7232 48.6913 72.669 48.5903 72.6254 48.4843C72.5811 48.3775 72.5482 48.2682 72.5252 48.1549C72.503 48.0423 72.4915 47.9281 72.4915 47.8131C72.4915 47.6981 72.503 47.5839 72.5252 47.4714C72.5482 47.3588 72.5811 47.2488 72.6254 47.1428C72.669 47.036 72.7232 46.9358 72.7873 46.8397C72.8505 46.7444 72.9236 46.6556 73.005 46.5743C73.0863 46.493 73.175 46.4199 73.2703 46.3558C73.3656 46.2925 73.4666 46.2383 73.5734 46.194C73.6794 46.1504 73.7887 46.1167 73.902 46.0946C74.0146 46.0724 74.1288 46.0609 74.2438 46.0609C74.3588 46.0609 74.4721 46.0724 74.5855 46.0946C74.6981 46.1167 74.8073 46.1504 74.9141 46.194C75.0201 46.2383 75.1211 46.2925 75.2164 46.3558C75.3125 46.4199 75.4004 46.493 75.4826 46.5743C75.5639 46.6556 75.6362 46.7444 75.7003 46.8397C75.7635 46.9358 75.8178 47.036 75.8621 47.1428C75.9057 47.2488 75.9393 47.3588 75.9615 47.4714C75.9837 47.5839 75.9952 47.6981 75.9952 47.8131Z" fill="url(#paint23_linear_388_262)"/>
<defs>
<filter id="filter0_i_388_262" x="1.5" y="2" width="136" height="145.951" filterUnits="userSpaceOnUse" color-interpolation-filters="sRGB">
<feFlood flood-opacity="0" result="BackgroundImageFix"/>
<feBlend mode="normal" in="SourceGraphic" in2="BackgroundImageFix" result="shape"/>
<feColorMatrix in="SourceAlpha" type="matrix" values="0 0 0 0 0 0 0 0 0 0 0 0 0 0 0 0 0 0 127 0" result="hardAlpha"/>
<feOffset dy="9.95122"/>
<feGaussianBlur stdDeviation="9.95122"/>
<feComposite in2="hardAlpha" operator="arithmetic" k2="-1" k3="1"/>
<feColorMatrix type="matrix" values="0 0 0 0 0.0588235 0 0 0 0 0.0901961 0 0 0 0 0.117647 0 0 0 0.4 0"/>
<feBlend mode="normal" in2="shape" result="effect1_innerShadow_388_262"/>
</filter>
<linearGradient id="paint0_linear_388_262" x1="53.3902" y1="0.262313" x2="53.3902" y2="102.55" gradientUnits="userSpaceOnUse">
<stop stop-color="white"/>
<stop offset="1" stop-color="white" stop-opacity="0.1"/>
</linearGradient>
<linearGradient id="paint1_linear_388_262" x1="104.332" y1="10.8101" x2="63.6697" y2="74.5139" gradientUnits="userSpaceOnUse">
<stop stop-color="#02C394"/>
<stop offset="0.575" stop-color="#02C394" stop-opacity="0"/>
</linearGradient>
<linearGradient id="paint2_linear_388_262" x1="44.6941" y1="133.474" x2="107.72" y2="5.3885" gradientUnits="userSpaceOnUse">
<stop stop-color="#02C394"/>
<stop offset="0.575" stop-color="#02C394" stop-opacity="0"/>
</linearGradient>
<linearGradient id="paint3_linear_388_262" x1="63.5127" y1="63.9208" x2="89.4496" y2="88.0816" gradientUnits="userSpaceOnUse">
<stop stop-color="#85FCDF"/>
<stop offset="1" stop-color="white" stop-opacity="0.1"/>
</linearGradient>
<linearGradient id="paint4_linear_388_262" x1="63.5127" y1="63.9208" x2="89.4496" y2="88.0816" gradientUnits="userSpaceOnUse">
<stop stop-color="#85FCDF"/>
<stop offset="1" stop-color="white" stop-opacity="0.1"/>
</linearGradient>
<linearGradient id="paint5_linear_388_262" x1="63.5127" y1="63.9208" x2="89.4496" y2="88.0816" gradientUnits="userSpaceOnUse">
<stop stop-color="#85FCDF"/>
<stop offset="1" stop-color="white" stop-opacity="0.1"/>
</linearGradient>
<linearGradient id="paint6_linear_388_262" x1="63.5127" y1="63.9208" x2="89.4496" y2="88.0816" gradientUnits="userSpaceOnUse">
<stop stop-color="#85FCDF"/>
<stop offset="1" stop-color="white" stop-opacity="0.1"/>
</linearGradient>
<linearGradient id="paint7_linear_388_262" x1="63.5127" y1="63.9208" x2="89.4496" y2="88.0816" gradientUnits="userSpaceOnUse">
<stop stop-color="#85FCDF"/>
<stop offset="1" stop-color="white" stop-opacity="0.1"/>
</linearGradient>
<radialGradient id="paint8_radial_388_262" cx="0" cy="0" r="1" gradientUnits="userSpaceOnUse" gradientTransform="translate(72.5825 68.5417) rotate(31.846) scale(49.7946 155.95)">
<stop stop-color="#047047"/>
<stop offset="0.279894" stop-color="#02C394" stop-opacity="0"/>
</radialGradient>
<radialGradient id="paint9_radial_388_262" cx="0" cy="0" r="1" gradientUnits="userSpaceOnUse" gradientTransform="translate(72.5825 68.5417) rotate(31.846) scale(49.7946 155.95)">
<stop stop-color="#047047"/>
<stop offset="0.279894" stop-color="#02C394" stop-opacity="0"/>
</radialGradient>
<radialGradient id="paint10_radial_388_262" cx="0" cy="0" r="1" gradientUnits="userSpaceOnUse" gradientTransform="translate(72.5825 68.5417) rotate(31.846) scale(49.7946 155.95)">
<stop stop-color="#047047"/>
<stop offset="0.279894" stop-color="#02C394" stop-opacity="0"/>
</radialGradient>
<radialGradient id="paint11_radial_388_262" cx="0" cy="0" r="1" gradientUnits="userSpaceOnUse" gradientTransform="translate(72.5825 68.5417) rotate(31.846) scale(49.7946 155.95)">
<stop stop-color="#047047"/>
<stop offset="0.279894" stop-color="#02C394" stop-opacity="0"/>
</radialGradient>
<radialGradient id="paint12_radial_388_262" cx="0" cy="0" r="1" gradientUnits="userSpaceOnUse" gradientTransform="translate(72.5825 68.5417) rotate(31.846) scale(49.7946 155.95)">
<stop stop-color="#047047"/>
<stop offset="0.279894" stop-color="#02C394" stop-opacity="0"/>
</radialGradient>
<radialGradient id="paint13_radial_388_262" cx="0" cy="0" r="1" gradientUnits="userSpaceOnUse" gradientTransform="translate(70.1088 69.4659) rotate(48.2615) scale(18.5782 64.8582)">
<stop stop-color="#02C394"/>
<stop offset="0.313259" stop-color="#02C394" stop-opacity="0"/>
</radialGradient>
<radialGradient id="paint14_radial_388_262" cx="0" cy="0" r="1" gradientUnits="userSpaceOnUse" gradientTransform="translate(70.1088 69.4659) rotate(48.2615) scale(18.5782 64.8582)">
<stop stop-color="#02C394"/>
<stop offset="0.313259" stop-color="#02C394" stop-opacity="0"/>
</radialGradient>
<radialGradient id="paint15_radial_388_262" cx="0" cy="0" r="1" gradientUnits="userSpaceOnUse" gradientTransform="translate(70.1088 69.4659) rotate(48.2615) scale(18.5782 64.8582)">
<stop stop-color="#02C394"/>
<stop offset="0.313259" stop-color="#02C394" stop-opacity="0"/>
</radialGradient>
<radialGradient id="paint16_radial_388_262" cx="0" cy="0" r="1" gradientUnits="userSpaceOnUse" gradientTransform="translate(70.1088 69.4659) rotate(48.2615) scale(18.5782 64.8582)">
<stop stop-color="#02C394"/>
<stop offset="0.313259" stop-color="#02C394" stop-opacity="0"/>
</radialGradient>
<radialGradient id="paint17_radial_388_262" cx="0" cy="0" r="1" gradientUnits="userSpaceOnUse" gradientTransform="translate(70.1088 69.4659) rotate(48.2615) scale(18.5782 64.8582)">
<stop stop-color="#02C394"/>
<stop offset="0.313259" stop-color="#02C394" stop-opacity="0"/>
</radialGradient>
<linearGradient id="paint18_linear_388_262" x1="69.5" y1="2" x2="69.5" y2="138" gradientUnits="userSpaceOnUse">
<stop stop-color="#076A49"/>
<stop offset="0.5" stop-color="#0E8F64"/>
<stop offset="1" stop-color="#076A49"/>
</linearGradient>
<linearGradient id="paint19_linear_388_262" x1="69.8344" y1="33" x2="69.8344" y2="101.001" gradientUnits="userSpaceOnUse">
<stop stop-color="white"/>
<stop offset="1" stop-color="#999999"/>
</linearGradient>
<linearGradient id="paint20_linear_388_262" x1="69.8344" y1="33" x2="69.8344" y2="101.001" gradientUnits="userSpaceOnUse">
<stop stop-color="white"/>
<stop offset="1" stop-color="#999999"/>
</linearGradient>
<linearGradient id="paint21_linear_388_262" x1="69.8344" y1="33" x2="69.8344" y2="101.001" gradientUnits="userSpaceOnUse">
<stop stop-color="white"/>
<stop offset="1" stop-color="#999999"/>
</linearGradient>
<linearGradient id="paint22_linear_388_262" x1="69.8344" y1="33" x2="69.8344" y2="101.001" gradientUnits="userSpaceOnUse">
<stop stop-color="white"/>
<stop offset="1" stop-color="#999999"/>
</linearGradient>
<linearGradient id="paint23_linear_388_262" x1="69.8344" y1="33" x2="69.8344" y2="101.001" gradientUnits="userSpaceOnUse">
<stop stop-color="white"/>
<stop offset="1" stop-color="#999999"/>
</linearGradient>
</defs>
</svg>
