<svg width="143" height="142" viewBox="0 0 143 142" fill="none" xmlns="http://www.w3.org/2000/svg">
<circle cx="70.269" cy="69.77" r="67.77" fill="#081B18"/>
<circle cx="70.269" cy="69.77" r="67.77" stroke="url(#paint0_linear_388_251)" stroke-opacity="0.08" stroke-width="3.5"/>
<circle cx="70.269" cy="69.77" r="67.77" stroke="url(#paint1_linear_388_251)" stroke-opacity="0.3" stroke-width="3.5"/>
<circle cx="70.269" cy="69.77" r="67.77" stroke="url(#paint2_linear_388_251)" stroke-opacity="0.3" stroke-width="3.5"/>
<g filter="url(#filter0_i_388_251)">
<circle cx="70.5" cy="70" r="68" fill="#081B18"/>
</g>
<circle cx="70.5" cy="70" r="66.8943" stroke="url(#paint3_linear_388_251)" stroke-opacity="0.2" stroke-width="2.21138"/>
<path d="M71.248 67.4791C71.2633 68.8963 70.8981 69.1252 69.3131 69.7041C68.3156 70.0464 67.2942 70.2895 66.2498 70.4355L68.8868 76.9141C68.9588 77.0962 69.0046 77.2858 69.0242 77.481C69.0427 77.6772 69.034 77.8712 68.998 78.0653C68.961 78.2582 68.8988 78.4424 68.8105 78.618C68.7211 78.7935 68.6099 78.9526 68.4759 79.0965C68.3418 79.2404 68.1902 79.3625 68.0213 79.4639C67.8523 79.5642 67.6724 79.6394 67.4828 79.6885C67.292 79.7386 67.099 79.7604 66.9017 79.7549C66.7055 79.7495 66.5136 79.7168 66.3261 79.6568C66.143 79.6263 65.0006 78.9101 64.8174 78.8338L64.437 80.2215C64.3661 80.4188 64.2669 80.6009 64.1405 80.7688C64.014 80.9366 63.8657 81.0816 63.6957 81.2037C63.5245 81.3258 63.3403 81.4206 63.1408 81.4871C62.9424 81.5536 62.7375 81.5885 62.5282 81.5929C62.3178 81.5962 62.1117 81.57 61.9112 81.5111C61.7095 81.4523 61.5209 81.3661 61.3454 81.2495C61.1699 81.1339 61.0162 80.9955 60.8832 80.8331C60.7502 80.6706 60.6445 80.4919 60.566 80.2978L57.7774 73.4541L54.9737 80.312C54.8919 80.5049 54.784 80.6815 54.6488 80.8407C54.5147 81.001 54.3588 81.1372 54.1833 81.2506C54.0078 81.3629 53.8192 81.4479 53.6176 81.5035C53.4159 81.5602 53.2109 81.5853 53.0016 81.5798C52.7934 81.5733 52.5896 81.5373 52.3912 81.4697C52.1939 81.4032 52.0096 81.3084 51.8407 81.1863C51.6717 81.0631 51.5234 80.9181 51.3981 80.7513C51.2716 80.5845 51.1735 80.4025 51.1026 80.2063L50.7222 78.8338C50.2382 79.1303 49.7411 79.3996 49.2287 79.6416C49.0423 79.7037 48.8505 79.7375 48.6542 79.7451C48.458 79.7517 48.2651 79.7321 48.0743 79.6841C47.8846 79.6361 47.7048 79.5631 47.5347 79.465C47.3646 79.3658 47.212 79.2459 47.0768 79.1031C46.9417 78.9613 46.8283 78.8033 46.7378 78.6299C46.6462 78.4555 46.5819 78.2724 46.5427 78.0794C46.5045 77.8876 46.4925 77.6935 46.5089 77.4973C46.5252 77.3022 46.5678 77.1125 46.6375 76.9294L49.2745 70.4355C48.2346 70.2905 47.2186 70.0464 46.2266 69.7041C44.6263 69.1252 44.2763 68.881 44.2763 67.4791C42.204 67.4944 39.0797 67.4639 37.0074 67.4791V87.3847C37.0074 87.5493 37.0161 87.7128 37.0325 87.8774C37.0489 88.0409 37.0728 88.2034 37.1055 88.3647C37.1372 88.526 37.1775 88.6852 37.2255 88.8422C37.2734 88.9991 37.329 89.1539 37.3922 89.3066C37.4555 89.4581 37.5263 89.6063 37.6037 89.7513C37.6811 89.8963 37.7661 90.0369 37.8577 90.1732C37.9493 90.3106 38.0474 90.4425 38.1521 90.5689C38.2556 90.6965 38.3668 90.8175 38.4834 90.9341C38.6001 91.0497 38.7211 91.1598 38.8486 91.2644C38.9762 91.368 39.1081 91.4661 39.2454 91.5577C39.3817 91.6481 39.5223 91.7321 39.6684 91.8095C39.8134 91.8869 39.9616 91.9577 40.1143 92.0199C40.2658 92.0831 40.4206 92.1376 40.5776 92.1856C40.7356 92.2324 40.8948 92.2728 41.0561 92.3044C41.2175 92.336 41.3799 92.36 41.5434 92.3763C41.7069 92.3916 41.8715 92.3992 42.0361 92.3992H56.3298C56.3145 89.7775 56.345 84.2909 56.3298 81.5929C56.3309 81.5002 56.3418 81.4076 56.3614 81.316C56.3799 81.2255 56.4083 81.1372 56.4453 81.0511C56.4813 80.9661 56.526 80.8843 56.5783 80.8069C56.6317 80.7306 56.6906 80.6597 56.7571 80.5943C56.8236 80.5289 56.8955 80.4701 56.9729 80.4188C57.0514 80.3676 57.1332 80.324 57.2193 80.2891C57.3054 80.2531 57.3937 80.227 57.4853 80.2084C57.5769 80.191 57.6695 80.1823 57.7622 80.1823C57.8559 80.1823 57.9475 80.191 58.0391 80.2084C58.1306 80.227 58.2189 80.2531 58.3051 80.2891C58.3912 80.324 58.474 80.3676 58.5514 80.4188C58.6288 80.4701 58.7008 80.5289 58.7673 80.5943C58.8338 80.6597 58.8937 80.7306 58.946 80.8069C58.9984 80.8843 59.0431 80.9661 59.079 81.0511C59.1161 81.1372 59.1444 81.2255 59.163 81.316C59.1826 81.4076 59.1935 81.5002 59.1946 81.5929C59.2099 84.3214 59.1946 89.7317 59.1946 92.3992C67.6212 92.4145 90.2967 92.3992 98.9828 92.3992C99.7666 92.4069 100.508 92.2346 101.208 91.8814C101.416 91.7779 101.617 91.6612 101.808 91.5293C102.001 91.3985 102.183 91.2546 102.356 91.0987C102.528 90.9417 102.688 90.7749 102.836 90.5962C102.986 90.4174 103.122 90.2288 103.244 90.0315C103.366 89.8331 103.475 89.6281 103.569 89.4156C103.663 89.203 103.742 88.9839 103.805 88.7604C103.869 88.5369 103.917 88.3102 103.949 88.0791C103.981 87.8491 103.996 87.6169 103.996 87.3847V67.4791C103.173 67.4639 71.248 67.4791 71.248 67.4791ZM92.0802 86.6227V87.3084C92.078 87.401 92.0671 87.4937 92.0475 87.5842C92.0278 87.6747 91.9995 87.763 91.9635 87.848C91.9265 87.9341 91.8818 88.0148 91.8295 88.0911C91.776 88.1685 91.7172 88.2393 91.6507 88.3037C91.5842 88.3691 91.5122 88.4268 91.4348 88.4781C91.3574 88.5293 91.2757 88.5729 91.1896 88.6078C91.1034 88.6427 91.0151 88.6699 90.9236 88.6874C90.832 88.7048 90.7404 88.7146 90.6478 88.7146C90.554 88.7146 90.4624 88.7048 90.3709 88.6874C90.2804 88.6699 90.191 88.6427 90.1049 88.6078C90.0199 88.5729 89.9381 88.5293 89.8596 88.4781C89.7822 88.4268 89.7103 88.3691 89.6438 88.3037C89.5773 88.2393 89.5184 88.1685 89.4661 88.0911C89.4127 88.0148 89.368 87.9341 89.332 87.848C89.2949 87.763 89.2666 87.6747 89.247 87.5842C89.2273 87.4937 89.2164 87.401 89.2153 87.3084V86.6227C87.493 86.1801 85.1154 82.7669 87.6914 81.8829C87.7829 81.8621 87.8756 81.8512 87.9693 81.8502C88.0631 81.8491 88.1558 81.8567 88.2473 81.873C88.34 81.8905 88.4294 81.9156 88.5166 81.9504C88.6038 81.9853 88.6866 82.0278 88.7651 82.0791C88.8436 82.1292 88.9167 82.1881 88.9842 82.2535C89.0507 82.3189 89.1107 82.3898 89.1641 82.4672C89.2175 82.5446 89.2622 82.6263 89.2982 82.7124C89.3353 82.7986 89.3636 82.8879 89.3821 82.9795C89.4148 83.1419 89.4759 83.2924 89.5653 83.4319C89.6558 83.5704 89.768 83.6881 89.9021 83.784C90.0362 83.88 90.1845 83.9475 90.3447 83.9879C90.505 84.0271 90.6674 84.0369 90.8309 84.014C90.9955 83.9922 91.1492 83.941 91.2931 83.8603C91.437 83.7797 91.5624 83.675 91.6659 83.5464C91.7706 83.4177 91.848 83.2749 91.897 83.118C91.9472 82.9599 91.9668 82.7986 91.9548 82.6339C91.9428 82.4683 91.9014 82.3113 91.8295 82.163C91.7586 82.0137 91.6616 81.8829 91.5406 81.7706C91.4185 81.6583 91.2811 81.5722 91.1263 81.5122C90.9726 81.4534 90.8124 81.4239 90.6478 81.425C90.4068 81.4217 90.167 81.3988 89.9305 81.3541C89.6939 81.3095 89.4617 81.2451 89.2361 81.1601C89.0104 81.0751 88.7935 80.9726 88.5853 80.8505C88.3781 80.7273 88.1819 80.5889 87.9988 80.433C87.8145 80.276 87.6456 80.106 87.4908 79.9206C87.3371 79.7353 87.1997 79.538 87.0798 79.3287C86.9599 79.1194 86.8585 78.9014 86.7768 78.6746C86.6939 78.4479 86.6318 78.2168 86.5903 77.9791C86.5478 77.7415 86.526 77.5017 86.526 77.2608C86.5249 77.0198 86.5456 76.78 86.586 76.5424C86.6263 76.3047 86.6874 76.0725 86.7691 75.8458C86.8498 75.619 86.9501 75.3999 87.0689 75.1906C87.1877 74.9802 87.324 74.7829 87.4766 74.5965C87.6303 74.4101 87.7982 74.239 87.9813 74.0809C88.1634 73.9239 88.3585 73.7844 88.5656 73.6612C88.7739 73.538 88.9897 73.4334 89.2153 73.3472V72.5852C89.2164 72.4915 89.2262 72.3988 89.2448 72.3073C89.2644 72.2157 89.2917 72.1274 89.3287 72.0413C89.3647 71.9552 89.4094 71.8734 89.4617 71.796C89.514 71.7186 89.5729 71.6467 89.6394 71.5812C89.7059 71.5158 89.7778 71.457 89.8563 71.4057C89.9337 71.3534 90.0166 71.3098 90.1027 71.2749C90.1888 71.2389 90.2782 71.2128 90.3698 71.1943C90.4614 71.1757 90.554 71.167 90.6478 71.167C90.7404 71.167 90.8331 71.1757 90.9247 71.1943C91.0162 71.2128 91.1056 71.2389 91.1917 71.2749C91.2789 71.3098 91.3607 71.3534 91.4381 71.4057C91.5166 71.457 91.5885 71.5158 91.655 71.5812C91.7215 71.6467 91.7804 71.7186 91.8338 71.796C91.8861 71.8734 91.9297 71.9552 91.9668 72.0413C92.0028 72.1274 92.0311 72.2157 92.0497 72.3073C92.0693 72.3988 92.0791 72.4915 92.0802 72.5852V73.3472C93.7404 73.7887 96.0874 76.9294 93.6794 77.9039C93.5889 77.9301 93.4962 77.9454 93.4025 77.953C93.3077 77.9595 93.2139 77.9584 93.1201 77.9464C93.0264 77.9355 92.9348 77.9159 92.8444 77.8865C92.755 77.8571 92.6678 77.82 92.586 77.7742C92.5031 77.7284 92.4257 77.675 92.3538 77.614C92.2819 77.5529 92.2154 77.4853 92.1565 77.4112C92.0976 77.3382 92.0464 77.2586 92.0028 77.1757C91.9592 77.0918 91.9232 77.0046 91.897 76.9141C91.86 76.7691 91.8 76.635 91.715 76.5129C91.631 76.3898 91.5286 76.2851 91.4076 76.1979C91.2855 76.1118 91.1536 76.0485 91.0097 76.0093C90.8658 75.9701 90.7197 75.9559 90.5715 75.969C90.4897 75.9755 90.409 75.9897 90.3295 76.0115C90.2499 76.0344 90.1736 76.0638 90.0994 76.0998C90.0264 76.1368 89.9566 76.1805 89.8912 76.2306C89.8258 76.2797 89.7659 76.3352 89.7103 76.3974C89.6558 76.4584 89.6067 76.5249 89.5653 76.5947C89.5228 76.6656 89.4868 76.7397 89.4584 76.8171C89.4312 76.8945 89.4105 76.9741 89.3974 77.0547C89.3832 77.1365 89.3789 77.2182 89.381 77.3C89.3832 77.3829 89.393 77.4635 89.4116 77.5442C89.429 77.6249 89.4541 77.7023 89.4868 77.7786C89.5195 77.8538 89.5598 77.9257 89.6056 77.9933C89.6525 78.062 89.7048 78.1241 89.7626 78.183C89.8215 78.2408 89.8847 78.2931 89.9534 78.3389C90.0209 78.3847 90.0929 78.4239 90.1692 78.4566C90.2444 78.4882 90.3229 78.5133 90.4036 78.5307C90.4842 78.5482 90.5649 78.558 90.6478 78.5602C90.8887 78.5613 91.1285 78.5831 91.3672 78.6256C91.6049 78.6681 91.8371 78.7313 92.0638 78.8153C92.2906 78.8981 92.5086 79.0006 92.7179 79.1216C92.9272 79.2437 93.1234 79.3821 93.3087 79.538C93.4941 79.6928 93.6641 79.864 93.8189 80.0493C93.9737 80.2346 94.1122 80.4319 94.2332 80.6412C94.3542 80.8505 94.4555 81.0685 94.5384 81.2964C94.6212 81.5231 94.6834 81.7553 94.7259 81.994C94.7684 82.2317 94.7891 82.4715 94.7902 82.7135C94.7902 82.9544 94.7706 83.1954 94.7292 83.433C94.6877 83.6717 94.6256 83.9039 94.5438 84.1318C94.4621 84.3596 94.3618 84.5776 94.2419 84.788C94.1209 84.9973 93.9846 85.1957 93.8298 85.381C93.675 85.5675 93.5061 85.7386 93.3218 85.8945C93.1376 86.0515 92.9414 86.191 92.7321 86.3131C92.5239 86.4352 92.3058 86.5388 92.0802 86.6227Z" fill="url(#paint4_linear_388_251)"/>
<path d="M98.9784 48.1622C90.0874 48.1611 67.7432 48.1622 59.2011 48.1622C59.1967 50.6411 59.2032 54.9504 59.2011 57.4664C59.2 57.5601 59.1891 57.6528 59.1705 57.7443C59.1509 57.8348 59.1226 57.9242 59.0866 58.0103C59.0495 58.0954 59.0059 58.1771 58.9525 58.2545C58.9002 58.3319 58.8413 58.4028 58.7748 58.4693C58.7083 58.5347 58.6364 58.5936 58.5579 58.6448C58.4805 58.696 58.3976 58.7396 58.3115 58.7745C58.2254 58.8105 58.136 58.8377 58.0445 58.8552C57.9529 58.8737 57.8602 58.8824 57.7676 58.8824C57.6738 58.8824 57.5812 58.8737 57.4896 58.8552C57.398 58.8377 57.3097 58.8105 57.2225 58.7745C57.1364 58.7396 57.0546 58.696 56.9761 58.6448C56.8987 58.5936 56.8268 58.5347 56.7603 58.4693C56.6938 58.4028 56.6338 58.3319 56.5815 58.2545C56.5292 58.1771 56.4845 58.0954 56.4485 58.0103C56.4115 57.9242 56.3842 57.8348 56.3646 57.7443C56.345 57.6528 56.3351 57.5601 56.3341 57.4664C56.3482 54.9536 56.3253 50.6357 56.3341 48.1622H42.0284C41.8638 48.1622 41.7003 48.1709 41.5368 48.1873C41.3733 48.2036 41.2119 48.2287 41.0506 48.2614C40.8893 48.293 40.7312 48.3334 40.5742 48.3813C40.4172 48.4293 40.2625 48.4849 40.1109 48.5481C39.9594 48.6113 39.8111 48.6811 39.6662 48.7596C39.5223 48.837 39.3816 48.9209 39.2443 49.0125C39.108 49.1041 38.9772 49.2022 38.8497 49.3057C38.7232 49.4104 38.6011 49.5205 38.4856 49.6361C38.3689 49.7527 38.2588 49.8737 38.1553 50.0012C38.0506 50.1277 37.9536 50.2596 37.862 50.3959C37.7704 50.5321 37.6865 50.6728 37.608 50.8177C37.5306 50.9627 37.4608 51.111 37.3976 51.2625C37.3344 51.414 37.2788 51.5677 37.2308 51.7247C37.1829 51.8817 37.1425 52.0409 37.1098 52.2022C37.0782 52.3635 37.0531 52.5249 37.0368 52.6884C37.0204 52.8519 37.0117 53.0154 37.0117 53.18V64.6066C39.1614 64.6121 42.4427 64.6023 44.6088 64.6066C45.6193 61.0539 47.624 57.9896 50.2556 58.4845C51.3533 58.7778 52.3955 59.2073 53.3809 59.7709C54.3675 60.3345 55.2657 61.0147 56.0757 61.8105C56.3417 61.6928 56.6175 61.6034 56.9031 61.5434C57.1876 61.4824 57.4754 61.4518 57.7676 61.4518C58.0586 61.4518 58.3464 61.4824 58.632 61.5434C58.9165 61.6034 59.1923 61.6928 59.4583 61.8105C60.2694 61.0169 61.1676 60.3388 62.1542 59.7774C63.1408 59.216 64.1818 58.7898 65.2785 58.4987C67.91 57.9537 69.9322 61.0561 70.9264 64.6066C73.6484 64.6143 102.097 64.6001 103.995 64.6066V53.18C103.995 53.0154 103.986 52.8519 103.97 52.6884C103.955 52.5249 103.93 52.3624 103.898 52.2011C103.865 52.0398 103.826 51.8806 103.778 51.7236C103.73 51.5667 103.675 51.4119 103.611 51.2603C103.549 51.1088 103.478 50.9605 103.401 50.8156C103.324 50.6706 103.24 50.5299 103.148 50.3937C103.057 50.2563 102.959 50.1255 102.855 49.998C102.75 49.8715 102.64 49.7494 102.525 49.6328C102.408 49.5172 102.287 49.4071 102.159 49.3025C102.033 49.1989 101.901 49.1008 101.765 49.0092C101.627 48.9177 101.487 48.8337 101.342 48.7563C101.198 48.6789 101.05 48.6081 100.897 48.5448C100.745 48.4827 100.591 48.4271 100.434 48.3791C100.277 48.3312 100.118 48.2919 99.9562 48.2592C99.796 48.2265 99.6335 48.2025 99.47 48.1862C99.3065 48.1698 99.143 48.1622 98.9784 48.1622Z" fill="url(#paint5_linear_388_251)"/>
<path d="M68.3461 67.0006C68.3428 66.4664 68.2872 65.9377 68.1782 65.4145C68.0692 64.8912 67.91 64.3832 67.6996 63.8927C67.4892 63.401 67.232 62.9355 66.9278 62.4962C66.6237 62.0558 66.2803 61.6514 65.8944 61.2808C65.1041 61.4999 64.353 61.8116 63.64 62.2172C62.926 62.6216 62.273 63.1078 61.68 63.6747C62.1051 64.2491 62.4191 64.8781 62.6208 65.5638C62.8235 66.2484 62.902 66.9472 62.8562 67.6601C64.7345 67.8422 66.5637 67.6231 68.3461 67.0006Z" fill="url(#paint6_linear_388_251)"/>
<path d="M59.7887 70.8148L62.3396 77.0656C62.381 76.9141 62.4388 76.7691 62.514 76.6306C62.5881 76.4922 62.6775 76.3635 62.7822 76.2458C62.8857 76.1281 63.0024 76.0234 63.131 75.933C63.2586 75.8414 63.3959 75.7662 63.5409 75.7062C63.687 75.6473 63.8374 75.6048 63.9922 75.5798C64.147 75.5547 64.304 75.547 64.4599 75.559C64.6168 75.5699 64.7705 75.5983 64.921 75.6441C65.0714 75.6909 65.2142 75.7531 65.3505 75.8327L63.1997 70.5707C62.6328 70.4355 62.0572 70.3886 61.4751 70.43C60.8941 70.4726 60.3316 70.6001 59.7887 70.8148Z" fill="url(#paint7_linear_388_251)"/>
<path d="M52.3345 70.5707L50.1706 75.8469C50.3058 75.7662 50.4497 75.7019 50.6012 75.6539C50.7516 75.606 50.9064 75.5754 51.0634 75.5635C51.2215 75.5504 51.3785 75.5569 51.5354 75.5809C51.6924 75.6049 51.8439 75.6463 51.9911 75.7052C52.1383 75.764 52.2756 75.8393 52.4053 75.9297C52.5351 76.0202 52.6528 76.1249 52.7585 76.2426C52.8643 76.3603 52.9558 76.489 53.0311 76.6285C53.1074 76.7669 53.1662 76.913 53.2088 77.0656L55.7466 70.8149C55.2037 70.6001 54.6412 70.4726 54.059 70.4312C53.4769 70.3898 52.9024 70.4366 52.3345 70.5707Z" fill="url(#paint8_linear_388_251)"/>
<path d="M49.6396 61.2949C49.2548 61.6644 48.9104 62.0688 48.6051 62.5071C48.301 62.9464 48.0415 63.4097 47.829 63.8991C47.6164 64.3897 47.454 64.8955 47.3406 65.4166C47.2283 65.9388 47.1683 66.4664 47.1596 67.0005C48.9529 67.6154 50.7919 67.8356 52.6789 67.6601C52.6331 66.9471 52.7116 66.2483 52.9133 65.5638C53.1149 64.8781 53.4289 64.2491 53.854 63.6746C53.2621 63.1077 52.6102 62.6226 51.8962 62.2193C51.1833 61.8159 50.4311 61.5085 49.6396 61.2949Z" fill="url(#paint9_linear_388_251)"/>
<path d="M109.557 62.227L106.862 61.0649C106.862 67.3483 106.862 75.763 106.862 82.1118L112.38 69.4098C112.452 69.2452 112.514 69.0784 112.57 68.9083C112.625 68.7382 112.67 68.566 112.708 68.3916C112.747 68.2172 112.776 68.0406 112.796 67.8629C112.816 67.6863 112.828 67.5075 112.832 67.3287C112.835 67.1499 112.829 66.9723 112.814 66.7935C112.8 66.6158 112.777 66.4392 112.746 66.2626C112.714 66.0871 112.674 65.9138 112.625 65.7415C112.575 65.5693 112.519 65.4003 112.453 65.2346C112.388 65.0678 112.315 64.9054 112.233 64.7462C112.153 64.5871 112.063 64.4323 111.967 64.2818C111.87 64.1314 111.767 63.9864 111.655 63.8458C111.545 63.7063 111.428 63.5711 111.303 63.4425C111.18 63.3138 111.05 63.1917 110.914 63.0762C110.778 62.9595 110.637 62.8505 110.49 62.7491C110.344 62.6467 110.192 62.5518 110.037 62.4646C109.881 62.3774 109.72 62.2978 109.557 62.227Z" fill="url(#paint10_linear_388_251)"/>
<path d="M98.0322 95.2739H70.9831L91.3672 104.119C91.5308 104.19 91.6965 104.253 91.8665 104.308C92.0366 104.361 92.2077 104.408 92.3821 104.445C92.5566 104.483 92.7321 104.512 92.9087 104.532C93.0853 104.553 93.263 104.564 93.4406 104.567C93.6194 104.57 93.7971 104.565 93.9748 104.551C94.1514 104.537 94.328 104.514 94.5035 104.482C94.679 104.45 94.8523 104.41 95.0235 104.361C95.1946 104.313 95.3636 104.256 95.5293 104.191C95.695 104.127 95.8574 104.054 96.0155 103.972C96.1747 103.891 96.3295 103.803 96.4788 103.707C96.6292 103.611 96.7742 103.509 96.9138 103.397C97.0544 103.287 97.1885 103.171 97.3171 103.047C97.4457 102.924 97.5678 102.796 97.6834 102.661C97.7989 102.524 97.9079 102.385 98.0104 102.239C98.1129 102.093 98.2077 101.942 98.2949 101.786C98.3821 101.631 98.4617 101.472 98.5337 101.31L101.3 94.9152C100.232 95.2215 99.142 95.3414 98.0322 95.2739Z" fill="url(#paint11_linear_388_251)"/>
<path d="M42.301 45.2942C50.0376 45.2898 61.9253 45.2974 69.3349 45.2942L48.966 36.449C48.8025 36.3781 48.6357 36.3149 48.4657 36.2604C48.2956 36.207 48.1234 36.1601 47.9489 36.123C47.7756 36.0849 47.599 36.0565 47.4224 36.0358C47.2447 36.0151 47.067 36.0042 46.8893 36.0009C46.7106 35.9976 46.5329 36.0031 46.3552 36.0173C46.1775 36.0314 46.0009 36.0543 45.8254 36.0859C45.6499 36.1176 45.4755 36.1579 45.3043 36.2059C45.1321 36.2549 44.9642 36.3116 44.7974 36.377C44.6317 36.4413 44.4693 36.5144 44.3101 36.595C44.151 36.6768 43.9962 36.7651 43.8457 36.861C43.6953 36.957 43.5503 37.0594 43.4097 37.1695C43.2702 37.2796 43.135 37.3963 43.0063 37.5195C42.8777 37.6437 42.7545 37.7724 42.639 37.9075C42.5223 38.0427 42.4133 38.1833 42.3108 38.3294C42.2084 38.4755 42.1124 38.6259 42.0252 38.7807C41.9369 38.9366 41.8574 39.0958 41.7843 39.2582L38.8748 45.9537C39.9671 45.4751 41.1085 45.256 42.301 45.2942Z" fill="url(#paint12_linear_388_251)"/>
<path d="M27.9376 71.1724C27.8678 71.3371 27.8057 71.5038 27.7523 71.6739C27.6989 71.844 27.6542 72.0162 27.6171 72.1906C27.5811 72.365 27.5528 72.5405 27.5332 72.7182C27.5135 72.8948 27.5026 73.0736 27.5005 73.2513C27.4983 73.4301 27.5037 73.6078 27.519 73.7855C27.5343 73.9631 27.5582 74.1397 27.5909 74.3142C27.6226 74.4897 27.664 74.663 27.713 74.8342C27.7621 75.0064 27.8188 75.1743 27.8853 75.34C27.9507 75.5057 28.0237 75.6681 28.1055 75.8262C28.1872 75.9853 28.2755 76.139 28.3726 76.2895C28.4685 76.4388 28.572 76.5838 28.6832 76.7244C28.7933 76.864 28.9111 76.998 29.0343 77.1267C29.1574 77.2542 29.2872 77.3763 29.4234 77.4919C29.5586 77.6085 29.6992 77.7164 29.8453 77.8189C29.9914 77.9214 30.1429 78.0151 30.2977 78.1034C30.4536 78.1906 30.6127 78.2702 30.7763 78.3411L34.1447 79.804C34.1436 72.8774 34.1447 63.7705 34.1447 56.8647C34.0804 57.0053 28.2123 70.5467 27.9376 71.1724Z" fill="url(#paint13_linear_388_251)"/>
<path d="M58.6703 64.6492C58.5972 64.5914 58.5199 64.5413 58.437 64.4976C58.3542 64.454 58.268 64.4192 58.1786 64.393C58.0893 64.3657 57.9977 64.3472 57.905 64.3374C57.8124 64.3276 57.7186 64.3276 57.626 64.3352C57.5333 64.3429 57.4417 64.3592 57.3512 64.3843C57.2619 64.4104 57.1746 64.4431 57.0907 64.4846C57.0079 64.5271 56.9283 64.5761 56.8542 64.6328C56.78 64.6895 56.7113 64.7516 56.6492 64.8214C56.308 65.1408 56.0387 65.5115 55.8425 65.9366C55.6463 66.3607 55.5384 66.8065 55.5166 67.2731C55.4348 67.7909 55.7509 68.1397 57.8244 68.1048C60.0177 68.1048 60.0177 67.7745 60.0177 67.2731C59.997 66.7586 59.8683 66.2713 59.6329 65.8134C59.3974 65.3545 59.0769 64.9664 58.6703 64.6492Z" fill="url(#paint14_linear_388_251)"/>
<defs>
<filter id="filter0_i_388_251" x="2.5" y="2" width="136" height="145.951" filterUnits="userSpaceOnUse" color-interpolation-filters="sRGB">
<feFlood flood-opacity="0" result="BackgroundImageFix"/>
<feBlend mode="normal" in="SourceGraphic" in2="BackgroundImageFix" result="shape"/>
<feColorMatrix in="SourceAlpha" type="matrix" values="0 0 0 0 0 0 0 0 0 0 0 0 0 0 0 0 0 0 127 0" result="hardAlpha"/>
<feOffset dy="9.95122"/>
<feGaussianBlur stdDeviation="9.95122"/>
<feComposite in2="hardAlpha" operator="arithmetic" k2="-1" k3="1"/>
<feColorMatrix type="matrix" values="0 0 0 0 0.0588235 0 0 0 0 0.0901961 0 0 0 0 0.117647 0 0 0 0.4 0"/>
<feBlend mode="normal" in2="shape" result="effect1_innerShadow_388_251"/>
</filter>
<linearGradient id="paint0_linear_388_251" x1="53.8902" y1="0.262313" x2="53.8902" y2="102.55" gradientUnits="userSpaceOnUse">
<stop stop-color="white"/>
<stop offset="1" stop-color="white" stop-opacity="0.1"/>
</linearGradient>
<linearGradient id="paint1_linear_388_251" x1="104.832" y1="10.8101" x2="64.1697" y2="74.5139" gradientUnits="userSpaceOnUse">
<stop stop-color="#02C394"/>
<stop offset="0.575" stop-color="#02C394" stop-opacity="0"/>
</linearGradient>
<linearGradient id="paint2_linear_388_251" x1="45.1941" y1="133.474" x2="108.22" y2="5.3885" gradientUnits="userSpaceOnUse">
<stop stop-color="#02C394"/>
<stop offset="0.575" stop-color="#02C394" stop-opacity="0"/>
</linearGradient>
<linearGradient id="paint3_linear_388_251" x1="70.5" y1="2" x2="70.5" y2="138" gradientUnits="userSpaceOnUse">
<stop stop-color="#076A49"/>
<stop offset="0.5" stop-color="#0E8F64"/>
<stop offset="1" stop-color="#076A49"/>
</linearGradient>
<linearGradient id="paint4_linear_388_251" x1="70.1663" y1="36" x2="70.1663" y2="104.568" gradientUnits="userSpaceOnUse">
<stop stop-color="white"/>
<stop offset="1" stop-color="#999999"/>
</linearGradient>
<linearGradient id="paint5_linear_388_251" x1="70.1663" y1="36" x2="70.1663" y2="104.568" gradientUnits="userSpaceOnUse">
<stop stop-color="white"/>
<stop offset="1" stop-color="#999999"/>
</linearGradient>
<linearGradient id="paint6_linear_388_251" x1="70.1663" y1="36" x2="70.1663" y2="104.568" gradientUnits="userSpaceOnUse">
<stop stop-color="white"/>
<stop offset="1" stop-color="#999999"/>
</linearGradient>
<linearGradient id="paint7_linear_388_251" x1="70.1663" y1="36" x2="70.1663" y2="104.568" gradientUnits="userSpaceOnUse">
<stop stop-color="white"/>
<stop offset="1" stop-color="#999999"/>
</linearGradient>
<linearGradient id="paint8_linear_388_251" x1="70.1663" y1="36" x2="70.1663" y2="104.568" gradientUnits="userSpaceOnUse">
<stop stop-color="white"/>
<stop offset="1" stop-color="#999999"/>
</linearGradient>
<linearGradient id="paint9_linear_388_251" x1="70.1663" y1="36" x2="70.1663" y2="104.568" gradientUnits="userSpaceOnUse">
<stop stop-color="white"/>
<stop offset="1" stop-color="#999999"/>
</linearGradient>
<linearGradient id="paint10_linear_388_251" x1="70.1663" y1="36" x2="70.1663" y2="104.568" gradientUnits="userSpaceOnUse">
<stop stop-color="white"/>
<stop offset="1" stop-color="#999999"/>
</linearGradient>
<linearGradient id="paint11_linear_388_251" x1="70.1663" y1="36" x2="70.1663" y2="104.568" gradientUnits="userSpaceOnUse">
<stop stop-color="white"/>
<stop offset="1" stop-color="#999999"/>
</linearGradient>
<linearGradient id="paint12_linear_388_251" x1="70.1663" y1="36" x2="70.1663" y2="104.568" gradientUnits="userSpaceOnUse">
<stop stop-color="white"/>
<stop offset="1" stop-color="#999999"/>
</linearGradient>
<linearGradient id="paint13_linear_388_251" x1="70.1663" y1="36" x2="70.1663" y2="104.568" gradientUnits="userSpaceOnUse">
<stop stop-color="white"/>
<stop offset="1" stop-color="#999999"/>
</linearGradient>
<linearGradient id="paint14_linear_388_251" x1="70.1663" y1="36" x2="70.1663" y2="104.568" gradientUnits="userSpaceOnUse">
<stop stop-color="white"/>
<stop offset="1" stop-color="#999999"/>
</linearGradient>
</defs>
</svg>
