<svg width="42" height="42" viewBox="0 0 42 42" fill="none" xmlns="http://www.w3.org/2000/svg">
<path d="M21 8.08496V19.53L28.8225 24.2943" stroke="#02C394" stroke-width="1.3125" stroke-linecap="round"/>
<path d="M2.625 26.5518H12.7181" stroke="#02C394" stroke-width="1.3125" stroke-linecap="round"/>
<path d="M6.23438 29.9248H14.0306" stroke="#02C394" stroke-width="1.3125" stroke-linecap="round"/>
<path d="M10.29 33.2979H15.3432" stroke="#02C394" stroke-width="1.3125" stroke-linecap="round"/>
<path d="M4.16063 22.3123C4.01325 21.3921 3.93864 20.4617 3.9375 19.5298C3.9375 16.1551 4.9382 12.8563 6.81305 10.0504C8.6879 7.24446 11.3527 5.05752 14.4705 3.7661C17.5882 2.47468 21.0189 2.13678 24.3287 2.79514C27.6385 3.4535 30.6788 5.07855 33.065 7.46478C35.4512 9.85102 37.0763 12.8913 37.7346 16.2011C38.393 19.5109 38.0551 22.9416 36.7637 26.0593C35.4723 29.1771 33.2853 31.8419 30.4794 33.7167C27.6735 35.5916 24.3746 36.5923 21 36.5923C19.6337 36.5916 18.2722 36.4286 16.9444 36.1067" stroke="#02C394" stroke-width="1.3125" stroke-linecap="round"/>
</svg>
