<svg width="16" height="16" viewBox="0 0 16 16" fill="none" xmlns="http://www.w3.org/2000/svg">
<path d="M14.6723 3.05938C15.2582 2.47344 15.2582 1.52188 14.6723 0.935944C14.0863 0.350006 13.1348 0.350006 12.5488 0.935944L7.61289 5.87657L2.67227 0.940631C2.08633 0.354694 1.13477 0.354694 0.548828 0.940631C-0.0371094 1.52657 -0.0371094 2.47813 0.548828 3.06407L5.48945 8.00001L0.553516 12.9406C-0.0324218 13.5266 -0.0324218 14.4781 0.553516 15.0641C1.13945 15.65 2.09102 15.65 2.67695 15.0641L7.61289 10.1234L12.5535 15.0594C13.1395 15.6453 14.091 15.6453 14.677 15.0594C15.2629 14.4734 15.2629 13.5219 14.677 12.9359L9.73633 8.00001L14.6723 3.05938Z" fill="url(#paint0_linear_350_162)"/>
<defs>
<linearGradient id="paint0_linear_350_162" x1="0.109375" y1="8.00001" x2="15.1164" y2="8.00001" gradientUnits="userSpaceOnUse">
<stop stop-color="#88B3AA"/>
<stop offset="1" stop-color="#377A69"/>
</linearGradient>
</defs>
</svg>
