<svg width="169" height="52" viewBox="0 0 169 52" fill="none" xmlns="http://www.w3.org/2000/svg">
<g clip-path="url(#clip0_205_2979)">
<path d="M49.3358 1.19922H6.38506C2.99056 1.19922 0.23877 3.93062 0.23877 7.29998V7.91565C0.23877 11.285 2.99056 14.0164 6.38506 14.0164H49.3358C52.7303 14.0164 55.4821 11.285 55.4821 7.91565V7.29998C55.4821 3.93062 52.7303 1.19922 49.3358 1.19922Z" fill="#00FFCC"/>
<path d="M26.0533 19.1436H6.38506C2.99056 19.1436 0.23877 21.875 0.23877 25.2443V25.8599C0.23877 29.2293 2.99056 31.9607 6.38506 31.9607H26.0533C29.4477 31.9607 32.1995 29.2293 32.1995 25.8599V25.2443C32.1995 21.875 29.4477 19.1436 26.0533 19.1436Z" fill="#00FFCC"/>
<path d="M10.2732 46.0711C5.3223 44.0674 0.53495 42.0133 1.11575 40.7764C1.00297 40.9891 0.850723 41.2689 0.760502 41.4928C0.512395 42.1476 0.506756 42.1644 0.422173 42.517C0.382702 42.7185 0.326314 42.9872 0.29248 43.1887C0.303758 44.5264 4.40881 46.2446 8.97624 48.0413C11.1416 48.8921 11.1641 48.92 11.26 49.0488C11.26 49.0488 11.2543 49.0599 11.2487 49.0655L11.5024 48.8361C11.9704 48.3547 11.9818 48.3435 12.1904 48.0693C12.3652 47.8231 12.5851 47.4816 12.7429 47.2185C12.664 47.0506 12.6528 47.0283 10.2732 46.0655V46.0711Z" fill="#00FFCC"/>
<path d="M0.239258 44.4528C0.256174 44.6263 0.267452 44.8558 0.295645 45.0294C0.378348 45.4771 0.455412 45.8111 0.526836 46.0313C0.611419 46.2719 0.735473 46.5966 0.836971 46.8316C1.41212 47.8223 3.98343 48.8801 6.79155 49.9659C7.66557 50.3017 7.9757 50.4249 8.13359 50.5201C8.13359 50.5312 8.13359 50.5536 8.13359 50.5648C8.3535 50.5144 8.64108 50.4473 8.85535 50.3858C9.48126 50.1675 9.49254 50.1618 9.81959 50.0051C9.96056 49.9268 10.1579 49.8316 10.2989 49.7477C10.2989 49.7309 10.2989 49.7141 10.2989 49.6973C10.1297 49.5629 9.56021 49.3447 8.19561 48.8074C4.14131 47.2234 0.481726 45.7011 0.244897 44.4473L0.239258 44.4528Z" fill="#00FFCC"/>
<path d="M6.17743 50.3073C4.57036 49.6973 2.14568 48.7737 1.46338 47.9062C1.64381 48.1413 1.88628 48.4492 2.09492 48.6619C2.54603 49.0928 2.56858 49.1207 2.87872 49.3558C3.0366 49.4678 3.25652 49.6189 3.42004 49.7197C4.31098 50.229 5.35979 50.5089 5.37107 50.5144C5.39927 50.52 5.43309 50.5257 5.46129 50.5368C5.49513 50.5425 5.52896 50.5536 5.56279 50.5592C5.60226 50.5649 5.64173 50.576 5.68121 50.5817C5.72632 50.5872 5.77706 50.5984 5.82218 50.604C5.92931 50.6208 5.94623 50.6208 6.00826 50.632C6.12479 50.6469 6.21501 50.6562 6.27892 50.66C6.54394 50.6824 6.5665 50.6824 6.73002 50.688H7.03451C7.01196 50.632 7.01196 50.6264 6.18306 50.313L6.17743 50.3073Z" fill="#00FFCC"/>
<path d="M6.42591 37.4844C5.86767 37.5404 5.79437 37.5515 5.37146 37.6466L4.95419 37.7586C4.09709 38.0609 4.68352 38.6877 6.74169 39.6672C8.25852 40.3892 10.0911 41.1 11.5629 41.6709C12.8316 42.1635 13.3109 42.3482 13.3504 42.4769C13.2658 42.1914 13.1361 41.8109 13.029 41.5254C12.8373 41.115 12.6813 40.8127 12.5609 40.6187L12.3862 40.35C12.2677 40.2325 12.0027 40.1317 11.2133 39.8351C7.19279 38.3071 5.85639 37.518 7.2379 37.5012C7.38451 37.5012 7.5142 37.5123 7.63261 37.5236C7.75667 37.5404 7.88073 37.5572 8.00478 37.5851C8.12883 37.6075 8.28108 37.6355 8.45588 37.6915C8.78858 37.7699 8.91827 37.7978 8.97466 37.809C8.86188 37.7699 8.82804 37.7586 8.72091 37.7307C8.68707 37.7194 8.64761 37.7082 8.61377 37.7026C8.57994 37.6915 8.54611 37.6858 8.51791 37.6803C8.48408 37.6747 8.45588 37.6635 8.42205 37.6579C8.38821 37.6523 8.36003 37.6411 8.32619 37.6355C8.29236 37.6298 8.25852 37.6187 8.22469 37.6131C8.18522 37.6075 8.14574 37.5963 8.10628 37.5907C8.06117 37.5851 8.01042 37.574 7.96531 37.5683C7.86945 37.5515 7.8469 37.5515 7.77923 37.5404C7.66269 37.5254 7.57247 37.5161 7.50857 37.5123C7.2379 37.4899 7.22099 37.4899 7.0631 37.4844C7.09693 37.4844 7.13076 37.4844 7.1646 37.4844C7.12513 37.4844 7.08565 37.4844 7.05182 37.4844C6.86574 37.4844 6.61763 37.4844 6.43155 37.5012L6.42591 37.4844Z" fill="#00FFCC"/>
<path d="M7.73752 37.7033C7.87286 37.9943 9.98177 38.7836 10.7768 39.0802C11.1772 39.2313 11.555 39.3712 11.6396 39.4551C11.5099 39.332 11.3407 39.1697 11.211 39.0521C10.7768 38.7051 10.7205 38.6604 10.3426 38.4309C10.2073 38.3525 10.0833 38.2798 9.86899 38.1734C9.4348 37.8992 8.91604 37.8656 8.44801 37.6809C7.89541 37.5522 7.69241 37.6026 7.73752 37.6977V37.7033Z" fill="#00FFCC"/>
<path d="M11.3704 42.674C7.94765 41.3363 2.21298 39.092 3.76365 38.2412L3.44224 38.4203C2.884 38.7841 2.87272 38.7897 2.60206 39.0136C2.26373 39.3196 2.01749 39.5584 1.86337 39.7301L1.82954 39.7692C1.08522 40.8998 5.37635 42.7468 10.2257 44.7058C12.8478 45.7636 13.1805 45.9203 13.2143 46.0938L13.344 45.6349C13.438 45.1648 13.4943 44.8084 13.5131 44.5659C13.5245 44.2917 13.53 43.9223 13.5131 43.6479C13.3665 43.4745 13.344 43.452 11.3535 42.674H11.3704Z" fill="#00FFCC"/>
</g>
<path d="M65.4394 35.7588V15.1063H77.8228V17.3248H67.9403V24.3031H76.8951V26.5216H67.9403V35.7588H65.4394ZM86.3415 36.1218C85.3599 36.1218 84.4692 35.9369 83.6691 35.5672C82.8691 35.1907 82.2338 34.6495 81.7632 33.9436C81.2926 33.231 81.0573 32.3705 81.0573 31.3621C81.0573 30.4747 81.2321 29.7553 81.5817 29.204C81.9313 28.646 82.3985 28.2091 82.9834 27.8931C83.5683 27.5771 84.2137 27.3418 84.9196 27.1872C85.6322 27.0258 86.3482 26.8981 87.0675 26.804C88.0087 26.683 88.7718 26.5922 89.3566 26.5317C89.9483 26.4645 90.3785 26.3536 90.6474 26.1989C90.9231 26.0443 91.0609 25.7754 91.0609 25.3922V25.3115C91.0609 24.3165 90.7886 23.5434 90.2441 22.9921C89.7062 22.4409 88.8894 22.1652 87.7936 22.1652C86.6574 22.1652 85.7667 22.414 85.1213 22.9115C84.4759 23.409 84.0221 23.9401 83.7599 24.5048L81.501 23.698C81.9044 22.7568 82.4422 22.0241 83.1145 21.4997C83.7935 20.9686 84.533 20.5988 85.333 20.3904C86.1398 20.1753 86.9331 20.0677 87.7129 20.0677C88.2104 20.0677 88.7818 20.1282 89.4272 20.2492C90.0794 20.3635 90.7079 20.6022 91.313 20.9652C91.9248 21.3282 92.4323 21.8762 92.8357 22.6089C93.2391 23.3417 93.4408 24.3233 93.4408 25.5535V35.7588H91.0609V33.6613H90.9399C90.7785 33.9974 90.5096 34.3571 90.1331 34.7403C89.7567 35.1235 89.2558 35.4495 88.6306 35.7185C88.0054 35.9874 87.2423 36.1218 86.3415 36.1218ZM86.7045 33.984C87.6457 33.984 88.439 33.7991 89.0844 33.4293C89.7365 33.0596 90.2273 32.5823 90.5567 31.9974C90.8928 31.4125 91.0609 30.7973 91.0609 30.152V27.9738C90.96 28.0948 90.7382 28.2057 90.3953 28.3065C90.0592 28.4007 89.6693 28.4847 89.2256 28.5586C88.7886 28.6259 88.3617 28.6864 87.9449 28.7402C87.5348 28.7872 87.202 28.8276 86.9465 28.8612C86.328 28.9418 85.7499 29.0729 85.212 29.2545C84.6809 29.4293 84.2507 29.6948 83.9212 30.0511C83.5986 30.4007 83.4372 30.878 83.4372 31.4831C83.4372 32.31 83.7431 32.9352 84.3549 33.3587C84.9734 33.7756 85.7566 33.984 86.7045 33.984ZM98.1072 35.7588V15.1063H100.487V22.73H100.689C100.864 22.461 101.106 22.1182 101.415 21.7014C101.731 21.2778 102.181 20.9014 102.766 20.5719C103.358 20.2358 104.158 20.0677 105.166 20.0677C106.47 20.0677 107.62 20.3938 108.615 21.0459C109.61 21.698 110.386 22.6224 110.944 23.8191C111.502 25.0157 111.781 26.4275 111.781 28.0544C111.781 29.6948 111.502 31.1167 110.944 32.3201C110.386 33.5167 109.613 34.4445 108.625 35.1033C107.637 35.7554 106.497 36.0815 105.207 36.0815C104.212 36.0815 103.415 35.9168 102.817 35.5874C102.218 35.2512 101.758 34.8714 101.435 34.4478C101.112 34.0176 100.864 33.6613 100.689 33.3789H100.406V35.7588H98.1072ZM100.447 28.0141C100.447 29.1839 100.618 30.2158 100.961 31.11C101.304 31.9974 101.805 32.6932 102.464 33.1974C103.122 33.6949 103.929 33.9436 104.884 33.9436C105.879 33.9436 106.709 33.6814 107.375 33.1571C108.047 32.626 108.551 31.9133 108.887 31.0192C109.23 30.1183 109.402 29.1166 109.402 28.0141C109.402 26.925 109.234 25.9435 108.897 25.0695C108.568 24.1888 108.067 23.493 107.395 22.9821C106.729 22.4644 105.892 22.2056 104.884 22.2056C103.916 22.2056 103.102 22.451 102.443 22.9417C101.785 23.4258 101.287 24.1048 100.951 24.9787C100.615 25.846 100.447 26.8578 100.447 28.0141ZM118.404 35.7588L113.685 20.2694H116.186L119.534 32.1285H119.695L123.003 20.2694H125.544L128.811 32.0881H128.973L132.321 20.2694H134.821L130.102 35.7588H127.762L124.374 23.8594H124.132L120.744 35.7588H118.404ZM143.935 36.0815C142.443 36.0815 141.155 35.7521 140.073 35.0932C138.997 34.4277 138.167 33.4999 137.582 32.31C137.004 31.1133 136.715 29.7217 136.715 28.1351C136.715 26.5485 137.004 25.1502 137.582 23.9401C138.167 22.7232 138.98 21.7753 140.022 21.0963C141.071 20.4106 142.295 20.0677 143.693 20.0677C144.5 20.0677 145.296 20.2022 146.083 20.4711C146.87 20.74 147.586 21.177 148.231 21.782C148.876 22.3804 149.391 23.1737 149.774 24.1619C150.157 25.1502 150.349 26.367 150.349 27.8124V28.8208H138.409V26.7637H147.928C147.928 25.8897 147.754 25.1098 147.404 24.4241C147.061 23.7384 146.57 23.1972 145.932 22.8005C145.3 22.4039 144.554 22.2056 143.693 22.2056C142.745 22.2056 141.925 22.4409 141.232 22.9115C140.547 23.3753 140.019 23.9804 139.649 24.7266C139.279 25.4729 139.095 26.2729 139.095 27.1267V28.4981C139.095 29.6679 139.296 30.6595 139.7 31.473C140.11 32.2797 140.678 32.8949 141.404 33.3184C142.13 33.7352 142.974 33.9436 143.935 33.9436C144.56 33.9436 145.125 33.8562 145.629 33.6814C146.14 33.4999 146.58 33.231 146.95 32.8747C147.32 32.5117 147.606 32.0612 147.807 31.5234L150.107 32.1688C149.865 32.9486 149.458 33.6344 148.886 34.226C148.315 34.8109 147.609 35.268 146.769 35.5974C145.928 35.9201 144.984 36.0815 143.935 36.0815ZM156.349 15.1063V35.7588H153.969V15.1063H156.349ZM167.444 20.2694V22.2863H159.417V20.2694H167.444ZM161.756 16.5584H164.136V31.3217C164.136 31.994 164.234 32.4982 164.429 32.8344C164.63 33.1638 164.886 33.3856 165.195 33.4999C165.511 33.6075 165.844 33.6613 166.193 33.6613C166.456 33.6613 166.671 33.6478 166.839 33.6209C167.007 33.5873 167.141 33.5604 167.242 33.5403L167.726 35.6781C167.565 35.7386 167.34 35.7991 167.051 35.8596C166.762 35.9269 166.395 35.9605 165.951 35.9605C165.279 35.9605 164.62 35.8159 163.975 35.5269C163.336 35.2378 162.805 34.7974 162.382 34.2058C161.965 33.6142 161.756 32.868 161.756 31.9671V16.5584Z" fill="#00FFCC"/>
<defs>
<clipPath id="clip0_205_2979">
<rect width="55.6364" height="51" fill="white" transform="translate(0 0.451172)"/>
</clipPath>
</defs>
</svg>
