<svg width="52" height="52" viewBox="0 0 52 52" fill="none" xmlns="http://www.w3.org/2000/svg">
<path d="M23.8461 19.8051C23.7003 19.5168 23.4047 19.3351 23.0818 19.3351H16.4512L19.589 2.00899C19.6601 1.61688 19.4512 1.22754 19.0853 1.06994C18.7193 0.912342 18.2931 1.02779 18.0568 1.3487L1.16674 24.2902C0.97522 24.5502 0.94642 24.896 1.0921 25.1842C1.23786 25.4725 1.53349 25.6542 1.85642 25.6542H8.48694L5.34914 42.9803C5.27819 43.3724 5.48701 43.7618 5.85284 43.9194C5.96249 43.9666 6.07761 43.9893 6.19146 43.9893C6.45729 43.9893 6.71598 43.8653 6.88139 43.6406L23.7714 20.6991C23.9629 20.4391 23.9918 20.0934 23.8461 19.8051ZM7.6929 39.6495L10.3549 24.9504C10.4001 24.7006 10.3322 24.4437 10.1695 24.2489C10.0068 24.0541 9.76605 23.9415 9.51223 23.9415H3.55022L17.2452 5.33975L14.5832 20.0388C14.538 20.2886 14.6059 20.5456 14.7686 20.7404C14.9313 20.9352 15.172 21.0478 15.4259 21.0478H21.3879L7.6929 39.6495Z" fill="#02C394"/>
</svg>
