<svg width="123" height="122" viewBox="0 0 123 122" fill="none" xmlns="http://www.w3.org/2000/svg">
<g clip-path="url(#clip0_1612_359)">
<rect x="0.914429" y="72.3394" width="87.4715" height="87.4715" rx="43.7357" transform="rotate(-55.6025 0.914429 72.3394)" fill="url(#paint0_linear_1612_359)"/>
<g clip-path="url(#clip1_1612_359)">
<path d="M58.8353 58.1219L61.585 56.9221L66.3842 67.9206L63.6346 69.1204L58.8353 58.1219Z" fill="url(#paint1_linear_1612_359)"/>
<path d="M65.1344 72.5575L67.884 71.3577L69.6838 75.4821L66.9341 76.6819L65.1344 72.5575Z" fill="url(#paint2_linear_1612_359)"/>
<path d="M39.7444 66.8779C39.4162 66.2581 39.2155 65.5788 39.1542 64.8801C39.0929 64.1815 39.1722 63.4776 39.3874 62.8101C39.6026 62.1426 39.9493 61.525 40.4072 60.9937C40.865 60.4624 41.4247 60.0283 42.0531 59.7169C41.1098 57.6248 40.8875 55.2787 41.4211 53.0466C41.9547 50.8146 43.214 48.8227 45.0015 47.3834C46.5725 46.0822 48.4785 45.2505 50.5008 44.9837C51.3519 42.8284 52.8178 40.9709 54.7162 39.642C56.8106 38.1779 59.3176 37.4206 61.8723 37.4803C64.427 37.5401 66.8959 38.4138 68.9195 39.9743C71.0098 39.451 73.2185 39.6951 75.1441 40.6622C76.24 41.1968 77.2145 41.9508 78.0073 42.8772C78.8 43.8037 79.3942 44.8831 79.753 46.0485C80.3777 48.2191 80.1775 50.5441 79.1908 52.576C78.2042 54.6079 76.5008 56.2031 74.4087 57.0544L74.2712 57.1144L82.1508 62.3827C83.4119 63.2272 84.4225 64.3954 85.0768 65.7649C85.7311 67.1343 86.005 68.6546 85.8697 70.1662C85.7344 71.6779 85.1949 73.1254 84.3078 74.3569C83.4207 75.5883 82.2187 76.5585 80.8277 77.1656L60.5904 85.9963C59.1993 86.6032 57.6706 86.8246 56.1644 86.6375C54.6583 86.4503 53.2302 85.8614 52.03 84.9325C50.8297 84.0036 49.9014 82.7689 49.3424 81.3579C48.7835 79.9468 48.6144 78.4114 48.8529 76.9125L50.3495 67.5529L46.7612 69.1186C45.523 69.6883 44.1165 69.7743 42.8181 69.3597C41.5197 68.9451 40.4233 68.0598 39.7444 66.8779ZM52.2026 80.4261C52.7818 81.7533 53.8644 82.7961 55.2125 83.3251C56.5605 83.854 58.0634 83.8259 59.3906 83.2467L79.6279 74.416C80.9551 73.8369 81.9979 72.7542 82.5269 71.4062C83.0558 70.0582 83.0276 68.5553 82.4485 67.228C82.0362 66.2468 81.3409 65.4106 80.4513 64.8264L60.6543 51.6001C60.1946 51.294 59.6655 51.1081 59.1153 51.0596C58.5651 51.011 58.0116 51.1013 57.5054 51.3222C56.9992 51.5431 56.5565 51.8875 56.2179 52.3238C55.8794 52.7602 55.6557 53.2746 55.5675 53.8198L51.8122 77.356C51.6427 78.3956 51.7783 79.462 52.2026 80.4261ZM52.6022 53.3626C52.7711 52.3194 53.199 51.3352 53.8469 50.5003C54.4948 49.6654 55.3418 49.0064 56.3104 48.5837C57.279 48.1611 58.3382 47.9883 59.3909 48.0811C60.4436 48.174 61.4562 48.5295 62.3359 49.1152L71.3116 55.1327L73.2088 54.3048C74.6111 53.7313 75.7561 52.6661 76.4292 51.3089C77.1024 49.9516 77.2574 48.3955 76.8654 46.9321C76.5016 45.6937 75.7396 44.6098 74.6972 43.8485C73.6549 43.0872 72.3906 42.6911 71.1002 42.7214C71.8366 44.0932 72.3358 45.5796 72.5767 47.1178L69.6174 47.5745C69.4339 46.4581 69.0252 45.3908 68.4162 44.4375C67.8072 43.4841 67.0106 42.6646 66.0749 42.0288C65.1391 41.393 64.0838 40.9542 62.9732 40.7392C61.8625 40.5241 60.7197 40.5373 59.6143 40.7779C58.4665 41.0333 57.3788 41.5079 56.411 42.1757C54.7708 43.3264 53.5738 45.0037 53.0189 46.929C52.9265 47.2403 52.7355 47.5133 52.4746 47.7068C52.2138 47.9003 51.8972 48.0039 51.5724 48.0021C50.574 48.0186 49.5892 48.2368 48.6773 48.6435C46.8542 49.439 45.4217 50.9262 44.6951 52.7778C43.9685 54.6295 44.0072 56.694 44.8028 58.5171L47.4561 57.3593L48.656 60.1089L43.5004 62.3585C42.9535 62.5972 42.5238 63.0434 42.3058 63.5989C42.0878 64.1544 42.0994 64.7737 42.3381 65.3206C42.5767 65.8676 43.0229 66.2973 43.5784 66.5153C44.1339 66.7333 44.7532 66.7216 45.3002 66.483L50.9094 64.0353L52.6022 53.3626Z" fill="url(#paint3_linear_1612_359)"/>
</g>
</g>
<rect x="1.86436" y="72.1615" width="86.1047" height="86.1047" rx="43.0524" transform="rotate(-55.6025 1.86436 72.1615)" stroke="url(#paint4_linear_1612_359)" stroke-width="1.36674"/>
<defs>
<linearGradient id="paint0_linear_1612_359" x1="44.6502" y1="72.3394" x2="44.6502" y2="159.811" gradientUnits="userSpaceOnUse">
<stop stop-color="#1B2428"/>
<stop offset="1" stop-color="#04100F"/>
</linearGradient>
<linearGradient id="paint1_linear_1612_359" x1="60.2101" y1="57.522" x2="65.0094" y2="68.5205" gradientUnits="userSpaceOnUse">
<stop stop-color="white"/>
<stop offset="1" stop-color="#999999"/>
</linearGradient>
<linearGradient id="paint2_linear_1612_359" x1="66.5092" y1="71.9576" x2="68.309" y2="76.082" gradientUnits="userSpaceOnUse">
<stop stop-color="white"/>
<stop offset="1" stop-color="#999999"/>
</linearGradient>
<linearGradient id="paint3_linear_1612_359" x1="52.7024" y1="40.2632" x2="70.7282" y2="81.5727" gradientUnits="userSpaceOnUse">
<stop stop-color="white"/>
<stop offset="1" stop-color="#999999"/>
</linearGradient>
<linearGradient id="paint4_linear_1612_359" x1="44.6502" y1="72.3394" x2="44.6502" y2="159.811" gradientUnits="userSpaceOnUse">
<stop stop-color="#353D41" stop-opacity="0.5"/>
<stop offset="0.5" stop-color="#353D41"/>
<stop offset="1" stop-color="#353D41" stop-opacity="0.5"/>
</linearGradient>
<clipPath id="clip0_1612_359">
<rect x="0.914429" y="72.3394" width="87.4715" height="87.4715" rx="43.7357" transform="rotate(-55.6025 0.914429 72.3394)" fill="white"/>
</clipPath>
<clipPath id="clip1_1612_359">
<rect width="48" height="48" fill="white" transform="matrix(-0.916541 0.399941 0.399941 0.916541 74.1085 29.3635)"/>
</clipPath>
</defs>
</svg>
