<svg width="129" height="129" viewBox="0 0 129 129" fill="none" xmlns="http://www.w3.org/2000/svg">
<rect x="86.754" y="1.65807" width="94.5" height="94.5" rx="47.25" transform="rotate(64.7676 86.754 1.65807)" fill="url(#paint0_linear_1612_347)"/>
<rect x="86.754" y="1.65807" width="94.5" height="94.5" rx="47.25" transform="rotate(64.7676 86.754 1.65807)" stroke="url(#paint1_linear_1612_347)" stroke-width="1.5"/>
<g clip-path="url(#clip0_1612_347)">
<path d="M82.2958 73.9127L84.5896 72.8577C84.8429 72.7548 85.0633 72.5846 85.227 72.3655C85.3906 72.1464 85.4912 71.8868 85.518 71.6146C85.5448 71.3425 85.4966 71.0682 85.3788 70.8215C85.2609 70.5747 85.0779 70.3648 84.8494 70.2146L80.8563 67.4144L86.0032 58.0928C86.1574 57.8166 86.2203 57.4986 86.1829 57.1845C86.1454 56.8703 86.0096 56.576 85.7949 56.3437C85.5801 56.1114 85.2974 55.9529 84.9871 55.8909C84.6769 55.829 84.355 55.8667 84.0674 55.9987L75.2302 60.1624C74.9225 59.9903 74.605 59.8364 74.2792 59.7015C73.1917 56.7924 71.1249 54.3527 68.4341 52.8019C66.0328 51.3731 63.2473 50.7246 60.4619 50.9458C57.6765 51.1671 55.0283 52.2472 52.8828 54.0372C50.4701 53.5692 47.9695 54.0043 45.8566 55.2597C44.7669 55.9026 43.8221 56.7643 43.0817 57.7904C42.3414 58.8164 41.8215 59.9847 41.5548 61.2216C41.1153 63.609 41.5642 66.0747 42.8169 68.1541C44.0696 70.2335 46.0396 71.7829 48.3556 72.5102L65.2269 78.4307L64.9781 78.868C64.8708 79.0605 64.8073 79.2743 64.792 79.4942C64.7767 79.7141 64.8101 79.9347 64.8897 80.1402C64.9694 80.3457 65.0934 80.5312 65.2528 80.6834C65.4123 80.8355 65.6033 80.9507 65.8124 81.0206C66.1773 81.1471 66.5769 81.1279 66.9281 80.967L69.3315 79.8711L75.7857 82.1359C76.4769 82.3911 77.2117 82.5076 77.9479 82.4788C78.6842 82.45 79.4076 82.2765 80.0768 81.968C80.746 81.6596 81.3478 81.2224 81.848 80.6813C82.3482 80.1403 82.7369 79.506 82.9919 78.8147C83.2668 78 83.347 77.1323 83.2261 76.281C83.1052 75.4297 82.7866 74.6186 82.2958 73.9127ZM49.3489 69.6795C47.7241 69.1853 46.3322 68.1213 45.4293 66.6829C44.5263 65.2445 44.1729 63.5285 44.434 61.8504C44.6293 61.0122 44.9963 60.2236 45.5117 59.5344C46.0272 58.8452 46.68 58.2703 47.4289 57.8462C48.4414 57.2568 49.5881 56.9367 50.7596 56.9166C49.5362 58.9498 49.135 61.3733 49.6377 63.6923L52.5654 63.0506C52.3919 62.2062 52.4154 61.3332 52.634 60.4994C52.9976 59.0499 53.7309 57.7195 54.7624 56.6382C55.7938 55.5569 57.0881 54.7615 58.5188 54.3299C60.6612 53.7301 62.935 53.7925 65.0413 54.509C67.1477 55.2254 68.9879 56.5624 70.3203 58.3441C70.946 59.2481 71.3937 60.263 71.6395 61.3346C71.6862 61.4686 71.7479 61.5969 71.8233 61.717L66.4236 64.1938C66.1712 64.2926 65.9504 64.458 65.7845 64.6723C65.6186 64.8865 65.5139 65.1418 65.4814 65.4108C65.449 65.6799 65.49 65.9527 65.6002 66.2003C65.7104 66.4479 65.8855 66.661 66.1071 66.817L70.1002 69.6171L66.6817 75.8254L49.3489 69.6795ZM72.9502 67.883L70.0601 65.8355L81.2178 60.7216L77.5344 67.1866C77.355 67.5116 77.3025 67.8916 77.387 68.2531C77.4716 68.6146 77.6872 68.9319 77.9922 69.1436L80.953 71.2159L69.7953 76.3298L73.4222 69.845C73.6016 69.5178 73.6527 69.1355 73.5654 68.7727C73.4781 68.41 73.2588 68.0927 72.9502 67.883ZM76.7791 79.3052L73.2406 78.0635L79.4908 75.2016C79.8399 75.5294 80.0884 75.9499 80.2071 76.4139C80.3259 76.8779 80.3099 77.3661 80.1612 77.8213C80.0367 78.141 79.8504 78.4329 79.613 78.6805C79.3757 78.9281 79.0918 79.1265 78.7777 79.2643C78.4636 79.4021 78.1254 79.4766 77.7824 79.4837C77.4395 79.4907 77.0985 79.43 76.7791 79.3052Z" fill="url(#paint2_linear_1612_347)"/>
</g>
<defs>
<linearGradient id="paint0_linear_1612_347" x1="135.113" y1="0.659912" x2="135.113" y2="96.6599" gradientUnits="userSpaceOnUse">
<stop stop-color="#1B2428"/>
<stop offset="1" stop-color="#04100F"/>
</linearGradient>
<linearGradient id="paint1_linear_1612_347" x1="135.113" y1="0.659912" x2="135.113" y2="96.6599" gradientUnits="userSpaceOnUse">
<stop stop-color="#353D41" stop-opacity="0.5"/>
<stop offset="0.5" stop-color="#353D41"/>
<stop offset="1" stop-color="#353D41" stop-opacity="0.5"/>
</linearGradient>
<linearGradient id="paint2_linear_1612_347" x1="69.1687" y1="50.3243" x2="59.2098" y2="78.7039" gradientUnits="userSpaceOnUse">
<stop stop-color="white"/>
<stop offset="1" stop-color="#999999"/>
</linearGradient>
<clipPath id="clip0_1612_347">
<rect width="48" height="48" fill="white" transform="translate(49.4553 33.949) rotate(19.3368)"/>
</clipPath>
</defs>
</svg>
