<svg width="186" height="186" viewBox="0 0 186 186" fill="none" xmlns="http://www.w3.org/2000/svg">
<g clip-path="url(#clip0_1612_371)">
<rect x="35.1573" width="154.095" height="154.095" rx="77.0477" transform="rotate(13.1884 35.1573 0)" fill="url(#paint0_linear_1612_371)"/>
<path d="M127.819 114.067C125.976 113.921 124.264 113.06 123.05 111.666C121.836 110.273 121.217 108.46 121.324 106.615C121.309 105.944 121.029 105.306 120.544 104.842C120.058 104.378 119.409 104.125 118.738 104.14C118.067 104.155 117.429 104.436 116.965 104.921C116.501 105.406 116.248 106.055 116.263 106.727C116.452 108.565 115.913 110.404 114.762 111.85C113.61 113.295 111.938 114.232 110.104 114.458C109.433 114.473 108.795 114.754 108.331 115.239C107.867 115.724 107.615 116.374 107.629 117.045C107.644 117.716 107.925 118.354 108.41 118.818C108.895 119.282 109.545 119.534 110.216 119.519C112.058 119.665 113.77 120.527 114.984 121.92C116.198 123.313 116.818 125.127 116.71 126.972C116.725 127.643 117.006 128.281 117.491 128.745C117.976 129.209 118.626 129.461 119.297 129.446C119.968 129.432 120.606 129.151 121.07 128.666C121.534 128.181 121.786 127.531 121.772 126.86C121.582 125.021 122.121 123.182 123.273 121.737C124.424 120.291 126.096 119.355 127.93 119.128C128.602 119.113 129.239 118.832 129.703 118.347C130.168 117.862 130.42 117.213 130.405 116.542C130.39 115.87 130.109 115.233 129.624 114.769C129.139 114.304 128.49 114.052 127.819 114.067ZM119.065 118.97C118.467 118.175 117.771 117.458 116.993 116.838C117.742 116.184 118.407 115.437 118.969 114.617C119.568 115.412 120.264 116.128 121.042 116.748C120.292 117.403 119.628 118.149 119.065 118.97Z" fill="url(#paint1_linear_1612_371)"/>
<path d="M121.097 84.8459C120.42 84.1902 119.62 83.6754 118.744 83.3314C117.867 82.9874 116.93 82.8209 115.988 82.8417C115.047 82.8625 114.119 83.0702 113.258 83.4526C112.397 83.835 111.621 84.3846 110.974 85.0695L100.629 95.8559C100.458 96.0329 100.223 96.1352 99.9771 96.1406C99.7308 96.1461 99.4922 96.0542 99.3131 95.885C99.1362 95.7136 99.0339 95.4793 99.0285 95.233C99.023 94.9867 99.1148 94.7481 99.2841 94.5691L127.176 65.4947C127.835 64.8201 128.352 64.0208 128.698 63.1436C129.044 62.2665 129.212 61.3291 129.191 60.3864C129.17 59.4438 128.961 58.5147 128.577 57.6537C128.193 56.7927 127.64 56.017 126.952 55.3722C125.568 54.085 123.736 53.3883 121.846 53.43C119.956 53.4718 118.156 54.2487 116.83 55.5958L89.0403 84.7185C88.8688 84.8955 88.6346 84.9978 88.3883 85.0032C88.1419 85.0087 87.9034 84.9168 87.7243 84.7476C87.5474 84.5762 87.4451 84.3419 87.4396 84.0956C87.4342 83.8493 87.526 83.6108 87.6953 83.4317L104.4 65.9725C105.712 64.6006 106.426 62.7633 106.384 60.865C106.342 58.9666 105.548 57.1627 104.176 55.85C102.804 54.5373 100.967 53.8234 99.0684 53.8654C97.1701 53.9073 95.3662 54.7017 94.0535 56.0736L60.697 91.0667C56.4308 95.5257 54.1106 101.497 54.2469 107.666C54.3832 113.836 56.9648 119.699 61.4238 123.965C65.8827 128.231 71.8538 130.551 78.0234 130.415C84.193 130.279 90.0558 127.697 94.322 123.238L121.319 94.9178C121.967 94.2425 122.475 93.4461 122.815 92.574C123.155 91.7019 123.319 90.7713 123.298 89.8357C123.278 88.9 123.072 87.9776 122.695 87.1214C122.317 86.2651 121.774 85.4918 121.097 84.8459ZM117.674 91.5043L90.6232 119.699C87.2891 123.184 82.7071 125.202 77.8853 125.308C73.0635 125.415 68.3969 123.602 64.912 120.267C61.4272 116.933 59.4096 112.351 59.303 107.529C59.1965 102.708 61.0098 98.0409 64.344 94.5561L97.7528 59.6378C98.1335 59.2399 98.6566 59.0096 99.2071 58.9974C99.7577 58.9853 100.29 59.1923 100.688 59.573C101.086 59.9536 101.317 60.4768 101.329 61.0273C101.341 61.5778 101.134 62.1106 100.753 62.5085L84.0235 79.9682C82.9274 81.1138 82.3313 82.6479 82.3663 84.233C82.4013 85.8181 83.0646 87.3244 84.2102 88.4205C85.3558 89.5166 86.8899 90.1127 88.475 90.0777C90.0602 90.0427 91.5664 89.3794 92.6625 88.2338L120.528 59.1346C120.909 58.7368 121.432 58.5064 121.983 58.4943C122.533 58.4821 123.066 58.6891 123.464 59.0698C123.862 59.4505 124.092 59.9736 124.104 60.5241C124.117 61.0746 123.91 61.6075 123.529 62.0053L95.6882 91.1039C94.5888 92.2496 93.9895 93.7851 94.0222 95.3726C94.0384 96.1587 94.2092 96.9339 94.525 97.6539C94.8408 98.374 95.2953 99.0248 95.8626 99.5691C96.4299 100.114 97.0988 100.541 97.8312 100.827C98.5637 101.113 99.3452 101.251 100.131 101.235C101.719 101.202 103.228 100.54 104.328 99.3948L114.596 88.5594C114.986 88.1513 115.523 87.9149 116.088 87.9025C116.652 87.89 117.199 88.1024 117.607 88.4929C118.015 88.8834 118.252 89.4201 118.264 89.9848C118.277 90.5496 118.064 91.0962 117.674 91.5043Z" fill="url(#paint2_linear_1612_371)"/>
<path d="M77.204 94.4744C74.7014 94.5297 72.2714 95.3258 70.2213 96.7621C68.1713 98.1984 66.5931 100.21 65.6865 102.544C64.7799 104.877 64.5855 107.427 65.128 109.87C65.6704 112.314 66.9253 114.542 68.734 116.272C70.5427 118.003 72.8239 119.158 75.2891 119.592C77.7544 120.026 80.293 119.719 82.5839 118.711C84.8748 117.702 86.8151 116.036 88.1595 113.925C89.5039 111.813 90.1919 109.351 90.1366 106.848C90.0625 103.492 88.6583 100.303 86.233 97.9827C83.8076 95.6622 80.5598 94.4002 77.204 94.4744ZM69.8916 107.295C69.8702 106.23 70.0734 105.171 70.4879 104.19C70.9024 103.208 71.519 102.324 72.2975 101.596C72.2882 101.79 72.2925 101.985 72.3104 102.178C72.3811 104.773 73.2477 107.283 74.7929 109.368C76.338 111.453 78.487 113.013 80.9484 113.836C79.9337 114.385 78.8043 114.687 77.6512 114.719C75.6377 114.764 73.689 114.007 72.2338 112.614C70.7786 111.222 69.9361 109.309 69.8916 107.295ZM84.6758 109.501C82.7397 109.427 80.9049 108.616 79.5471 107.234C78.1892 105.852 77.411 104.003 77.3717 102.066C77.3655 101.199 77.518 100.337 77.8219 99.5245C79.7492 99.6105 81.5716 100.427 82.9188 101.808C84.266 103.189 85.0371 105.031 85.0754 106.96C85.085 107.807 84.9494 108.649 84.6747 109.45L84.6758 109.501Z" fill="url(#paint3_linear_1612_371)"/>
<path d="M63.6583 74.9746C65.6603 74.9303 67.6043 74.2934 69.2444 73.1444C70.8844 71.9953 72.1469 70.3857 72.8722 68.5191C73.5975 66.6526 73.753 64.6128 73.3191 62.6579C72.8851 60.7029 71.8812 58.9206 70.4342 57.5362C68.9873 56.1518 67.1623 55.2276 65.1901 54.8804C63.2179 54.5332 61.1871 54.7786 59.3543 55.5856C57.5216 56.3926 55.9693 57.725 54.8938 59.4142C53.8183 61.1034 53.2679 63.0736 53.3121 65.0757C53.3714 67.7603 54.4948 70.3115 56.4351 72.1679C58.3754 74.0243 60.9736 75.0339 63.6583 74.9746ZM63.3228 59.7908C64.3239 59.7687 65.309 60.0439 66.1536 60.5816C66.9982 61.1194 67.6644 61.8955 68.0679 62.8119C68.4714 63.7282 68.5941 64.7437 68.4205 65.7298C68.2469 66.7159 67.7848 67.6284 67.0926 68.3518C66.4004 69.0753 65.5092 69.5773 64.5317 69.7942C63.5543 70.0112 62.5344 69.9335 61.6011 69.5708C60.6678 69.2082 59.863 68.5769 59.2885 67.7569C58.714 66.9369 58.3955 65.9649 58.3734 64.9638C58.3437 63.6215 58.8485 62.3224 59.7767 61.3522C60.7049 60.3821 61.9805 59.8204 63.3228 59.7908Z" fill="url(#paint4_linear_1612_371)"/>
</g>
<rect x="36.354" y="1.92905" width="150.885" height="150.885" rx="75.4426" transform="rotate(13.1884 36.354 1.92905)" stroke="url(#paint5_linear_1612_371)" stroke-width="3.21032"/>
<defs>
<linearGradient id="paint0_linear_1612_371" x1="112.205" y1="0" x2="112.205" y2="154.095" gradientUnits="userSpaceOnUse">
<stop stop-color="#0CC084"/>
<stop offset="1" stop-color="#0CC084" stop-opacity="0"/>
</linearGradient>
<linearGradient id="paint1_linear_1612_371" x1="118.738" y1="104.14" x2="119.297" y2="129.446" gradientUnits="userSpaceOnUse">
<stop stop-color="white"/>
<stop offset="1" stop-color="#999999"/>
</linearGradient>
<linearGradient id="paint2_linear_1612_371" x1="91.0565" y1="54.0424" x2="92.7365" y2="130.09" gradientUnits="userSpaceOnUse">
<stop stop-color="white"/>
<stop offset="1" stop-color="#999999"/>
</linearGradient>
<linearGradient id="paint3_linear_1612_371" x1="77.2039" y1="94.4744" x2="77.763" y2="119.781" gradientUnits="userSpaceOnUse">
<stop stop-color="white"/>
<stop offset="1" stop-color="#999999"/>
</linearGradient>
<linearGradient id="paint4_linear_1612_371" x1="63.211" y1="54.7295" x2="63.6583" y2="74.9746" gradientUnits="userSpaceOnUse">
<stop stop-color="white"/>
<stop offset="1" stop-color="#999999"/>
</linearGradient>
<linearGradient id="paint5_linear_1612_371" x1="112.205" y1="0" x2="112.205" y2="154.095" gradientUnits="userSpaceOnUse">
<stop stop-color="#3DCD9D" stop-opacity="0"/>
<stop offset="0.5" stop-color="#3DCD9D" stop-opacity="0.4"/>
<stop offset="1" stop-color="#3DCD9D" stop-opacity="0"/>
</linearGradient>
<clipPath id="clip0_1612_371">
<rect x="35.1573" width="154.095" height="154.095" rx="77.0477" transform="rotate(13.1884 35.1573 0)" fill="white"/>
</clipPath>
</defs>
</svg>
