<svg width="105" height="104" viewBox="0 0 105 104" fill="none" xmlns="http://www.w3.org/2000/svg">
<rect x="9.31325" y="0.979398" width="94.5" height="94.5" rx="47.25" transform="rotate(4.60284 9.31325 0.979398)" fill="url(#paint0_linear_1612_364)"/>
<rect x="9.31325" y="0.979398" width="94.5" height="94.5" rx="47.25" transform="rotate(4.60284 9.31325 0.979398)" stroke="url(#paint1_linear_1612_364)" stroke-width="1.5"/>
<g clip-path="url(#clip0_1612_364)">
<path d="M70.2417 45.8448L69.035 45.703C69.2238 45.1596 69.3556 44.598 69.4283 44.0274C69.6304 41.9481 69.0212 39.871 67.728 38.2302C66.4349 36.5894 64.5577 35.5117 62.4887 35.2222C60.8025 32.6628 58.2826 30.7657 55.3567 29.8529C52.708 28.979 49.8536 28.947 47.186 29.7612C44.5183 30.5755 42.1684 32.196 40.4591 34.4C38.0047 34.466 35.6603 35.4322 33.8722 37.1147C32.9509 37.9815 32.2184 39.0292 31.7205 40.1921C31.2226 41.355 30.97 42.6081 30.9785 43.8731C31.0681 46.3012 32.0436 48.6124 33.7207 50.3705C35.3979 52.1286 37.6606 53.212 40.0818 53.4159L68.953 56.8093C70.407 56.9802 71.8693 56.5665 73.0183 55.6592C74.1673 54.7519 74.9087 53.4254 75.0796 51.9714C75.2505 50.5174 74.8368 49.0551 73.9296 47.9061C73.0223 46.7572 71.6957 46.0157 70.2417 45.8448ZM69.3032 53.8298L40.432 50.4365C38.7363 50.3088 37.1439 49.5726 35.9482 48.3635C34.7526 47.1545 34.0342 45.5539 33.9255 43.857C33.9408 43.0047 34.1297 42.1646 34.4807 41.3879C34.8317 40.6111 35.3374 39.9141 35.9668 39.3394C36.8726 38.5145 37.9822 37.9463 39.1809 37.6933C38.5539 39.8617 38.7315 42.1836 39.6811 44.2314L42.3976 42.9648C42.0334 42.18 41.8552 41.3218 41.8768 40.4569C41.8995 39.0148 42.3006 37.604 43.0398 36.3656C43.7791 35.1272 44.8307 34.1047 46.0893 33.4004C48.0353 32.3539 50.2589 31.9396 52.4511 32.2149C54.499 32.4697 56.4431 33.2609 58.0869 34.5085C59.033 35.3093 59.8063 36.2943 60.3595 37.4035C60.483 37.6234 60.6599 37.8086 60.8739 37.9419C61.0879 38.0753 61.3321 38.1526 61.5838 38.1667L61.8967 38.2034C63.2209 38.3385 64.4394 38.9874 65.2905 40.0108C66.1416 41.0342 66.5575 42.3506 66.4488 43.6772C66.3779 44.2615 66.1883 44.8251 65.8917 45.3335L58.8303 44.5036L58.4801 47.483L69.8915 48.8243C70.5553 48.9023 71.1609 49.2408 71.5751 49.7653C71.9893 50.2899 72.1782 50.9574 72.1002 51.6212C72.0221 52.285 71.6836 52.8906 71.1591 53.3048C70.6346 53.719 69.967 53.9078 69.3032 53.8298Z" fill="url(#paint2_linear_1612_364)"/>
<path d="M50.6564 58.2834C49.7407 59.2632 45.1222 64.2482 44.7703 67.2425C44.5397 68.8593 44.96 70.5016 45.939 71.8088C46.918 73.116 48.3757 73.9813 49.9921 74.2148C51.6186 74.3624 53.2372 73.8587 54.4926 72.8141C55.7481 71.7695 56.5377 70.2695 56.6883 68.6433C57.0385 65.6638 53.7034 59.729 53.0399 58.5635C52.9229 58.3622 52.7606 58.1909 52.5659 58.0631C52.3712 57.9354 52.1495 57.8547 51.9182 57.8276C51.6869 57.8004 51.4525 57.8274 51.2335 57.9065C51.0145 57.9856 50.8169 58.1147 50.6564 58.2834ZM50.3423 71.2353C49.5178 71.0915 48.7832 70.6284 48.2979 69.9465C47.8125 69.2646 47.6156 68.4189 47.7498 67.5927C47.8864 66.4307 49.6895 63.9392 51.4384 61.9095C52.6708 64.2745 53.8436 67.146 53.7088 68.2931C53.6477 69.1279 53.2601 69.9049 52.6299 70.4557C51.9997 71.0065 51.1777 71.2866 50.3423 71.2353Z" fill="url(#paint3_linear_1612_364)"/>
<path d="M40.9846 55.1228C40.7834 55.0231 40.5625 54.9699 40.338 54.9671C40.1136 54.9642 39.8913 55.0118 39.6877 55.1062C38.2839 55.7417 33.6231 58.0031 32.5375 60.1712C32.2238 60.7923 32.0362 61.4695 31.9858 62.1635C31.9353 62.8575 32.0229 63.5546 32.2436 64.2146C32.4603 64.8766 32.8075 65.4885 33.2644 66.0143C33.7214 66.5401 34.279 66.9691 34.9044 67.2761C35.4589 67.55 36.0561 67.7275 36.6702 67.8008C37.4371 67.8899 38.2142 67.8112 38.9477 67.5701C39.6093 67.3525 40.2209 67.0051 40.7466 66.5482C41.2723 66.0913 41.7016 65.5341 42.0092 64.9093C43.0947 62.7412 42.1381 57.6446 41.8163 56.1418C41.7642 55.9199 41.6623 55.7128 41.5181 55.5362C41.374 55.3597 41.1916 55.2183 40.9846 55.1228ZM39.296 63.5785C39.004 64.0707 38.5376 64.4352 37.9893 64.5994C37.441 64.7637 36.851 64.7157 36.3364 64.465C35.8219 64.2143 35.4204 63.7792 35.2118 63.2462C35.0032 62.7132 35.0027 62.1213 35.2104 61.5879C36.3329 60.3908 37.6834 59.4301 39.1824 58.7623C39.5335 60.345 39.5721 61.981 39.296 63.5785Z" fill="url(#paint4_linear_1612_364)"/>
<path d="M64.4469 58.0164C64.2707 57.8773 64.0656 57.7795 63.8466 57.7303C63.6276 57.681 63.4003 57.6815 63.1815 57.7318C62.9614 57.7825 62.7556 57.8823 62.5794 58.0238C62.4032 58.1652 62.2613 58.3446 62.1642 58.5486C61.4975 59.9806 59.3905 64.6717 59.9437 67.0324C60.0981 67.7116 60.3864 68.3531 60.7919 68.9195C61.1973 69.4858 61.7117 69.9655 62.3048 70.3306C62.9624 70.7352 63.7001 70.9919 64.4668 71.0831C65.0812 71.1541 65.7032 71.12 66.3061 70.9821C66.9856 70.8285 67.6275 70.5405 68.1939 70.135C68.7604 69.7295 69.2399 69.2147 69.6043 68.621C69.9719 68.0301 70.2188 67.3723 70.3306 66.6855C70.4425 65.9987 70.417 65.2966 70.2558 64.6196C69.6746 62.2405 65.6651 58.9601 64.4469 58.0164ZM67.0287 67.0193C66.7927 67.4052 66.4473 67.7121 66.0364 67.9011C65.6255 68.0901 65.1677 68.1526 64.7211 68.0807C64.2746 68.0087 63.8596 67.8057 63.5288 67.4972C63.198 67.1888 62.9664 66.789 62.8635 66.3486C62.9598 64.7098 63.3793 63.1063 64.0977 61.6304C65.3972 62.6316 66.4874 63.8785 67.3063 65.3C67.3757 65.5907 67.387 65.8923 67.3393 66.1874C67.2917 66.4825 67.1861 66.7652 67.0287 67.0193Z" fill="url(#paint5_linear_1612_364)"/>
</g>
<defs>
<linearGradient id="paint0_linear_1612_364" x1="56.6259" y1="0.171631" x2="56.6259" y2="96.1716" gradientUnits="userSpaceOnUse">
<stop stop-color="#1B2428"/>
<stop offset="1" stop-color="#04100F"/>
</linearGradient>
<linearGradient id="paint1_linear_1612_364" x1="56.6259" y1="0.171631" x2="56.6259" y2="96.1716" gradientUnits="userSpaceOnUse">
<stop stop-color="#353D41" stop-opacity="0.5"/>
<stop offset="0.5" stop-color="#353D41"/>
<stop offset="1" stop-color="#353D41" stop-opacity="0.5"/>
</linearGradient>
<linearGradient id="paint2_linear_1612_364" x1="55.1526" y1="29.5534" x2="52.1802" y2="54.8434" gradientUnits="userSpaceOnUse">
<stop stop-color="white"/>
<stop offset="1" stop-color="#999999"/>
</linearGradient>
<linearGradient id="paint3_linear_1612_364" x1="51.9182" y1="57.8276" x2="49.9921" y2="74.2148" gradientUnits="userSpaceOnUse">
<stop stop-color="white"/>
<stop offset="1" stop-color="#999999"/>
</linearGradient>
<linearGradient id="paint4_linear_1612_364" x1="38.1531" y1="54.7021" x2="36.6143" y2="67.7942" gradientUnits="userSpaceOnUse">
<stop stop-color="white"/>
<stop offset="1" stop-color="#999999"/>
</linearGradient>
<linearGradient id="paint5_linear_1612_364" x1="66.0632" y1="57.9826" x2="64.5227" y2="71.0896" gradientUnits="userSpaceOnUse">
<stop stop-color="white"/>
<stop offset="1" stop-color="#999999"/>
</linearGradient>
<clipPath id="clip0_1612_364">
<rect width="48" height="48" fill="white" transform="translate(31.5846 25.2312) rotate(6.70348)"/>
</clipPath>
</defs>
</svg>
