<svg width="100" height="100" viewBox="0 0 100 100" fill="none" xmlns="http://www.w3.org/2000/svg">
<rect x="0.772651" y="-0.686869" width="92.1085" height="92.1085" rx="46.0542" transform="matrix(0.998277 0.0586726 0.0586726 -0.998277 0.955328 92.1546)" fill="url(#paint0_linear_1612_350)"/>
<rect x="0.772651" y="-0.686869" width="92.1085" height="92.1085" rx="46.0542" transform="matrix(0.998277 0.0586726 0.0586726 -0.998277 0.955328 92.1546)" stroke="url(#paint1_linear_1612_350)" stroke-width="1.46204"/>
<g clip-path="url(#clip0_1612_350)">
<path d="M57.7212 64.0734C56.1972 63.8921 54.7164 63.4467 53.3452 62.7572C51.8514 63.11 50.3075 63.1989 48.7831 63.02C45.2273 62.601 41.9835 60.7865 39.7655 57.9759C37.5475 55.1652 36.5369 51.5885 36.9559 48.0327C37.375 44.4769 39.1894 41.2332 42.0001 39.0152C44.8108 36.7972 48.3874 35.7865 51.9432 36.2056C53.4675 36.386 54.9484 36.8314 56.3193 37.5218C57.8132 37.17 59.3569 37.081 60.8814 37.259C64.4372 37.6781 67.6809 39.4925 69.8989 42.3032C72.1169 45.1138 73.1276 48.6905 72.7085 52.2463C72.2894 55.8021 70.475 59.0458 67.6643 61.2638C64.8537 63.4818 61.277 64.4925 57.7212 64.0734ZM66.446 58.3503C65.9644 57.7879 65.2919 57.4235 64.5578 57.3272C63.7676 57.2341 62.9728 57.4587 62.3482 57.9516C61.7236 58.4445 61.3204 59.1653 61.2273 59.9555C61.1865 60.2975 61.2124 60.6442 61.3033 60.9764C63.2293 60.5988 65.0109 59.6891 66.446 58.3503ZM51.5921 39.185C48.8265 38.859 46.0446 39.6451 43.8586 41.3702C41.6725 43.0953 40.2613 45.6182 39.9353 48.3839C39.6094 51.1495 40.3954 53.9313 42.1206 56.1174C43.8457 58.3035 46.3686 59.7147 49.1342 60.0406L49.6258 60.0986C48.2187 58.6585 47.1516 56.922 46.5025 55.0161C45.8534 53.1102 45.6388 51.0833 45.8745 49.0838C46.1101 47.0843 46.7901 45.1628 47.8644 43.46C48.9388 41.7573 50.3804 40.3164 52.0837 39.2429L51.5921 39.185ZM60.5302 40.2384C57.7646 39.9124 54.9828 40.6985 52.7967 42.4236C50.6106 44.1487 49.1994 46.6716 48.8735 49.4372C48.5475 52.2029 49.3336 54.9847 51.0587 57.1708C52.7838 59.3569 55.3067 60.7681 58.0723 61.094L58.2809 61.1186C58.2072 60.6172 58.1962 60.1085 58.2479 59.6043C58.4342 58.024 59.2406 56.5823 60.4898 55.5965C61.7389 54.6108 63.3286 54.1616 64.9089 54.3478C66.2006 54.5088 67.4049 55.0854 68.3402 55.9907C69.2255 54.4866 69.7218 52.7854 69.7844 51.0412C69.8469 49.2969 69.4736 47.5646 68.6984 46.0009C67.9231 44.4372 66.7702 43.0914 65.3441 42.0853C63.9179 41.0791 62.2634 40.4443 60.5302 40.2384Z" fill="url(#paint2_linear_1612_350)"/>
<path d="M54.8319 50.1395L54.6564 51.6292L51.677 51.2781L51.8526 49.7884C52.0854 47.8129 53.0934 46.0109 54.6549 44.7786C56.2164 43.5464 58.2034 42.9849 60.1788 43.2178L61.6685 43.3933L61.3174 46.3727L59.8277 46.1971C58.6424 46.0575 57.4502 46.3943 56.5133 47.1337C55.5764 47.873 54.9716 48.9542 54.8319 50.1395Z" fill="url(#paint3_linear_1612_350)"/>
<path d="M49.2195 72.1336L46.2401 71.7825L46.7668 67.3134L49.7462 67.6645L49.2195 72.1336Z" fill="url(#paint4_linear_1612_350)"/>
<path d="M53.9596 31.9122L50.9802 31.561L51.5069 27.092L54.4863 27.4431L53.9596 31.9122Z" fill="url(#paint5_linear_1612_350)"/>
<path d="M32.3121 48.9959L27.843 48.4692L28.1941 45.4899L32.6632 46.0166L32.3121 48.9959Z" fill="url(#paint6_linear_1612_350)"/>
<path d="M38.0423 36.398L35.2546 32.8655L37.6097 31.007L40.3973 34.5396L38.0423 36.398Z" fill="url(#paint7_linear_1612_350)"/>
<path d="M33.6259 64.7344L31.7675 62.3794L35.3 59.5917L37.1584 61.9467L33.6259 64.7344Z" fill="url(#paint8_linear_1612_350)"/>
</g>
<defs>
<linearGradient id="paint0_linear_1612_350" x1="46.7852" y1="0" x2="46.7852" y2="93.5705" gradientUnits="userSpaceOnUse">
<stop stop-color="#1B2428"/>
<stop offset="1" stop-color="#04100F"/>
</linearGradient>
<linearGradient id="paint1_linear_1612_350" x1="46.7852" y1="0" x2="46.7852" y2="93.5705" gradientUnits="userSpaceOnUse">
<stop stop-color="#353D41" stop-opacity="0.5"/>
<stop offset="0.5" stop-color="#353D41"/>
<stop offset="1" stop-color="#353D41" stop-opacity="0.5"/>
</linearGradient>
<linearGradient id="paint2_linear_1612_350" x1="53.2521" y1="63.5467" x2="56.4123" y2="36.7323" gradientUnits="userSpaceOnUse">
<stop stop-color="white"/>
<stop offset="1" stop-color="#999999"/>
</linearGradient>
<linearGradient id="paint3_linear_1612_350" x1="56.1461" y1="51.8048" x2="57.1995" y2="42.8666" gradientUnits="userSpaceOnUse">
<stop stop-color="white"/>
<stop offset="1" stop-color="#999999"/>
</linearGradient>
<linearGradient id="paint4_linear_1612_350" x1="47.7298" y1="71.958" x2="48.2565" y2="67.489" gradientUnits="userSpaceOnUse">
<stop stop-color="white"/>
<stop offset="1" stop-color="#999999"/>
</linearGradient>
<linearGradient id="paint5_linear_1612_350" x1="52.4699" y1="31.7366" x2="52.9966" y2="27.2675" gradientUnits="userSpaceOnUse">
<stop stop-color="white"/>
<stop offset="1" stop-color="#999999"/>
</linearGradient>
<linearGradient id="paint6_linear_1612_350" x1="30.0776" y1="48.7326" x2="30.4287" y2="45.7532" gradientUnits="userSpaceOnUse">
<stop stop-color="white"/>
<stop offset="1" stop-color="#999999"/>
</linearGradient>
<linearGradient id="paint7_linear_1612_350" x1="36.6485" y1="34.6317" x2="39.0035" y2="32.7733" gradientUnits="userSpaceOnUse">
<stop stop-color="white"/>
<stop offset="1" stop-color="#999999"/>
</linearGradient>
<linearGradient id="paint8_linear_1612_350" x1="32.6967" y1="63.5569" x2="36.2292" y2="60.7692" gradientUnits="userSpaceOnUse">
<stop stop-color="white"/>
<stop offset="1" stop-color="#999999"/>
</linearGradient>
<clipPath id="clip0_1612_350">
<rect width="48" height="48" fill="white" transform="matrix(0.993127 0.117043 0.117043 -0.993127 23.7192 70.6389)"/>
</clipPath>
</defs>
</svg>
