<svg width="30" height="30" viewBox="0 0 30 30" fill="none" xmlns="http://www.w3.org/2000/svg">
<path d="M14.6666 10.6934C13.5173 10.6934 12.4151 11.1316 11.6025 11.9118C10.7898 12.692 10.3333 13.75 10.3333 14.8534C10.3333 15.9566 10.7898 17.0148 11.6025 17.7949C12.4151 18.5751 13.5173 19.0134 14.6666 19.0134C15.8159 19.0134 16.9181 18.5751 17.7307 17.7949C18.5434 17.0148 18.9999 15.9566 18.9999 14.8534C18.9999 13.75 18.5434 12.692 17.7307 11.9118C16.9181 11.1316 15.8159 10.6934 14.6666 10.6934Z" fill="url(#paint0_linear_303_553)"/>
<path fill-rule="evenodd" clip-rule="evenodd" d="M6.32176 0.461721C11.8681 -0.153907 17.4653 -0.153907 23.0116 0.461721C26.0417 0.800652 28.4845 3.19074 28.8404 6.23791C29.4976 11.8729 29.4976 17.5654 28.8404 23.2004C28.4845 26.2475 26.0417 28.6377 23.0132 28.9782C17.4664 29.594 11.8686 29.594 6.32176 28.9782C3.29174 28.6377 0.848882 26.2475 0.493055 23.202C-0.164352 17.5665 -0.164352 11.8734 0.493055 6.23791C0.848882 3.19074 3.29174 0.800652 6.32176 0.461721ZM22.6447 5.1268C22.2215 5.1268 21.8156 5.29523 21.5164 5.59506C21.2172 5.89487 21.0491 6.30152 21.0491 6.72553C21.0491 7.14953 21.2172 7.55617 21.5164 7.856C21.8156 8.15581 22.2215 8.32425 22.6447 8.32425C23.0679 8.32425 23.4737 8.15581 23.7729 7.856C24.0721 7.55617 24.2403 7.14953 24.2403 6.72553C24.2403 6.30152 24.0721 5.89487 23.7729 5.59506C23.4737 5.29523 23.0679 5.1268 22.6447 5.1268ZM7.08764 14.7191C7.08764 12.7051 7.88615 10.7736 9.30751 9.34943C10.7289 7.92528 12.6567 7.12521 14.6667 7.12521C16.6768 7.12521 18.6045 7.92528 20.0259 9.34943C21.4473 10.7736 22.2457 12.7051 22.2457 14.7191C22.2457 16.7332 21.4473 18.6647 20.0259 20.0888C18.6045 21.5131 16.6768 22.3131 14.6667 22.3131C12.6567 22.3131 10.7289 21.5131 9.30751 20.0888C7.88615 18.6647 7.08764 16.7332 7.08764 14.7191Z" fill="url(#paint1_linear_303_553)"/>
<defs>
<linearGradient id="paint0_linear_303_553" x1="10.3333" y1="14.8534" x2="18.9999" y2="14.8534" gradientUnits="userSpaceOnUse">
<stop stop-color="#14C087"/>
<stop offset="1" stop-color="#067C55"/>
</linearGradient>
<linearGradient id="paint1_linear_303_553" x1="0" y1="14.72" x2="29.3333" y2="14.72" gradientUnits="userSpaceOnUse">
<stop stop-color="#14C087"/>
<stop offset="1" stop-color="#067C55"/>
</linearGradient>
</defs>
</svg>
