<svg width="256" height="43" viewBox="0 0 256 43" fill="none" xmlns="http://www.w3.org/2000/svg">
<path d="M181.334 37.0834L180.086 37.0849L184.946 26.3594L186.53 26.3576L191.382 37.0721L190.102 37.0735L186.351 28.8378L185.761 27.4464L185.665 27.4466L185.087 28.8392L181.334 37.0834ZM189.097 33.9227L182.281 33.9304L182.283 32.9064L189.099 32.8987L189.097 33.9227ZM196.195 37.2266C195.352 37.2276 194.616 37.0524 193.987 36.7011C193.358 36.3498 192.874 35.865 192.533 35.2468C192.192 34.6285 192.023 33.9193 192.023 33.1193C192.024 32.3193 192.196 31.6098 192.538 30.9908C192.88 30.3717 193.366 29.8858 193.996 29.5331C194.625 29.1804 195.362 29.0036 196.204 29.0026C196.94 29.0018 197.601 29.1397 198.188 29.4164C198.785 29.6823 199.259 30.0551 199.611 30.5347C199.962 31.0143 200.137 31.5741 200.137 32.2141L200.136 32.3421L199.016 32.3434L199.016 32.2474C199.017 31.5434 198.767 30.9997 198.266 30.6163C197.776 30.2328 197.083 30.0416 196.187 30.0426C195.131 30.0438 194.363 30.3167 193.882 30.8612C193.401 31.3951 193.161 32.1474 193.159 33.118C193.158 34.0887 193.397 34.8458 193.877 35.3892C194.356 35.922 195.124 36.1878 196.18 36.1866C197.076 36.1856 197.769 35.9982 198.26 35.6243C198.762 35.2397 199.014 34.6901 199.014 33.9754L199.015 33.8794L200.135 33.8781L200.134 34.0061C200.134 34.6355 199.957 35.1957 199.604 35.6867C199.252 36.1671 198.777 36.5463 198.179 36.8244C197.592 37.0917 196.931 37.2258 196.195 37.2266ZM205.429 37.2161C204.586 37.2171 203.85 37.0419 203.222 36.6906C202.593 36.3393 202.108 35.8546 201.767 35.2363C201.427 34.618 201.257 33.9089 201.258 33.1089C201.259 32.3089 201.43 31.5993 201.772 30.9803C202.114 30.3612 202.6 29.8754 203.23 29.5226C203.86 29.1699 204.596 28.9931 205.439 28.9921C206.175 28.9913 206.836 29.1292 207.422 29.4059C208.019 29.6719 208.493 30.0447 208.845 30.5243C209.196 31.0039 209.372 31.5637 209.371 32.2037L209.371 32.3317L208.251 32.3329L208.251 32.2369C208.252 31.5329 208.002 30.9892 207.501 30.6058C207.011 30.2224 206.317 30.0311 205.421 30.0322C204.365 30.0334 203.597 30.3062 203.117 30.8508C202.636 31.3846 202.395 32.1369 202.394 33.1076C202.393 34.0782 202.632 34.8353 203.111 35.3788C203.591 35.9116 204.358 36.1773 205.414 36.1762C206.31 36.1751 207.004 35.9877 207.495 35.6138C207.997 35.2292 208.248 34.6796 208.249 33.9649L208.249 33.8689L209.369 33.8677L209.369 33.9957C209.368 34.625 209.191 35.1852 208.839 35.6763C208.486 36.1567 208.011 36.5359 207.413 36.8139C206.826 37.0812 206.165 37.2153 205.429 37.2161ZM214.199 37.2062C213.453 37.207 212.829 37.0531 212.328 36.7443C211.838 36.4249 211.465 36.004 211.209 35.4816C210.965 34.9592 210.843 34.3887 210.843 33.77L210.849 29.146L211.985 29.1447L211.98 33.5927C211.979 34.4034 212.186 35.0378 212.601 35.496C213.017 35.9542 213.683 36.1828 214.601 36.1817C215.571 36.1806 216.302 35.9025 216.794 35.3473C217.296 34.7814 217.547 33.9917 217.548 32.9784L217.852 32.9621L217.85 34.5781L217.578 34.5784C217.493 35.0265 217.305 35.448 217.017 35.843C216.739 36.238 216.365 36.5637 215.896 36.8203C215.426 37.0768 214.861 37.2054 214.199 37.2062ZM218.68 37.0411L217.656 37.0423L217.658 34.5463L217.547 34.4664L217.553 29.1384L218.689 29.1371L218.68 37.0411ZM221.727 37.0377L220.591 37.0389L220.6 29.135L221.624 29.1338L221.621 31.3578L221.733 31.4377L221.727 37.0377ZM221.732 32.7497L221.412 32.75L221.413 31.294L221.701 31.2937C221.777 30.8669 221.926 30.4774 222.151 30.1252C222.386 29.7729 222.696 29.4952 223.08 29.2921C223.464 29.0784 223.934 28.9712 224.488 28.9705C225.096 28.9699 225.592 29.1026 225.976 29.3689C226.37 29.6351 226.658 29.9814 226.838 30.4079C227.019 30.8343 227.109 31.2929 227.109 31.7836L227.108 32.5676L225.972 32.5689L225.973 31.9609C225.973 31.2889 225.825 30.7877 225.526 30.4574C225.228 30.127 224.732 29.9623 224.039 29.9631C223.239 29.964 222.652 30.2046 222.278 30.685C221.915 31.1655 221.733 31.8537 221.732 32.7497ZM235.411 37.0221L234.387 37.0233L234.389 34.8633L234.309 34.7994L234.313 32.1274C234.313 31.3594 234.133 30.8103 233.771 30.48C233.408 30.1498 232.79 29.9851 231.915 29.9861C231.072 29.9871 230.427 30.1478 229.979 30.4683C229.541 30.7781 229.322 31.2851 229.321 31.9891L229.321 32.0531L228.185 32.0543L228.185 31.9903C228.185 31.425 228.335 30.9182 228.635 30.4698C228.934 30.0108 229.366 29.6477 229.932 29.3804C230.497 29.1024 231.186 28.963 231.996 28.962C232.796 28.9611 233.447 29.0991 233.948 29.3758C234.459 29.6526 234.832 30.0255 235.066 30.4946C235.301 30.9636 235.417 31.4915 235.417 32.0782L235.411 37.0221ZM230.611 37.1876C229.832 37.1885 229.203 37.0132 228.723 36.6617C228.244 36.2996 228.004 35.8039 228.005 35.1745C228.005 34.7372 228.113 34.3851 228.326 34.1182C228.551 33.8406 228.855 33.6269 229.239 33.4772C229.623 33.3274 230.061 33.2202 230.551 33.1557L234.472 32.7192L234.471 33.4712L230.902 33.8753C230.305 33.9293 229.862 34.0418 229.574 34.2128C229.286 34.3838 229.142 34.6773 229.141 35.0933C229.141 35.4879 229.279 35.7918 229.556 36.0048C229.833 36.2071 230.27 36.308 230.868 36.3073C231.518 36.3066 232.1 36.2099 232.612 36.0173C233.124 35.8141 233.535 35.5096 233.845 35.1039C234.155 34.6982 234.31 34.1807 234.311 33.5514L234.535 33.6311L234.533 34.8951L234.309 34.8954C234.074 35.621 233.63 36.1868 232.979 36.5929C232.328 36.9883 231.539 37.1865 230.611 37.1876ZM241.054 37.1758C240.211 37.1767 239.475 37.0015 238.847 36.6503C238.218 36.299 237.733 35.8142 237.392 35.1959C237.052 34.5776 236.882 33.8685 236.883 33.0685C236.884 32.2685 237.055 31.559 237.397 30.9399C237.739 30.3209 238.225 29.835 238.855 29.4823C239.485 29.1295 240.221 28.9527 241.064 28.9518C241.8 28.9509 242.461 29.0888 243.047 29.3655C243.644 29.6315 244.118 30.0043 244.47 30.4839C244.821 30.9635 244.997 31.5233 244.996 32.1633L244.996 32.2913L243.876 32.2926L243.876 32.1966C243.877 31.4926 243.627 30.9488 243.126 30.5654C242.636 30.182 241.942 29.9908 241.046 29.9918C239.99 29.993 239.222 30.2658 238.741 30.8104C238.261 31.3443 238.02 32.0965 238.019 33.0672C238.018 34.0379 238.257 34.7949 238.736 35.3384C239.215 35.8712 239.983 36.137 241.039 36.1358C241.935 36.1348 242.629 35.9473 243.12 35.5734C243.622 35.1888 243.873 34.6392 243.874 33.9246L243.874 33.8286L244.994 33.8273L244.994 33.9553C244.993 34.5846 244.816 35.1448 244.464 35.6359C244.111 36.1163 243.636 36.4955 243.038 36.7735C242.451 37.0408 241.79 37.1749 241.054 37.1758ZM247.549 39.7284L246.557 39.7295L246.558 38.6895L247.758 38.6881C248.153 38.6877 248.447 38.618 248.639 38.4792C248.842 38.3509 249.018 38.1214 249.168 37.7906L249.777 36.5099L249.632 37.166L245.642 29.1066L246.89 29.1052L249.204 33.8065L250.082 35.7415L250.178 35.7414L251.028 33.7885L253.226 29.098L254.474 29.0966L250.175 38.1094C249.983 38.5043 249.764 38.8192 249.518 39.0542C249.283 39.2998 249.006 39.4707 248.685 39.5671C248.365 39.6741 247.987 39.7279 247.549 39.7284Z" fill="white"/>
<path d="M168.5 31C168.5 31 103.5 31 95 31C86.5 31 72 1 63.5 1C55 1 0 1 0 1" stroke="url(#paint0_linear_92_117)"/>
<defs>
<linearGradient id="paint0_linear_92_117" x1="104" y1="16" x2="59.5" y2="0.999991" gradientUnits="userSpaceOnUse">
<stop stop-color="white" stop-opacity="0.6"/>
<stop offset="0.826134" stop-color="white" stop-opacity="0"/>
</linearGradient>
</defs>
</svg>
