<svg width="138" height="18" viewBox="0 0 138 18" fill="none" xmlns="http://www.w3.org/2000/svg">
<path d="M14.806 9.87626C15.6165 7.26317 14.9911 4.29798 12.9299 2.22834C11.1047 0.396598 8.58074 -0.306259 6.21967 0.121295C4.72906 0.390232 3.35377 1.10394 2.2732 2.16933C2.2529 2.18865 2.23305 2.20857 2.2126 2.22834C0.863991 3.57877 0.0736422 5.39108 0 7.30196V16.0797C0.689782 16.7027 1.4533 17.2382 2.27335 17.674V7.74685V7.7359C2.27113 7.65073 2.27113 7.56555 2.27335 7.48037V7.47003C2.30673 6.10661 2.86204 4.80852 3.82391 3.84548C3.89915 3.76973 3.97616 3.69687 4.05494 3.62691C5.08602 2.70883 6.43275 2.23009 7.80951 2.29222C9.18627 2.35434 10.4848 2.95245 11.4297 3.95969C12.3746 4.96693 12.8915 6.30409 12.8709 7.68758C12.8503 9.07108 12.2937 10.3921 11.3192 11.3705C9.93738 12.7578 7.98248 13.2193 6.21982 12.7546V10.8702C7.49572 11.4026 9.02144 11.1486 10.0596 10.1062C11.4336 8.72684 11.4336 6.49035 10.0596 5.11095C9.57373 4.62285 8.95604 4.28837 8.28287 4.14883C7.60971 4.00929 6.91058 4.07081 6.27186 4.32578C5.63313 4.58076 5.08281 5.01802 4.68887 5.58355C4.29494 6.14907 4.07466 6.81808 4.05525 7.5079V14.3503C4.73495 14.7077 5.46497 14.9591 6.22013 15.0956C8.58134 15.5228 11.1054 14.8207 12.9303 12.9885C13.7983 12.1197 14.4421 11.0514 14.806 9.87626ZM6.61462 8.56896C6.37628 8.33025 6.23541 8.01071 6.21967 7.67308V7.66913C6.2177 7.62852 6.2177 7.5876 6.21967 7.54745V7.54349C6.23454 7.23235 6.35545 6.93578 6.56216 6.70348C6.76887 6.47117 7.04882 6.31724 7.3551 6.26748C7.66139 6.21771 7.9754 6.27513 8.24454 6.43012C8.51367 6.58511 8.72159 6.82825 8.83344 7.11881C8.9453 7.40937 8.95431 7.72969 8.85895 8.02612C8.7636 8.32255 8.56968 8.57708 8.30967 8.74706C8.04967 8.91704 7.73938 8.99215 7.43079 8.95981C7.1222 8.92747 6.83405 8.78964 6.61462 8.56941V8.56896Z" fill="#02C394"/>
<path d="M23.2287 8.94296H32.1081C32.2966 8.94296 32.4616 8.90997 32.603 8.84398C32.7444 8.76858 32.8575 8.67903 32.9423 8.57534C33.0366 8.47165 33.1073 8.35383 33.1544 8.22186C33.2015 8.08989 33.2251 7.96735 33.2251 7.85424V6.7938C33.2251 6.68069 33.2015 6.55815 33.1544 6.42618C33.1073 6.29421 33.0366 6.17639 32.9423 6.0727C32.8575 5.96901 32.7444 5.88418 32.603 5.8182C32.4616 5.74279 32.2966 5.70508 32.1081 5.70508H23.2287V3.89526H32.1081C32.57 3.89526 32.9753 3.98953 33.3241 4.17805C33.6823 4.35714 33.9792 4.58808 34.2149 4.87087C34.4505 5.15365 34.6296 5.46943 34.7521 5.8182C34.8747 6.15754 34.936 6.48274 34.936 6.7938V7.85424C34.936 8.1653 34.8747 8.49522 34.7521 8.84398C34.6296 9.18332 34.4505 9.49439 34.2149 9.77717C33.9792 10.06 33.6823 10.2956 33.3241 10.4841C32.9753 10.6632 32.57 10.7528 32.1081 10.7528H24.9395V13.7786H23.2287V8.94296Z" fill="white"/>
<path d="M36.8961 11.3608C36.8961 11.0968 36.948 10.8235 37.0516 10.5407C37.1553 10.2485 37.3061 9.98455 37.5041 9.74889C37.702 9.51324 37.9471 9.32 38.2393 9.16919C38.5315 9.01837 38.8709 8.94296 39.2574 8.94296H44.8989V8.81571C44.8989 8.69317 44.8753 8.57063 44.8282 8.44809C44.7811 8.31612 44.7104 8.19829 44.6161 8.09461C44.5313 7.98149 44.4182 7.89194 44.2768 7.82596C44.1354 7.75998 43.9704 7.72699 43.7819 7.72699H37.9V5.91717H43.7819C44.2438 5.91717 44.6491 6.01143 44.9979 6.19995C45.3561 6.37905 45.653 6.60999 45.8886 6.89277C46.1243 7.17556 46.3034 7.48662 46.4259 7.82596C46.5485 8.1653 46.6097 8.49522 46.6097 8.81571V10.88C46.6097 11.1911 46.5485 11.521 46.4259 11.8698C46.3034 12.2091 46.1243 12.5202 45.8886 12.803C45.653 13.0857 45.3561 13.3214 44.9979 13.5099C44.6491 13.689 44.2438 13.7786 43.7819 13.7786H39.2574C38.8709 13.7786 38.5315 13.7032 38.2393 13.5523C37.9471 13.4015 37.702 13.2083 37.5041 12.9726C37.3061 12.737 37.1553 12.4778 37.0516 12.195C36.948 11.9028 36.8961 11.6247 36.8961 11.3608ZM38.607 11.3608C38.607 11.4927 38.6588 11.6294 38.7625 11.7708C38.8756 11.9028 39.0406 11.9687 39.2574 11.9687H43.7819C43.9893 11.9687 44.1637 11.931 44.305 11.8556C44.4464 11.7802 44.5596 11.686 44.6444 11.5728C44.7387 11.4597 44.8046 11.3372 44.8423 11.2052C44.88 11.0638 44.8989 10.9319 44.8989 10.8093V10.7528H39.2574C39.0406 10.7528 38.8756 10.8235 38.7625 10.9649C38.6588 11.0968 38.607 11.2288 38.607 11.3608Z" fill="white"/>
<path d="M48.7731 3.89526H50.484V5.91717H52.4918V7.72699H50.484V10.88C50.484 10.9931 50.5076 11.1157 50.5547 11.2476C50.6018 11.3796 50.6725 11.4974 50.7668 11.6011C50.861 11.7048 50.9789 11.7944 51.1203 11.8698C51.2616 11.9358 51.4219 11.9687 51.601 11.9687H52.4918V13.7786H51.601C51.1391 13.7786 50.7291 13.689 50.3709 13.5099C50.0221 13.3214 49.7299 13.0857 49.4942 12.803C49.2586 12.5202 49.0795 12.2091 48.957 11.8698C48.8344 11.521 48.7731 11.1911 48.7731 10.88V3.89526Z" fill="white"/>
<path d="M56.4213 3.89526V6.1434L56.5345 6.11512C56.8738 5.98315 57.2084 5.91717 57.5383 5.91717H61.5963C62.0582 5.91717 62.4635 6.01143 62.8123 6.19995C63.1705 6.37905 63.4674 6.60999 63.703 6.89277C63.9387 7.17556 64.1178 7.48662 64.2403 7.82596C64.3629 8.1653 64.4241 8.49522 64.4241 8.81571V13.7786H62.7133V8.81571C62.7133 8.69317 62.6897 8.57063 62.6426 8.44809C62.5955 8.31612 62.5248 8.19829 62.4305 8.09461C62.3363 7.98149 62.2184 7.89194 62.077 7.82596C61.9451 7.75998 61.7848 7.72699 61.5963 7.72699H57.5383C57.3592 7.72699 57.199 7.75998 57.0576 7.82596C56.9162 7.89194 56.7984 7.98149 56.7041 8.09461C56.6099 8.19829 56.5392 8.31612 56.492 8.44809C56.4449 8.57063 56.4213 8.69317 56.4213 8.81571V13.7786H54.7105V3.89526H56.4213Z" fill="white"/>
<path d="M66.5852 8.94296H75.4646C75.6532 8.94296 75.8181 8.90997 75.9595 8.84398C76.1009 8.76858 76.214 8.67903 76.2989 8.57534C76.3931 8.47165 76.4638 8.35383 76.5109 8.22186C76.5581 8.08989 76.5816 7.96735 76.5816 7.85424V6.7938C76.5816 6.68069 76.5581 6.55815 76.5109 6.42618C76.4638 6.29421 76.3931 6.17639 76.2989 6.0727C76.214 5.96901 76.1009 5.88418 75.9595 5.8182C75.8181 5.74279 75.6532 5.70508 75.4646 5.70508H66.5852V3.89526H75.4646C75.9265 3.89526 76.3318 3.98953 76.6806 4.17805C77.0388 4.35714 77.3357 4.58808 77.5714 4.87087C77.807 5.15365 77.9861 5.46943 78.1087 5.8182C78.2312 6.15754 78.2925 6.48274 78.2925 6.7938V7.85424C78.2925 8.1653 78.2312 8.49522 78.1087 8.84398C77.9861 9.18332 77.807 9.49439 77.5714 9.77717C77.3357 10.06 77.0388 10.2956 76.6806 10.4841C76.3318 10.6632 75.9265 10.7528 75.4646 10.7528H68.2961V13.7786H66.5852V8.94296Z" fill="white"/>
<path d="M80.3516 5.91717H82.0625V10.88C82.0625 10.9931 82.086 11.1157 82.1331 11.2476C82.1803 11.3796 82.251 11.4974 82.3452 11.6011C82.4395 11.7048 82.5573 11.7944 82.6987 11.8698C82.8401 11.9358 83.0004 11.9687 83.1795 11.9687H87.2374C87.4259 11.9687 87.5862 11.9358 87.7181 11.8698C87.8595 11.7944 87.9774 11.7048 88.0716 11.6011C88.1659 11.4974 88.2366 11.3796 88.2837 11.2476C88.3308 11.1157 88.3544 10.9931 88.3544 10.88V5.91717H90.0652V10.88C90.0652 11.1911 90.004 11.521 89.8814 11.8698C89.7589 12.2091 89.5798 12.5202 89.3441 12.803C89.1085 13.0857 88.8116 13.3214 88.4534 13.5099C88.1046 13.689 87.6993 13.7786 87.2374 13.7786H83.1795C82.7176 13.7786 82.3075 13.689 81.9493 13.5099C81.6006 13.3214 81.3084 13.0857 81.0727 12.803C80.8371 12.5202 80.658 12.2091 80.5354 11.8698C80.4129 11.521 80.3516 11.1911 80.3516 10.88V5.91717Z" fill="white"/>
<path d="M92.2263 3.89526H93.9372V10.88C93.9372 10.9931 93.956 11.111 93.9937 11.2335C94.0409 11.3466 94.1021 11.455 94.1775 11.5587C94.2624 11.6624 94.3661 11.7519 94.4886 11.8274C94.6111 11.9028 94.7525 11.9499 94.9128 11.9687V13.7786C94.4698 13.7597 94.0786 13.656 93.7392 13.4675C93.4093 13.279 93.1312 13.0433 92.905 12.7605C92.6788 12.4778 92.5091 12.1714 92.396 11.8415C92.2829 11.5116 92.2263 11.1911 92.2263 10.88V3.89526Z" fill="white"/>
<path d="M96.554 8.33497C96.554 8.07104 96.6059 7.79768 96.7096 7.5149C96.8132 7.22269 96.9641 6.95876 97.162 6.7231C97.36 6.48745 97.605 6.29421 97.8973 6.1434C98.1895 5.99258 98.5288 5.91717 98.9153 5.91717H105.264V7.72699H98.9153C98.6985 7.72699 98.5382 7.79768 98.4345 7.93907C98.3309 8.07104 98.279 8.20301 98.279 8.33497C98.279 8.46694 98.3309 8.60362 98.4345 8.74501C98.5382 8.87698 98.6985 8.94296 98.9153 8.94296H103.906C104.293 8.94296 104.632 9.01837 104.924 9.16919C105.217 9.32 105.462 9.51324 105.66 9.74889C105.858 9.98455 106.008 10.2485 106.112 10.5407C106.216 10.8235 106.268 11.0968 106.268 11.3608C106.268 11.6247 106.216 11.9028 106.112 12.195C106.008 12.4778 105.858 12.737 105.66 12.9726C105.462 13.2083 105.217 13.4015 104.924 13.5523C104.632 13.7032 104.293 13.7786 103.906 13.7786H97.5579V11.9687H103.906C104.123 11.9687 104.283 11.9028 104.387 11.7708C104.5 11.6294 104.557 11.4927 104.557 11.3608C104.557 11.2288 104.5 11.0968 104.387 10.9649C104.283 10.8235 104.123 10.7528 103.906 10.7528H98.9153C98.5288 10.7528 98.1895 10.6774 97.8973 10.5265C97.605 10.3757 97.36 10.1825 97.162 9.94684C96.9641 9.71119 96.8132 9.45197 96.7096 9.16919C96.6059 8.87698 96.554 8.5989 96.554 8.33497Z" fill="white"/>
<path d="M115.541 5.91717C115.927 5.91717 116.266 5.99258 116.559 6.1434C116.851 6.29421 117.096 6.48745 117.294 6.7231C117.492 6.95876 117.643 7.22269 117.746 7.5149C117.85 7.79768 117.902 8.07104 117.902 8.33497C117.902 8.5989 117.85 8.87698 117.746 9.16919C117.643 9.45197 117.492 9.71119 117.294 9.94684C117.096 10.1825 116.851 10.3757 116.559 10.5265C116.266 10.6774 115.927 10.7528 115.541 10.7528H109.899V10.88C109.899 10.9931 109.923 11.1157 109.97 11.2476C110.017 11.3796 110.088 11.4974 110.182 11.6011C110.276 11.7048 110.394 11.7944 110.535 11.8698C110.677 11.9358 110.837 11.9687 111.016 11.9687H116.898V13.7786H111.016C110.554 13.7786 110.144 13.689 109.786 13.5099C109.437 13.3214 109.145 13.0857 108.909 12.803C108.674 12.5202 108.495 12.2091 108.372 11.8698C108.249 11.521 108.188 11.1911 108.188 10.88V8.81571C108.188 8.49522 108.249 8.1653 108.372 7.82596C108.495 7.48662 108.674 7.17556 108.909 6.89277C109.145 6.60999 109.437 6.37905 109.786 6.19995C110.144 6.01143 110.554 5.91717 111.016 5.91717H115.541ZM115.541 8.94296C115.757 8.94296 115.918 8.87698 116.021 8.74501C116.134 8.60362 116.191 8.46694 116.191 8.33497C116.191 8.20301 116.134 8.07104 116.021 7.93907C115.918 7.79768 115.757 7.72699 115.541 7.72699H111.016C110.818 7.72699 110.648 7.76469 110.507 7.8401C110.366 7.91551 110.248 8.00977 110.154 8.12288C110.069 8.236 110.003 8.36325 109.956 8.50464C109.918 8.63661 109.899 8.76386 109.899 8.8864V8.94296H115.541Z" fill="white"/>
<path d="M119.87 11.9687H121.58V13.7786H119.87V11.9687Z" fill="white"/>
<path d="M123.733 11.3608C123.733 11.0968 123.785 10.8235 123.889 10.5407C123.993 10.2485 124.143 9.98455 124.341 9.74889C124.539 9.51324 124.784 9.32 125.077 9.16919C125.369 9.01837 125.708 8.94296 126.095 8.94296H131.736V8.81571C131.736 8.69317 131.713 8.57063 131.666 8.44809C131.618 8.31612 131.548 8.19829 131.453 8.09461C131.369 7.98149 131.255 7.89194 131.114 7.82596C130.973 7.75998 130.808 7.72699 130.619 7.72699H124.737V5.91717H130.619C131.081 5.91717 131.486 6.01143 131.835 6.19995C132.193 6.37905 132.49 6.60999 132.726 6.89277C132.962 7.17556 133.141 7.48662 133.263 7.82596C133.386 8.1653 133.447 8.49522 133.447 8.81571V10.88C133.447 11.1911 133.386 11.521 133.263 11.8698C133.141 12.2091 132.962 12.5202 132.726 12.803C132.49 13.0857 132.193 13.3214 131.835 13.5099C131.486 13.689 131.081 13.7786 130.619 13.7786H126.095C125.708 13.7786 125.369 13.7032 125.077 13.5523C124.784 13.4015 124.539 13.2083 124.341 12.9726C124.143 12.737 123.993 12.4778 123.889 12.195C123.785 11.9028 123.733 11.6247 123.733 11.3608ZM125.444 11.3608C125.444 11.4927 125.496 11.6294 125.6 11.7708C125.713 11.9028 125.878 11.9687 126.095 11.9687H130.619C130.827 11.9687 131.001 11.931 131.142 11.8556C131.284 11.7802 131.397 11.686 131.482 11.5728C131.576 11.4597 131.642 11.3372 131.68 11.2052C131.717 11.0638 131.736 10.9319 131.736 10.8093V10.7528H126.095C125.878 10.7528 125.713 10.8235 125.6 10.9649C125.496 11.0968 125.444 11.2288 125.444 11.3608Z" fill="white"/>
<path d="M135.61 5.91717H137.321V13.7786H135.61V5.91717ZM135.61 3.89526H137.321V4.94157H135.61V3.89526Z" fill="white"/>
</svg>
