<svg width="181" height="26" viewBox="0 0 181 26" fill="none" xmlns="http://www.w3.org/2000/svg">
<path d="M19.6914 12.6853C20.728 9.34329 19.9282 5.55091 17.2919 2.90392C14.9575 0.561189 11.7295 -0.337739 8.70979 0.209088C6.80336 0.553047 5.04441 1.46586 3.6624 2.82845C3.63644 2.85315 3.61106 2.87864 3.5849 2.90392C1.86008 4.63107 0.849252 6.94895 0.755066 9.39289V20.6193C1.63727 21.4161 2.61379 22.101 3.6626 22.6583V9.96189V9.94789C3.65976 9.83895 3.65976 9.73001 3.6626 9.62108V9.60785C3.70528 7.86408 4.41551 6.20387 5.64571 4.97218C5.74194 4.8753 5.84043 4.78212 5.94119 4.69264C7.2599 3.51845 8.98231 2.90616 10.7431 2.98561C12.504 3.06507 14.1647 3.83003 15.3732 5.11825C16.5817 6.40648 17.2428 8.11665 17.2165 9.88609C17.1901 11.6555 16.4782 13.3451 15.2319 14.5964C13.4646 16.3707 10.9644 16.9609 8.70999 16.3666V13.9566C10.3418 14.6374 12.2932 14.3126 13.621 12.9795C15.3782 11.2153 15.3782 8.35487 13.621 6.59067C12.9995 5.96641 12.2095 5.53862 11.3486 5.36015C10.4876 5.18168 9.59344 5.26037 8.77654 5.58647C7.95963 5.91258 7.25579 6.47182 6.75196 7.19511C6.24813 7.91839 5.9664 8.77402 5.94157 9.65629V18.4075C6.81089 18.8646 7.74456 19.186 8.71038 19.3607C11.7303 19.9071 14.9585 19.0091 17.2925 16.6658C18.4026 15.5545 19.226 14.1882 19.6914 12.6853ZM9.21492 11.0133C8.91009 10.708 8.72993 10.2994 8.70979 9.86755V9.86249C8.70728 9.81055 8.70728 9.75822 8.70979 9.70686V9.7018C8.72881 9.30386 8.88346 8.92456 9.14783 8.62745C9.41221 8.33035 9.77025 8.13348 10.162 8.06983C10.5537 8.00618 10.9553 8.07962 11.2995 8.27784C11.6437 8.47607 11.9097 8.78703 12.0527 9.15865C12.1958 9.53026 12.2073 9.93994 12.0853 10.3191C11.9634 10.6982 11.7154 11.0237 11.3828 11.2411C11.0503 11.4585 10.6535 11.5546 10.2588 11.5132C9.8641 11.4719 9.49557 11.2956 9.21492 11.0139V11.0133Z" fill="#02C394"/>
<g filter="url(#filter0_d_131_1987)">
<path d="M30.4636 11.4919H41.82C42.0611 11.4919 42.2721 11.4498 42.4529 11.3654C42.6338 11.2689 42.7784 11.1544 42.8869 11.0218C43.0075 10.8892 43.0979 10.7385 43.1582 10.5697C43.2185 10.4009 43.2486 10.2442 43.2486 10.0995V8.74325C43.2486 8.59859 43.2185 8.44186 43.1582 8.27308C43.0979 8.1043 43.0075 7.95361 42.8869 7.82099C42.7784 7.68838 42.6338 7.57988 42.4529 7.49549C42.2721 7.39905 42.0611 7.35082 41.82 7.35082H30.4636V5.03613H41.82C42.4107 5.03613 42.9291 5.15669 43.3752 5.3978C43.8333 5.62686 44.2131 5.92223 44.5145 6.2839C44.8158 6.64557 45.0449 7.04943 45.2016 7.49549C45.3583 7.9295 45.4367 8.34542 45.4367 8.74325V10.0995C45.4367 10.4974 45.3583 10.9193 45.2016 11.3654C45.0449 11.7994 44.8158 12.1972 44.5145 12.5589C44.2131 12.9205 43.8333 13.2219 43.3752 13.4631C42.9291 13.6921 42.4107 13.8066 41.82 13.8066H32.6517V17.6765H30.4636V11.4919Z" fill="white"/>
<path d="M47.9437 14.5842C47.9437 14.2467 48.01 13.8971 48.1426 13.5354C48.2752 13.1617 48.4681 12.8241 48.7213 12.5227C48.9744 12.2213 49.2879 11.9742 49.6616 11.7813C50.0353 11.5884 50.4693 11.4919 50.9636 11.4919H58.1789V11.3292C58.1789 11.1725 58.1488 11.0157 58.0885 10.859C58.0282 10.6902 57.9378 10.5395 57.8173 10.4069C57.7088 10.2623 57.5641 10.1477 57.3833 10.0633C57.2024 9.97896 56.9915 9.93677 56.7503 9.93677H49.2276V7.62208H56.7503C57.3411 7.62208 57.8595 7.74263 58.3055 7.98375C58.7636 8.2128 59.1434 8.50817 59.4448 8.86984C59.7462 9.23151 59.9752 9.62935 60.132 10.0633C60.2887 10.4974 60.3671 10.9193 60.3671 11.3292V13.9694C60.3671 14.3672 60.2887 14.7892 60.132 15.2352C59.9752 15.6692 59.7462 16.0671 59.4448 16.4287C59.1434 16.7904 58.7636 17.0918 58.3055 17.3329C57.8595 17.562 57.3411 17.6765 56.7503 17.6765H50.9636C50.4693 17.6765 50.0353 17.5801 49.6616 17.3872C49.2879 17.1943 48.9744 16.9471 48.7213 16.6457C48.4681 16.3444 48.2752 16.0128 48.1426 15.6512C48.01 15.2774 47.9437 14.9218 47.9437 14.5842ZM50.1318 14.5842C50.1318 14.753 50.1981 14.9278 50.3307 15.1087C50.4754 15.2774 50.6863 15.3618 50.9636 15.3618H56.7503C57.0156 15.3618 57.2386 15.3136 57.4194 15.2172C57.6003 15.1207 57.7449 15.0001 57.8534 14.8555C57.974 14.7108 58.0584 14.5541 58.1066 14.3853C58.1548 14.2045 58.1789 14.0357 58.1789 13.879V13.8066H50.9636C50.6863 13.8066 50.4754 13.8971 50.3307 14.0779C50.1981 14.2467 50.1318 14.4154 50.1318 14.5842Z" fill="white"/>
<path d="M63.134 5.03613H65.3221V7.62208H67.8899V9.93677H65.3221V13.9694C65.3221 14.1141 65.3522 14.2708 65.4125 14.4396C65.4728 14.6083 65.5632 14.759 65.6837 14.8916C65.8043 15.0243 65.955 15.1388 66.1358 15.2352C66.3167 15.3196 66.5216 15.3618 66.7507 15.3618H67.8899V17.6765H66.7507C66.1599 17.6765 65.6355 17.562 65.1774 17.3329C64.7313 17.0918 64.3576 16.7904 64.0562 16.4287C63.7548 16.0671 63.5258 15.6692 63.3691 15.2352C63.2123 14.7892 63.134 14.3672 63.134 13.9694V5.03613Z" fill="white"/>
<path d="M72.9157 5.03613V7.91141L73.0604 7.87524C73.4944 7.70647 73.9224 7.62208 74.3443 7.62208H79.5343C80.125 7.62208 80.6434 7.74263 81.0895 7.98375C81.5476 8.2128 81.9274 8.50817 82.2287 8.86984C82.5301 9.23151 82.7592 9.62935 82.9159 10.0633C83.0726 10.4974 83.151 10.9193 83.151 11.3292V17.6765H80.9629V11.3292C80.9629 11.1725 80.9328 11.0157 80.8725 10.859C80.8122 10.6902 80.7218 10.5395 80.6012 10.4069C80.4807 10.2623 80.33 10.1477 80.1491 10.0633C79.9804 9.97896 79.7754 9.93677 79.5343 9.93677H74.3443C74.1153 9.93677 73.9103 9.97896 73.7295 10.0633C73.5487 10.1477 73.398 10.2623 73.2774 10.4069C73.1568 10.5395 73.0664 10.6902 73.0062 10.859C72.9459 11.0157 72.9157 11.1725 72.9157 11.3292V17.6765H70.7276V5.03613H72.9157Z" fill="white"/>
<path d="M85.915 11.4919H97.2714C97.5125 11.4919 97.7235 11.4498 97.9043 11.3654C98.0852 11.2689 98.2298 11.1544 98.3383 11.0218C98.4589 10.8892 98.5493 10.7385 98.6096 10.5697C98.6699 10.4009 98.7 10.2442 98.7 10.0995V8.74325C98.7 8.59859 98.6699 8.44186 98.6096 8.27308C98.5493 8.1043 98.4589 7.95361 98.3383 7.82099C98.2298 7.68838 98.0852 7.57988 97.9043 7.49549C97.7235 7.39905 97.5125 7.35082 97.2714 7.35082H85.915V5.03613H97.2714C97.8621 5.03613 98.3805 5.15669 98.8266 5.3978C99.2847 5.62686 99.6645 5.92223 99.9658 6.2839C100.267 6.64557 100.496 7.04943 100.653 7.49549C100.81 7.9295 100.888 8.34542 100.888 8.74325V10.0995C100.888 10.4974 100.81 10.9193 100.653 11.3654C100.496 11.7994 100.267 12.1972 99.9658 12.5589C99.6645 12.9205 99.2847 13.2219 98.8266 13.4631C98.3805 13.6921 97.8621 13.8066 97.2714 13.8066H88.1031V17.6765H85.915V11.4919Z" fill="white"/>
<path d="M103.522 7.62208H105.71V13.9694C105.71 14.1141 105.74 14.2708 105.8 14.4396C105.86 14.6083 105.951 14.759 106.071 14.8916C106.192 15.0243 106.343 15.1388 106.524 15.2352C106.704 15.3196 106.909 15.3618 107.138 15.3618H112.328C112.569 15.3618 112.774 15.3196 112.943 15.2352C113.124 15.1388 113.275 15.0243 113.395 14.8916C113.516 14.759 113.606 14.6083 113.667 14.4396C113.727 14.2708 113.757 14.1141 113.757 13.9694V7.62208H115.945V13.9694C115.945 14.3672 115.867 14.7892 115.71 15.2352C115.553 15.6692 115.324 16.0671 115.023 16.4287C114.721 16.7904 114.342 17.0918 113.883 17.3329C113.437 17.562 112.919 17.6765 112.328 17.6765H107.138C106.548 17.6765 106.023 17.562 105.565 17.3329C105.119 17.0918 104.745 16.7904 104.444 16.4287C104.143 16.0671 103.913 15.6692 103.757 15.2352C103.6 14.7892 103.522 14.3672 103.522 13.9694V7.62208Z" fill="white"/>
<path d="M118.709 5.03613H120.897V13.9694C120.897 14.1141 120.921 14.2648 120.969 14.4215C121.03 14.5661 121.108 14.7048 121.205 14.8374C121.313 14.97 121.446 15.0845 121.602 15.181C121.759 15.2774 121.94 15.3377 122.145 15.3618V17.6765C121.578 17.6524 121.078 17.5198 120.644 17.2787C120.222 17.0376 119.866 16.7362 119.577 16.3745C119.288 16.0128 119.071 15.621 118.926 15.1991C118.781 14.7771 118.709 14.3672 118.709 13.9694V5.03613Z" fill="white"/>
<path d="M124.244 10.7144C124.244 10.3768 124.31 10.0272 124.443 9.66551C124.575 9.29179 124.768 8.95423 125.022 8.65284C125.275 8.35144 125.588 8.1043 125.962 7.91141C126.336 7.71852 126.77 7.62208 127.264 7.62208H135.383V9.93677H127.264C126.987 9.93677 126.782 10.0272 126.649 10.208C126.516 10.3768 126.45 10.5456 126.45 10.7144C126.45 10.8831 126.516 11.0579 126.649 11.2388C126.782 11.4076 126.987 11.4919 127.264 11.4919H133.647C134.142 11.4919 134.576 11.5884 134.949 11.7813C135.323 11.9742 135.637 12.2213 135.89 12.5227C136.143 12.8241 136.336 13.1617 136.468 13.5354C136.601 13.8971 136.667 14.2467 136.667 14.5842C136.667 14.9218 136.601 15.2774 136.468 15.6512C136.336 16.0128 136.143 16.3444 135.89 16.6457C135.637 16.9471 135.323 17.1943 134.949 17.3872C134.576 17.5801 134.142 17.6765 133.647 17.6765H125.528V15.3618H133.647C133.925 15.3618 134.13 15.2774 134.262 15.1087C134.407 14.9278 134.479 14.753 134.479 14.5842C134.479 14.4154 134.407 14.2467 134.262 14.0779C134.13 13.8971 133.925 13.8066 133.647 13.8066H127.264C126.77 13.8066 126.336 13.7102 125.962 13.5173C125.588 13.3244 125.275 13.0773 125.022 12.7759C124.768 12.4745 124.575 12.143 124.443 11.7813C124.31 11.4076 124.244 11.0519 124.244 10.7144Z" fill="white"/>
<path d="M148.527 7.62208C149.021 7.62208 149.455 7.71852 149.829 7.91141C150.203 8.1043 150.516 8.35144 150.769 8.65284C151.023 8.95423 151.215 9.29179 151.348 9.66551C151.481 10.0272 151.547 10.3768 151.547 10.7144C151.547 11.0519 151.481 11.4076 151.348 11.7813C151.215 12.143 151.023 12.4745 150.769 12.7759C150.516 13.0773 150.203 13.3244 149.829 13.5173C149.455 13.7102 149.021 13.8066 148.527 13.8066H141.312V13.9694C141.312 14.1141 141.342 14.2708 141.402 14.4396C141.462 14.6083 141.553 14.759 141.673 14.8916C141.794 15.0243 141.945 15.1388 142.125 15.2352C142.306 15.3196 142.511 15.3618 142.74 15.3618H150.263V17.6765H142.74C142.15 17.6765 141.625 17.562 141.167 17.3329C140.721 17.0918 140.347 16.7904 140.046 16.4287C139.744 16.0671 139.515 15.6692 139.359 15.2352C139.202 14.7892 139.124 14.3672 139.124 13.9694V11.3292C139.124 10.9193 139.202 10.4974 139.359 10.0633C139.515 9.62935 139.744 9.23151 140.046 8.86984C140.347 8.50817 140.721 8.2128 141.167 7.98375C141.625 7.74263 142.15 7.62208 142.74 7.62208H148.527ZM148.527 11.4919C148.804 11.4919 149.009 11.4076 149.142 11.2388C149.286 11.0579 149.359 10.8831 149.359 10.7144C149.359 10.5456 149.286 10.3768 149.142 10.208C149.009 10.0272 148.804 9.93677 148.527 9.93677H142.74C142.487 9.93677 142.27 9.98499 142.089 10.0814C141.908 10.1779 141.758 10.2984 141.637 10.4431C141.529 10.5878 141.444 10.7505 141.384 10.9314C141.336 11.1001 141.312 11.2629 141.312 11.4196V11.4919H148.527Z" fill="white"/>
<path d="M154.064 15.3618H156.252V17.6765H154.064V15.3618Z" fill="white"/>
<path d="M159.005 14.5842C159.005 14.2467 159.072 13.8971 159.204 13.5354C159.337 13.1617 159.53 12.8241 159.783 12.5227C160.036 12.2213 160.35 11.9742 160.723 11.7813C161.097 11.5884 161.531 11.4919 162.025 11.4919H169.241V11.3292C169.241 11.1725 169.211 11.0157 169.15 10.859C169.09 10.6902 169 10.5395 168.879 10.4069C168.77 10.2623 168.626 10.1477 168.445 10.0633C168.264 9.97896 168.053 9.93677 167.812 9.93677H160.289V7.62208H167.812C168.403 7.62208 168.921 7.74263 169.367 7.98375C169.825 8.2128 170.205 8.50817 170.507 8.86984C170.808 9.23151 171.037 9.62935 171.194 10.0633C171.35 10.4974 171.429 10.9193 171.429 11.3292V13.9694C171.429 14.3672 171.35 14.7892 171.194 15.2352C171.037 15.6692 170.808 16.0671 170.507 16.4287C170.205 16.7904 169.825 17.0918 169.367 17.3329C168.921 17.562 168.403 17.6765 167.812 17.6765H162.025C161.531 17.6765 161.097 17.5801 160.723 17.3872C160.35 17.1943 160.036 16.9471 159.783 16.6457C159.53 16.3444 159.337 16.0128 159.204 15.6512C159.072 15.2774 159.005 14.9218 159.005 14.5842ZM161.193 14.5842C161.193 14.753 161.26 14.9278 161.392 15.1087C161.537 15.2774 161.748 15.3618 162.025 15.3618H167.812C168.077 15.3618 168.3 15.3136 168.481 15.2172C168.662 15.1207 168.807 15.0001 168.915 14.8555C169.036 14.7108 169.12 14.5541 169.168 14.3853C169.217 14.2045 169.241 14.0357 169.241 13.879V13.8066H162.025C161.748 13.8066 161.537 13.8971 161.392 14.0779C161.26 14.2467 161.193 14.4154 161.193 14.5842Z" fill="white"/>
<path d="M174.196 7.62208H176.384V17.6765H174.196V7.62208ZM174.196 5.03613H176.384V6.37431H174.196V5.03613Z" fill="white"/>
</g>
<defs>
<filter id="filter0_d_131_1987" x="26.4636" y="5.03613" width="153.92" height="20.6404" filterUnits="userSpaceOnUse" color-interpolation-filters="sRGB">
<feFlood flood-opacity="0" result="BackgroundImageFix"/>
<feColorMatrix in="SourceAlpha" type="matrix" values="0 0 0 0 0 0 0 0 0 0 0 0 0 0 0 0 0 0 127 0" result="hardAlpha"/>
<feOffset dy="4"/>
<feGaussianBlur stdDeviation="2"/>
<feComposite in2="hardAlpha" operator="out"/>
<feColorMatrix type="matrix" values="0 0 0 0 0 0 0 0 0 0 0 0 0 0 0 0 0 0 0.25 0"/>
<feBlend mode="normal" in2="BackgroundImageFix" result="effect1_dropShadow_131_1987"/>
<feBlend mode="normal" in="SourceGraphic" in2="effect1_dropShadow_131_1987" result="shape"/>
</filter>
</defs>
</svg>
