<svg width="16" height="16" viewBox="0 0 16 16" fill="none" xmlns="http://www.w3.org/2000/svg">
<rect width="16" height="16" fill="#000001"/>
<path d="M12.4161 8.58802C12.8768 7.10953 12.5213 5.43181 11.3496 4.2608C10.3121 3.2244 8.87748 2.82672 7.5354 3.06863C6.6881 3.22079 5.90636 3.62461 5.29214 4.22741C5.2806 4.23834 5.26932 4.24962 5.25769 4.2608C4.49111 5.02488 4.04186 6.05029 4 7.13147V12.0979C4.39209 12.4505 4.82609 12.7534 5.29222 13V7.38319V7.377C5.29096 7.3288 5.29096 7.28061 5.29222 7.23242V7.22657C5.3112 6.45514 5.62685 5.72067 6.1736 5.17578C6.21637 5.13292 6.26014 5.0917 6.30492 5.05212C6.89101 4.53266 7.65652 4.26179 8.4391 4.29694C9.22168 4.33209 9.95979 4.6705 10.4969 5.2404C11.034 5.8103 11.3278 6.56687 11.3161 7.34966C11.3044 8.13244 10.988 8.87988 10.4341 9.43346C9.64863 10.2184 8.53742 10.4795 7.53549 10.2166V9.15041C8.26074 9.45162 9.12799 9.3079 9.71813 8.71814C10.4991 7.93767 10.4991 6.67226 9.71813 5.89179C9.44192 5.61562 9.09081 5.42637 8.70817 5.34742C8.32553 5.26847 7.92813 5.30327 7.56506 5.44754C7.202 5.59181 6.88918 5.83921 6.66526 6.15919C6.44134 6.47916 6.31613 6.85769 6.30509 7.24799V11.1194C6.69145 11.3217 7.10641 11.4639 7.53566 11.5411C8.87783 11.7829 10.3126 11.3856 11.3499 10.349C11.8433 9.85734 12.2092 9.2529 12.4161 8.58802ZM7.7599 7.84834C7.62442 7.71328 7.54435 7.53249 7.5354 7.34145V7.33922C7.53428 7.31624 7.53428 7.29309 7.5354 7.27037V7.26813C7.54385 7.09208 7.61258 6.92429 7.73008 6.79285C7.84758 6.66141 8.00671 6.57432 8.18081 6.54616C8.3549 6.518 8.5334 6.55049 8.68638 6.63818C8.83936 6.72588 8.95755 6.86344 9.02113 7.02784C9.08471 7.19224 9.08983 7.37348 9.03563 7.5412C8.98143 7.70892 8.8712 7.85294 8.72341 7.94911C8.57561 8.04529 8.39924 8.08779 8.22383 8.06949C8.04842 8.05119 7.88463 7.97321 7.7599 7.8486V7.84834Z" fill="#02C394"/>
</svg>
