<svg width="113" height="143" viewBox="0 0 113 143" fill="none" xmlns="http://www.w3.org/2000/svg">
<path d="M80.8896 1.54241L1.70092 71.8834C-0.0905647 73.4747 1.03502 76.4367 3.43121 76.4367H67.0111C68.7001 76.4367 69.9427 78.019 69.5422 79.6599L68.1798 85.243C67.8951 86.4097 66.8497 87.2307 65.6486 87.2307H40.1923C38.9526 87.2307 37.8846 88.1042 37.6387 89.3192L27.4216 139.793C26.9257 142.244 29.8301 143.918 31.7021 142.261L111.277 71.8347C113.073 70.2451 111.948 67.2782 109.55 67.2782H45.6301C43.9504 67.2782 42.7096 65.7122 43.0937 64.077L44.1746 59.4752C44.4511 58.2978 45.5015 57.4655 46.711 57.4655H71.8354C73.068 57.4655 74.132 56.6017 74.3852 55.3954L85.1698 4.02566C85.6858 1.56754 82.7675 -0.125625 80.8896 1.54241Z" fill="url(#paint0_linear_132_2543)"/>
<defs>
<linearGradient id="paint0_linear_132_2543" x1="56.4999" y1="147.415" x2="56.4999" y2="-3.70026" gradientUnits="userSpaceOnUse">
<stop stop-color="#02C394"/>
<stop offset="1" stop-color="#89FFE2"/>
</linearGradient>
</defs>
</svg>
