<svg width="70" height="70" viewBox="0 0 70 70" fill="none" xmlns="http://www.w3.org/2000/svg">
<rect width="70" height="70" rx="35" fill="#FCFCFC"/>
<path d="M26.2466 49.5859H20.4136V29.8984H26.2466V49.5859ZM36.4575 29.8984V31.126C37.3698 30.8035 38.3518 30.6279 39.3745 30.6279C44.207 30.6279 48.1245 34.5454 48.1245 39.3779V49.5859H42.2915V39.3779C42.2915 37.7671 40.9853 36.4609 39.3745 36.4609C37.7637 36.4609 36.4575 37.7671 36.4575 39.3779V49.5859H30.6245V29.8984H36.4575ZM23.3296 20.418C24.9404 20.418 26.2466 21.7241 26.2466 23.335C26.2465 24.9457 24.9404 26.251 23.3296 26.251C21.719 26.2508 20.4137 24.9456 20.4136 23.335C20.4136 21.7243 21.7189 20.4182 23.3296 20.418Z" fill="url(#paint0_linear_72_70)"/>
<defs>
<linearGradient id="paint0_linear_72_70" x1="27.8087" y1="35.0992" x2="48.1245" y2="35.0967" gradientUnits="userSpaceOnUse">
<stop offset="0.209541" stop-color="#3FD8A9"/>
<stop offset="1" stop-color="#1F9A69"/>
</linearGradient>
</defs>
</svg>
