<svg width="376" height="361" viewBox="0 0 376 361" fill="none" xmlns="http://www.w3.org/2000/svg">
<path d="M55.8837 144.75C64.2182 124.886 76.3594 106.844 91.6227 91.6431C106.83 76.3775 124.879 64.2363 144.75 55.9042C185.704 38.8902 231.69 38.5826 272.867 55.0473C273.28 68.5795 278.951 81.418 288.675 90.8377C298.399 100.257 311.411 105.517 324.95 105.5C353.917 105.5 377.2 82.2172 377.2 53.2499C377.2 24.2826 353.917 1 324.95 1C310.55 1 297.529 6.76839 288.103 16.1525C237.295 -4.18319 178.943 -3.86969 128.532 17.3856C103.661 27.8355 81.2981 42.8835 62.0701 62.0906C42.6556 81.5109 27.2669 104.574 16.787 129.956C6.30713 155.338 0.942337 182.539 1.00047 210H42.8004C42.8004 187.302 47.2103 165.357 55.8837 144.75ZM364.095 275.249C355.714 295.146 343.676 313.036 328.356 328.356C313.037 343.676 295.146 355.714 275.229 364.095C234.275 381.109 188.289 381.416 147.112 364.952C146.699 351.423 141.031 338.588 131.312 329.169C121.592 319.749 108.585 314.488 95.0503 314.499C66.0829 314.499 42.8004 337.782 42.8004 366.749C42.8004 395.717 66.0829 418.999 95.0503 418.999C109.45 418.999 122.471 413.231 131.897 403.847C156.721 413.852 183.236 418.996 210 418.999C251.102 419.087 291.314 407.029 325.587 384.339C359.859 361.65 386.664 329.34 402.635 291.468C413.488 265.681 419.053 237.977 419 210H377.2C377.248 232.408 372.792 254.597 364.095 275.249Z" stroke="url(#paint0_linear_1572_9430)" stroke-width="2"/>
<path d="M210 115.156C157.708 115.156 115.156 157.708 115.156 210C115.156 262.291 157.708 304.844 210 304.844C262.291 304.844 304.844 262.291 304.844 210C304.844 157.708 262.291 115.156 210 115.156Z" stroke="url(#paint1_linear_1572_9430)" stroke-width="2"/>
<path d="M55.8837 144.75C64.2182 124.886 76.3594 106.844 91.6227 91.6431C106.83 76.3775 124.879 64.2363 144.75 55.9042C185.704 38.8902 231.69 38.5826 272.867 55.0473C273.28 68.5795 278.951 81.418 288.675 90.8377C298.399 100.257 311.411 105.517 324.95 105.5C353.917 105.5 377.2 82.2172 377.2 53.2499C377.2 24.2826 353.917 1 324.95 1C310.55 1 297.529 6.76839 288.103 16.1525C237.295 -4.18319 178.943 -3.86969 128.532 17.3856C103.661 27.8355 81.2981 42.8835 62.0701 62.0906C42.6556 81.5109 27.2669 104.574 16.787 129.956C6.30713 155.338 0.942337 182.539 1.00047 210H42.8004C42.8004 187.302 47.2103 165.357 55.8837 144.75ZM364.095 275.249C355.715 295.146 343.676 313.036 328.356 328.356C313.037 343.676 295.146 355.714 275.229 364.095C234.275 381.109 188.289 381.416 147.112 364.952C146.699 351.423 141.031 338.588 131.312 329.169C121.592 319.749 108.585 314.488 95.0503 314.499C66.0829 314.499 42.8004 337.782 42.8004 366.749C42.8004 395.717 66.0829 418.999 95.0503 418.999C109.45 418.999 122.471 413.231 131.897 403.847C156.721 413.852 183.236 418.996 210 418.999C251.102 419.087 291.314 407.029 325.587 384.339C359.859 361.65 386.664 329.34 402.635 291.468C413.488 265.681 419.053 237.977 419 210H377.2C377.248 232.408 372.792 254.597 364.095 275.249Z" fill="#D9D9D9" fill-opacity="0.1"/>
<path d="M210 115.156C157.708 115.156 115.156 157.708 115.156 210C115.156 262.291 157.708 304.844 210 304.844C262.291 304.844 304.844 262.291 304.844 210C304.844 157.708 262.291 115.156 210 115.156Z" fill="#D9D9D9" fill-opacity="0.1"/>
<path d="M55.8837 144.75C64.2182 124.886 76.3594 106.844 91.6227 91.6431C106.83 76.3775 124.879 64.2363 144.75 55.9042C185.704 38.8902 231.69 38.5826 272.867 55.0473C273.28 68.5795 278.951 81.418 288.675 90.8377C298.399 100.257 311.411 105.517 324.95 105.5C353.917 105.5 377.2 82.2172 377.2 53.2499C377.2 24.2826 353.917 1 324.95 1C310.55 1 297.529 6.76839 288.103 16.1525C237.295 -4.18319 178.943 -3.86969 128.532 17.3856C103.661 27.8355 81.2981 42.8835 62.0701 62.0906C42.6556 81.5109 27.2669 104.574 16.787 129.956C6.30713 155.338 0.942337 182.539 1.00047 210H42.8004C42.8004 187.302 47.2103 165.357 55.8837 144.75ZM364.095 275.249C355.715 295.146 343.676 313.036 328.356 328.356C313.037 343.676 295.146 355.714 275.229 364.095C234.275 381.109 188.289 381.416 147.112 364.952C146.699 351.423 141.031 338.588 131.312 329.169C121.592 319.749 108.585 314.488 95.0503 314.499C66.0829 314.499 42.8004 337.782 42.8004 366.749C42.8004 395.717 66.0829 418.999 95.0503 418.999C109.45 418.999 122.471 413.231 131.897 403.847C156.721 413.852 183.236 418.996 210 418.999C251.102 419.087 291.314 407.029 325.587 384.339C359.859 361.65 386.664 329.34 402.635 291.468C413.488 265.681 419.053 237.977 419 210H377.2C377.248 232.408 372.792 254.597 364.095 275.249Z" stroke="url(#paint2_linear_1572_9430)" stroke-width="2"/>
<path d="M210 115.156C157.708 115.156 115.156 157.708 115.156 210C115.156 262.291 157.708 304.844 210 304.844C262.291 304.844 304.844 262.291 304.844 210C304.844 157.708 262.291 115.156 210 115.156Z" stroke="url(#paint3_linear_1572_9430)" stroke-width="2"/>
<path d="M55.8837 144.75C64.2182 124.886 76.3594 106.844 91.6227 91.6431C106.83 76.3775 124.879 64.2363 144.75 55.9042C185.704 38.8902 231.69 38.5826 272.867 55.0473C273.28 68.5795 278.951 81.418 288.675 90.8377C298.399 100.257 311.411 105.517 324.95 105.5C353.917 105.5 377.2 82.2172 377.2 53.2499C377.2 24.2826 353.917 1 324.95 1C310.55 1 297.529 6.76839 288.103 16.1525C237.295 -4.18319 178.943 -3.86969 128.532 17.3856C103.661 27.8355 81.2981 42.8835 62.0701 62.0906C42.6556 81.5109 27.2669 104.574 16.787 129.956C6.30713 155.338 0.942337 182.539 1.00047 210H42.8004C42.8004 187.302 47.2103 165.357 55.8837 144.75ZM364.095 275.249C355.714 295.146 343.676 313.036 328.356 328.356C313.037 343.676 295.146 355.714 275.229 364.095C234.275 381.109 188.289 381.416 147.112 364.952C146.699 351.423 141.031 338.588 131.312 329.169C121.592 319.749 108.585 314.488 95.0503 314.499C66.0829 314.499 42.8004 337.782 42.8004 366.749C42.8004 395.717 66.0829 418.999 95.0503 418.999C109.45 418.999 122.471 413.231 131.897 403.847C156.721 413.852 183.236 418.996 210 418.999C251.102 419.087 291.314 407.029 325.587 384.339C359.859 361.65 386.664 329.34 402.635 291.468C413.488 265.681 419.053 237.977 419 210H377.2C377.248 232.408 372.792 254.597 364.095 275.249Z" stroke="url(#paint4_linear_1572_9430)" stroke-width="2"/>
<path d="M210 115.156C157.708 115.156 115.156 157.708 115.156 210C115.156 262.291 157.708 304.844 210 304.844C262.291 304.844 304.844 262.291 304.844 210C304.844 157.708 262.291 115.156 210 115.156Z" stroke="url(#paint5_linear_1572_9430)" stroke-width="2"/>
<defs>
<linearGradient id="paint0_linear_1572_9430" x1="210" y1="74.4666" x2="210" y2="384.377" gradientUnits="userSpaceOnUse">
<stop stop-color="white"/>
<stop offset="1" stop-color="#999999" stop-opacity="0"/>
</linearGradient>
<linearGradient id="paint1_linear_1572_9430" x1="210" y1="74.4666" x2="210" y2="384.377" gradientUnits="userSpaceOnUse">
<stop stop-color="white"/>
<stop offset="1" stop-color="#999999" stop-opacity="0"/>
</linearGradient>
<linearGradient id="paint2_linear_1572_9430" x1="210" y1="74.4666" x2="210" y2="384.377" gradientUnits="userSpaceOnUse">
<stop stop-color="white"/>
<stop offset="1" stop-color="#999999" stop-opacity="0"/>
</linearGradient>
<linearGradient id="paint3_linear_1572_9430" x1="210" y1="74.4666" x2="210" y2="384.377" gradientUnits="userSpaceOnUse">
<stop stop-color="white"/>
<stop offset="1" stop-color="#999999" stop-opacity="0"/>
</linearGradient>
<linearGradient id="paint4_linear_1572_9430" x1="210" y1="161.444" x2="210" y2="328.644" gradientUnits="userSpaceOnUse">
<stop stop-color="white"/>
<stop offset="1" stop-color="#999999" stop-opacity="0"/>
</linearGradient>
<linearGradient id="paint5_linear_1572_9430" x1="210" y1="161.444" x2="210" y2="328.644" gradientUnits="userSpaceOnUse">
<stop stop-color="white"/>
<stop offset="1" stop-color="#999999" stop-opacity="0"/>
</linearGradient>
</defs>
</svg>
