<svg width="416" height="409" viewBox="0 0 416 409" fill="none" xmlns="http://www.w3.org/2000/svg">
<path d="M413.462 174.655H370.045V218.081H413.462V174.655Z" stroke="url(#paint0_linear_1572_9486)" stroke-width="1.92608"/>
<path d="M413.462 250.636H315.77V294.048H413.462V250.636Z" stroke="url(#paint1_linear_1572_9486)" stroke-width="1.92608"/>
<path d="M413.462 98.6805H337.488V142.1H413.462V98.6805Z" stroke="url(#paint2_linear_1572_9486)" stroke-width="1.92608"/>
<path d="M304.919 98.6805H261.502V142.1H304.919V98.6805Z" stroke="url(#paint3_linear_1572_9486)" stroke-width="1.92608"/>
<path d="M66.1339 98.6805H1.00851V142.1H66.1339V98.6805Z" stroke="url(#paint4_linear_1572_9486)" stroke-width="1.92608"/>
<path d="M44.4211 250.636H1.00875V294.048H44.4211V250.636Z" stroke="url(#paint5_linear_1572_9486)" stroke-width="1.92608"/>
<path d="M7.3258 469.604L99.4193 377.518C107.859 369.071 122.649 356.339 132.235 349.254L174.124 318.299C168.014 310.668 162.551 302.527 157.615 294.041H76.9964V250.629H139.087C134.065 233.385 131.264 215.214 131.264 196.368C131.264 177.494 134.085 159.324 139.059 142.093H98.7026V98.6737H157.615C191.394 40.3422 254.337 1 326.619 1C434.544 1 522 88.4683 522 196.375C522 304.272 434.537 391.741 326.612 391.741C280.452 391.741 238.12 375.649 204.692 348.876L173.732 390.752C166.654 400.358 153.888 415.12 145.455 423.555L53.37 515.679C44.9231 524.114 31.1037 524.114 22.6637 515.679L7.31897 500.304C-1.10748 491.864 -1.10747 478.038 7.3258 469.604ZM326.619 348.33C410.551 348.33 478.588 280.312 478.588 196.375C478.588 112.461 410.551 44.4124 326.619 44.4124C279.905 44.4124 238.187 65.5313 210.313 98.6805H228.945V142.1H184.823C180.863 152.467 178.024 163.336 176.41 174.655H337.488V218.081H176.403C178.019 229.379 180.856 240.269 184.816 250.636H283.206V294.048H210.288C238.141 327.209 279.905 348.33 326.619 348.33Z" stroke="url(#paint6_linear_1572_9486)" stroke-width="1.92608"/>
<path d="M98.6958 174.655H1.00851V218.081H98.6958V174.655Z" stroke="url(#paint7_linear_1572_9486)" stroke-width="1.92608"/>
<path d="M413.462 174.655H370.045V218.081H413.462V174.655Z" fill="#D9D9D9" fill-opacity="0.1"/>
<path d="M413.462 250.636H315.77V294.048H413.462V250.636Z" fill="#D9D9D9" fill-opacity="0.1"/>
<path d="M413.462 98.6805H337.488V142.1H413.462V98.6805Z" fill="#D9D9D9" fill-opacity="0.1"/>
<path d="M304.919 98.6805H261.502V142.1H304.919V98.6805Z" fill="#D9D9D9" fill-opacity="0.1"/>
<path d="M66.1339 98.6805H1.00848V142.1H66.1339V98.6805Z" fill="#D9D9D9" fill-opacity="0.1"/>
<path d="M44.4211 250.636H1.00873V294.048H44.4211V250.636Z" fill="#D9D9D9" fill-opacity="0.1"/>
<path d="M7.32581 469.604L99.4193 377.518C107.859 369.071 122.649 356.339 132.235 349.254L174.124 318.299C168.014 310.668 162.551 302.527 157.615 294.041H76.9964V250.629H139.087C134.065 233.385 131.264 215.214 131.264 196.368C131.264 177.494 134.085 159.324 139.059 142.093H98.7026V98.6737H157.615C191.394 40.3422 254.337 1 326.619 1C434.544 1 522 88.4683 522 196.375C522 304.272 434.537 391.741 326.612 391.741C280.452 391.741 238.12 375.649 204.692 348.876L173.732 390.752C166.654 400.358 153.888 415.12 145.455 423.555L53.37 515.679C44.9231 524.114 31.1037 524.114 22.6637 515.679L7.31897 500.304C-1.10748 491.864 -1.10748 478.038 7.32581 469.604ZM326.619 348.33C410.551 348.33 478.588 280.312 478.588 196.375C478.588 112.461 410.551 44.4124 326.619 44.4124C279.905 44.4124 238.187 65.5313 210.313 98.6805H228.945V142.1H184.823C180.863 152.467 178.024 163.336 176.41 174.655H337.488V218.081H176.403C178.019 229.379 180.856 240.269 184.816 250.636H283.206V294.048H210.288C238.141 327.209 279.905 348.33 326.619 348.33Z" fill="#D9D9D9" fill-opacity="0.1"/>
<path d="M98.6958 174.655H1.00848V218.081H98.6958V174.655Z" fill="#D9D9D9" fill-opacity="0.1"/>
<path d="M413.462 174.655H370.045V218.081H413.462V174.655Z" stroke="url(#paint8_linear_1572_9486)" stroke-width="1.92608"/>
<path d="M413.462 250.636H315.77V294.048H413.462V250.636Z" stroke="url(#paint9_linear_1572_9486)" stroke-width="1.92608"/>
<path d="M413.462 98.6805H337.488V142.1H413.462V98.6805Z" stroke="url(#paint10_linear_1572_9486)" stroke-width="1.92608"/>
<path d="M304.919 98.6805H261.502V142.1H304.919V98.6805Z" stroke="url(#paint11_linear_1572_9486)" stroke-width="1.92608"/>
<path d="M66.1339 98.6805H1.00848V142.1H66.1339V98.6805Z" stroke="url(#paint12_linear_1572_9486)" stroke-width="1.92608"/>
<path d="M44.4211 250.636H1.00873V294.048H44.4211V250.636Z" stroke="url(#paint13_linear_1572_9486)" stroke-width="1.92608"/>
<path d="M7.32581 469.604L99.4193 377.518C107.859 369.071 122.649 356.339 132.235 349.254L174.124 318.299C168.014 310.668 162.551 302.527 157.615 294.041H76.9964V250.629H139.087C134.065 233.385 131.264 215.214 131.264 196.368C131.264 177.494 134.085 159.324 139.059 142.093H98.7026V98.6737H157.615C191.394 40.3422 254.337 1 326.619 1C434.544 1 522 88.4683 522 196.375C522 304.272 434.537 391.741 326.612 391.741C280.452 391.741 238.12 375.649 204.692 348.876L173.732 390.752C166.654 400.358 153.888 415.12 145.455 423.555L53.37 515.679C44.9231 524.114 31.1037 524.114 22.6637 515.679L7.31897 500.304C-1.10748 491.864 -1.10748 478.038 7.32581 469.604ZM326.619 348.33C410.551 348.33 478.588 280.312 478.588 196.375C478.588 112.461 410.551 44.4124 326.619 44.4124C279.905 44.4124 238.187 65.5313 210.313 98.6805H228.945V142.1H184.823C180.863 152.467 178.024 163.336 176.41 174.655H337.488V218.081H176.403C178.019 229.379 180.856 240.269 184.816 250.636H283.206V294.048H210.288C238.141 327.209 279.905 348.33 326.619 348.33Z" stroke="url(#paint14_linear_1572_9486)" stroke-width="1.92608"/>
<path d="M98.6958 174.655H1.00848V218.081H98.6958V174.655Z" stroke="url(#paint15_linear_1572_9486)" stroke-width="1.92608"/>
<path d="M413.462 174.655H370.045V218.081H413.462V174.655Z" stroke="url(#paint16_linear_1572_9486)" stroke-width="1.92608"/>
<path d="M413.462 250.636H315.77V294.048H413.462V250.636Z" stroke="url(#paint17_linear_1572_9486)" stroke-width="1.92608"/>
<path d="M413.462 98.6805H337.488V142.1H413.462V98.6805Z" stroke="url(#paint18_linear_1572_9486)" stroke-width="1.92608"/>
<path d="M304.919 98.6805H261.502V142.1H304.919V98.6805Z" stroke="url(#paint19_linear_1572_9486)" stroke-width="1.92608"/>
<path d="M66.1339 98.6805H1.00851V142.1H66.1339V98.6805Z" stroke="url(#paint20_linear_1572_9486)" stroke-width="1.92608"/>
<path d="M44.4211 250.636H1.00875V294.048H44.4211V250.636Z" stroke="url(#paint21_linear_1572_9486)" stroke-width="1.92608"/>
<path d="M7.3258 469.604L99.4193 377.518C107.859 369.071 122.649 356.339 132.235 349.254L174.124 318.299C168.014 310.668 162.551 302.527 157.615 294.041H76.9964V250.629H139.087C134.065 233.385 131.264 215.214 131.264 196.368C131.264 177.494 134.085 159.324 139.059 142.093H98.7026V98.6737H157.615C191.394 40.3422 254.337 1 326.619 1C434.544 1 522 88.4683 522 196.375C522 304.272 434.537 391.741 326.612 391.741C280.452 391.741 238.12 375.649 204.692 348.876L173.732 390.752C166.654 400.358 153.888 415.12 145.455 423.555L53.37 515.679C44.9231 524.114 31.1037 524.114 22.6637 515.679L7.31897 500.304C-1.10748 491.864 -1.10747 478.038 7.3258 469.604ZM326.619 348.33C410.551 348.33 478.588 280.312 478.588 196.375C478.588 112.461 410.551 44.4124 326.619 44.4124C279.905 44.4124 238.187 65.5313 210.313 98.6805H228.945V142.1H184.823C180.863 152.467 178.024 163.336 176.41 174.655H337.488V218.081H176.403C178.019 229.379 180.856 240.269 184.816 250.636H283.206V294.048H210.288C238.141 327.209 279.905 348.33 326.619 348.33Z" stroke="url(#paint22_linear_1572_9486)" stroke-width="1.92608"/>
<path d="M98.6958 174.655H1.00851V218.081H98.6958V174.655Z" stroke="url(#paint23_linear_1572_9486)" stroke-width="1.92608"/>
<defs>
<linearGradient id="paint0_linear_1572_9486" x1="261.5" y1="92.5707" x2="261.5" y2="478.852" gradientUnits="userSpaceOnUse">
<stop stop-color="white"/>
<stop offset="1" stop-color="#999999" stop-opacity="0"/>
</linearGradient>
<linearGradient id="paint1_linear_1572_9486" x1="261.5" y1="92.5707" x2="261.5" y2="478.852" gradientUnits="userSpaceOnUse">
<stop stop-color="white"/>
<stop offset="1" stop-color="#999999" stop-opacity="0"/>
</linearGradient>
<linearGradient id="paint2_linear_1572_9486" x1="261.5" y1="92.5707" x2="261.5" y2="478.852" gradientUnits="userSpaceOnUse">
<stop stop-color="white"/>
<stop offset="1" stop-color="#999999" stop-opacity="0"/>
</linearGradient>
<linearGradient id="paint3_linear_1572_9486" x1="261.5" y1="92.5707" x2="261.5" y2="478.852" gradientUnits="userSpaceOnUse">
<stop stop-color="white"/>
<stop offset="1" stop-color="#999999" stop-opacity="0"/>
</linearGradient>
<linearGradient id="paint4_linear_1572_9486" x1="261.5" y1="92.5707" x2="261.5" y2="478.852" gradientUnits="userSpaceOnUse">
<stop stop-color="white"/>
<stop offset="1" stop-color="#999999" stop-opacity="0"/>
</linearGradient>
<linearGradient id="paint5_linear_1572_9486" x1="261.5" y1="92.5707" x2="261.5" y2="478.852" gradientUnits="userSpaceOnUse">
<stop stop-color="white"/>
<stop offset="1" stop-color="#999999" stop-opacity="0"/>
</linearGradient>
<linearGradient id="paint6_linear_1572_9486" x1="261.5" y1="92.5707" x2="261.5" y2="478.852" gradientUnits="userSpaceOnUse">
<stop stop-color="white"/>
<stop offset="1" stop-color="#999999" stop-opacity="0"/>
</linearGradient>
<linearGradient id="paint7_linear_1572_9486" x1="261.5" y1="92.5707" x2="261.5" y2="478.852" gradientUnits="userSpaceOnUse">
<stop stop-color="white"/>
<stop offset="1" stop-color="#999999" stop-opacity="0"/>
</linearGradient>
<linearGradient id="paint8_linear_1572_9486" x1="261.5" y1="92.5707" x2="261.5" y2="478.852" gradientUnits="userSpaceOnUse">
<stop stop-color="white"/>
<stop offset="1" stop-color="#999999" stop-opacity="0"/>
</linearGradient>
<linearGradient id="paint9_linear_1572_9486" x1="261.5" y1="92.5707" x2="261.5" y2="478.852" gradientUnits="userSpaceOnUse">
<stop stop-color="white"/>
<stop offset="1" stop-color="#999999" stop-opacity="0"/>
</linearGradient>
<linearGradient id="paint10_linear_1572_9486" x1="261.5" y1="92.5707" x2="261.5" y2="478.852" gradientUnits="userSpaceOnUse">
<stop stop-color="white"/>
<stop offset="1" stop-color="#999999" stop-opacity="0"/>
</linearGradient>
<linearGradient id="paint11_linear_1572_9486" x1="261.5" y1="92.5707" x2="261.5" y2="478.852" gradientUnits="userSpaceOnUse">
<stop stop-color="white"/>
<stop offset="1" stop-color="#999999" stop-opacity="0"/>
</linearGradient>
<linearGradient id="paint12_linear_1572_9486" x1="261.5" y1="92.5707" x2="261.5" y2="478.852" gradientUnits="userSpaceOnUse">
<stop stop-color="white"/>
<stop offset="1" stop-color="#999999" stop-opacity="0"/>
</linearGradient>
<linearGradient id="paint13_linear_1572_9486" x1="261.5" y1="92.5707" x2="261.5" y2="478.852" gradientUnits="userSpaceOnUse">
<stop stop-color="white"/>
<stop offset="1" stop-color="#999999" stop-opacity="0"/>
</linearGradient>
<linearGradient id="paint14_linear_1572_9486" x1="261.5" y1="92.5707" x2="261.5" y2="478.852" gradientUnits="userSpaceOnUse">
<stop stop-color="white"/>
<stop offset="1" stop-color="#999999" stop-opacity="0"/>
</linearGradient>
<linearGradient id="paint15_linear_1572_9486" x1="261.5" y1="92.5707" x2="261.5" y2="478.852" gradientUnits="userSpaceOnUse">
<stop stop-color="white"/>
<stop offset="1" stop-color="#999999" stop-opacity="0"/>
</linearGradient>
<linearGradient id="paint16_linear_1572_9486" x1="261.5" y1="200.982" x2="261.5" y2="409.384" gradientUnits="userSpaceOnUse">
<stop stop-color="white"/>
<stop offset="1" stop-color="#999999" stop-opacity="0"/>
</linearGradient>
<linearGradient id="paint17_linear_1572_9486" x1="261.5" y1="200.982" x2="261.5" y2="409.384" gradientUnits="userSpaceOnUse">
<stop stop-color="white"/>
<stop offset="1" stop-color="#999999" stop-opacity="0"/>
</linearGradient>
<linearGradient id="paint18_linear_1572_9486" x1="261.5" y1="200.982" x2="261.5" y2="409.384" gradientUnits="userSpaceOnUse">
<stop stop-color="white"/>
<stop offset="1" stop-color="#999999" stop-opacity="0"/>
</linearGradient>
<linearGradient id="paint19_linear_1572_9486" x1="261.5" y1="200.982" x2="261.5" y2="409.384" gradientUnits="userSpaceOnUse">
<stop stop-color="white"/>
<stop offset="1" stop-color="#999999" stop-opacity="0"/>
</linearGradient>
<linearGradient id="paint20_linear_1572_9486" x1="261.5" y1="200.982" x2="261.5" y2="409.384" gradientUnits="userSpaceOnUse">
<stop stop-color="white"/>
<stop offset="1" stop-color="#999999" stop-opacity="0"/>
</linearGradient>
<linearGradient id="paint21_linear_1572_9486" x1="261.5" y1="200.982" x2="261.5" y2="409.384" gradientUnits="userSpaceOnUse">
<stop stop-color="white"/>
<stop offset="1" stop-color="#999999" stop-opacity="0"/>
</linearGradient>
<linearGradient id="paint22_linear_1572_9486" x1="261.5" y1="200.982" x2="261.5" y2="409.384" gradientUnits="userSpaceOnUse">
<stop stop-color="white"/>
<stop offset="1" stop-color="#999999" stop-opacity="0"/>
</linearGradient>
<linearGradient id="paint23_linear_1572_9486" x1="261.5" y1="200.982" x2="261.5" y2="409.384" gradientUnits="userSpaceOnUse">
<stop stop-color="white"/>
<stop offset="1" stop-color="#999999" stop-opacity="0"/>
</linearGradient>
</defs>
</svg>
