<svg width="352" height="418" viewBox="0 0 352 418" fill="none" xmlns="http://www.w3.org/2000/svg">
<path d="M264.44 199.694C260.964 199.694 258.265 198.139 256.344 195.03C254.437 191.935 254.437 188.833 256.344 185.724L314.358 84.656C316.441 81.2973 319.117 79.1633 322.388 78.254C325.659 77.33 329.01 77.4473 332.442 78.606C356.906 87.4353 379.067 101.178 398.926 119.834C418.785 138.49 434.17 160.087 445.082 184.624C446.915 188.833 446.849 192.397 444.884 195.316C442.933 198.235 439.67 199.694 435.094 199.694H264.44ZM192.126 234.256L133.738 131.296C131.655 127.923 131.061 124.417 131.956 120.78C132.865 117.143 134.669 114.283 137.368 112.2C154.968 97.4747 174.636 86.0933 196.372 78.056C218.108 70.0187 240.651 66 264 66C267.52 66 271.458 66.132 275.814 66.396C280.155 66.6747 284.24 67.0413 288.068 67.496C292.365 67.936 295.335 69.7033 296.978 72.798C298.635 75.9073 298.32 79.5227 296.032 83.644L208.406 234.256C206.499 237.365 203.786 238.92 200.266 238.92C196.746 238.92 194.033 237.365 192.126 234.256ZM83.446 310.552C80.2487 310.552 77.286 309.379 74.558 307.032C71.83 304.685 70.092 301.935 69.344 298.782C68.0533 292.49 67.1733 286.535 66.704 280.918C66.2347 275.301 66 269.661 66 264C66 243.437 69.2633 223.249 75.79 203.434C82.3313 183.634 91.9307 164.729 104.588 146.718C107.492 143.007 110.829 141.152 114.598 141.152C118.367 141.152 121.433 143.33 123.794 147.686L208.582 296.582C210.489 299.677 210.467 302.779 208.516 305.888C206.551 308.997 203.837 310.552 200.376 310.552H83.446ZM197.67 450.252C172.062 441.041 148.962 426.851 128.37 407.682C107.763 388.498 92.3267 366.637 82.06 342.1C80.2267 337.891 80.3807 334.327 82.522 331.408C84.6633 328.489 88.022 327.03 92.598 327.03H266.398C269.859 327.03 272.477 328.585 274.252 331.694C276.027 334.789 275.953 337.891 274.032 341L215.886 443.938C213.789 447.297 211.105 449.497 207.834 450.538C204.563 451.579 201.19 451.484 197.67 450.252ZM264 462C260.553 462 256.894 461.868 253.022 461.604C249.15 461.34 245.535 460.973 242.176 460.504C237.893 459.771 234.901 457.864 233.2 454.784C231.513 451.66 231.807 448.184 234.08 444.356L321.024 296.516C322.945 293.436 325.769 291.896 329.494 291.896C333.219 291.896 336.043 293.436 337.964 296.516L394.812 396.176C396.821 399.359 397.437 402.769 396.66 406.406C395.883 410.043 394.049 413.035 391.16 415.382C373.736 430.107 354.031 441.555 332.046 449.724C310.061 457.893 287.379 461.985 264 462ZM404.58 380.556L319.55 230.582C317.643 227.473 317.592 224.371 319.396 221.276C321.2 218.181 323.84 216.627 327.316 216.612H444.576C447.759 216.612 450.721 217.778 453.464 220.11C456.192 222.442 457.923 225.199 458.656 228.382C459.683 234.395 460.489 240.343 461.076 246.224C461.692 252.12 462 258.045 462 264C462 285.413 458.803 305.859 452.408 325.336C446.028 344.799 436.363 363.484 423.412 381.392C420.772 384.868 417.545 386.628 413.732 386.672C409.919 386.716 406.868 384.677 404.58 380.556Z" stroke="url(#paint0_linear_1572_359)" stroke-width="1.5" stroke-linecap="round"/>
<path d="M264.44 199.694C260.964 199.694 258.265 198.139 256.344 195.03C254.437 191.935 254.437 188.833 256.344 185.724L314.358 84.656C316.441 81.2973 319.117 79.1633 322.388 78.254C325.659 77.33 329.01 77.4473 332.442 78.606C356.906 87.4353 379.067 101.178 398.926 119.834C418.785 138.49 434.17 160.087 445.082 184.624C446.915 188.833 446.849 192.397 444.884 195.316C442.933 198.235 439.67 199.694 435.094 199.694H264.44ZM192.126 234.256L133.738 131.296C131.655 127.923 131.061 124.417 131.956 120.78C132.865 117.143 134.669 114.283 137.368 112.2C154.968 97.4747 174.636 86.0933 196.372 78.056C218.108 70.0187 240.651 66 264 66C267.52 66 271.458 66.132 275.814 66.396C280.155 66.6747 284.24 67.0413 288.068 67.496C292.365 67.936 295.335 69.7033 296.978 72.798C298.635 75.9073 298.32 79.5227 296.032 83.644L208.406 234.256C206.499 237.365 203.786 238.92 200.266 238.92C196.746 238.92 194.033 237.365 192.126 234.256ZM83.446 310.552C80.2487 310.552 77.286 309.379 74.558 307.032C71.83 304.685 70.092 301.935 69.344 298.782C68.0533 292.49 67.1733 286.535 66.704 280.918C66.2347 275.301 66 269.661 66 264C66 243.437 69.2633 223.249 75.79 203.434C82.3313 183.634 91.9307 164.729 104.588 146.718C107.492 143.007 110.829 141.152 114.598 141.152C118.367 141.152 121.433 143.33 123.794 147.686L208.582 296.582C210.489 299.677 210.467 302.779 208.516 305.888C206.551 308.997 203.837 310.552 200.376 310.552H83.446ZM197.67 450.252C172.062 441.041 148.962 426.851 128.37 407.682C107.763 388.498 92.3267 366.637 82.06 342.1C80.2267 337.891 80.3807 334.327 82.522 331.408C84.6633 328.489 88.022 327.03 92.598 327.03H266.398C269.859 327.03 272.477 328.585 274.252 331.694C276.027 334.789 275.953 337.891 274.032 341L215.886 443.938C213.789 447.297 211.105 449.497 207.834 450.538C204.563 451.579 201.19 451.484 197.67 450.252ZM264 462C260.553 462 256.894 461.868 253.022 461.604C249.15 461.34 245.535 460.973 242.176 460.504C237.893 459.771 234.901 457.864 233.2 454.784C231.513 451.66 231.807 448.184 234.08 444.356L321.024 296.516C322.945 293.436 325.769 291.896 329.494 291.896C333.219 291.896 336.043 293.436 337.964 296.516L394.812 396.176C396.821 399.359 397.437 402.769 396.66 406.406C395.883 410.043 394.049 413.035 391.16 415.382C373.736 430.107 354.031 441.555 332.046 449.724C310.061 457.893 287.379 461.985 264 462ZM404.58 380.556L319.55 230.582C317.643 227.473 317.592 224.371 319.396 221.276C321.2 218.181 323.84 216.627 327.316 216.612H444.576C447.759 216.612 450.721 217.778 453.464 220.11C456.192 222.442 457.923 225.199 458.656 228.382C459.683 234.395 460.489 240.343 461.076 246.224C461.692 252.12 462 258.045 462 264C462 285.413 458.803 305.859 452.408 325.336C446.028 344.799 436.363 363.484 423.412 381.392C420.772 384.868 417.545 386.628 413.732 386.672C409.919 386.716 406.868 384.677 404.58 380.556Z" fill="#D9D9D9" fill-opacity="0.1" stroke="url(#paint1_linear_1572_359)" stroke-width="1.5" stroke-linecap="round"/>
<g filter="url(#filter0_f_1572_359)">
<path d="M264.44 199.694C260.964 199.694 258.265 198.139 256.344 195.03C254.437 191.935 254.437 188.833 256.344 185.724L314.358 84.656C316.441 81.2973 319.117 79.1633 322.388 78.254C325.659 77.33 329.01 77.4473 332.442 78.606C356.906 87.4353 379.067 101.178 398.926 119.834C418.785 138.49 434.17 160.087 445.082 184.624C446.915 188.833 446.849 192.397 444.884 195.316C442.933 198.235 439.67 199.694 435.094 199.694H264.44ZM192.126 234.256L133.738 131.296C131.655 127.923 131.061 124.417 131.956 120.78C132.865 117.143 134.669 114.283 137.368 112.2C154.968 97.4747 174.636 86.0933 196.372 78.056C218.108 70.0187 240.651 66 264 66C267.52 66 271.458 66.132 275.814 66.396C280.155 66.6747 284.24 67.0413 288.068 67.496C292.365 67.936 295.335 69.7033 296.978 72.798C298.635 75.9073 298.32 79.5227 296.032 83.644L208.406 234.256C206.499 237.365 203.786 238.92 200.266 238.92C196.746 238.92 194.033 237.365 192.126 234.256ZM83.446 310.552C80.2487 310.552 77.286 309.379 74.558 307.032C71.83 304.685 70.092 301.935 69.344 298.782C68.0533 292.49 67.1733 286.535 66.704 280.918C66.2347 275.301 66 269.661 66 264C66 243.437 69.2633 223.249 75.79 203.434C82.3313 183.634 91.9307 164.729 104.588 146.718C107.492 143.007 110.829 141.152 114.598 141.152C118.367 141.152 121.433 143.33 123.794 147.686L208.582 296.582C210.489 299.677 210.467 302.779 208.516 305.888C206.551 308.997 203.837 310.552 200.376 310.552H83.446ZM197.67 450.252C172.062 441.041 148.962 426.851 128.37 407.682C107.763 388.498 92.3267 366.637 82.06 342.1C80.2267 337.891 80.3807 334.327 82.522 331.408C84.6633 328.489 88.022 327.03 92.598 327.03H266.398C269.859 327.03 272.477 328.585 274.252 331.694C276.027 334.789 275.953 337.891 274.032 341L215.886 443.938C213.789 447.297 211.105 449.497 207.834 450.538C204.563 451.579 201.19 451.484 197.67 450.252ZM264 462C260.553 462 256.894 461.868 253.022 461.604C249.15 461.34 245.535 460.973 242.176 460.504C237.893 459.771 234.901 457.864 233.2 454.784C231.513 451.66 231.807 448.184 234.08 444.356L321.024 296.516C322.945 293.436 325.769 291.896 329.494 291.896C333.219 291.896 336.043 293.436 337.964 296.516L394.812 396.176C396.821 399.359 397.437 402.769 396.66 406.406C395.883 410.043 394.049 413.035 391.16 415.382C373.736 430.107 354.031 441.555 332.046 449.724C310.061 457.893 287.379 461.985 264 462ZM404.58 380.556L319.55 230.582C317.643 227.473 317.592 224.371 319.396 221.276C321.2 218.181 323.84 216.627 327.316 216.612H444.576C447.759 216.612 450.721 217.778 453.464 220.11C456.192 222.442 457.923 225.199 458.656 228.382C459.683 234.395 460.489 240.343 461.076 246.224C461.692 252.12 462 258.045 462 264C462 285.413 458.803 305.859 452.408 325.336C446.028 344.799 436.363 363.484 423.412 381.392C420.772 384.868 417.545 386.628 413.732 386.672C409.919 386.716 406.868 384.677 404.58 380.556Z" stroke="url(#paint2_linear_1572_359)" stroke-width="1.5" stroke-linecap="round"/>
</g>
<defs>
<filter id="filter0_f_1572_359" x="58.691" y="58.691" width="410.618" height="410.618" filterUnits="userSpaceOnUse" color-interpolation-filters="sRGB">
<feFlood flood-opacity="0" result="BackgroundImageFix"/>
<feBlend mode="normal" in="SourceGraphic" in2="BackgroundImageFix" result="shape"/>
<feGaussianBlur stdDeviation="3.2795" result="effect1_foregroundBlur_1572_359"/>
</filter>
<linearGradient id="paint0_linear_1572_359" x1="264" y1="135.6" x2="264" y2="429.2" gradientUnits="userSpaceOnUse">
<stop stop-color="white"/>
<stop offset="1" stop-color="#999999" stop-opacity="0"/>
</linearGradient>
<linearGradient id="paint1_linear_1572_359" x1="264" y1="135.6" x2="264" y2="429.2" gradientUnits="userSpaceOnUse">
<stop stop-color="white"/>
<stop offset="1" stop-color="#999999" stop-opacity="0"/>
</linearGradient>
<linearGradient id="paint2_linear_1572_359" x1="264" y1="218" x2="264" y2="376.4" gradientUnits="userSpaceOnUse">
<stop stop-color="white"/>
<stop offset="1" stop-color="#999999" stop-opacity="0"/>
</linearGradient>
</defs>
</svg>
