<svg width="32" height="32" viewBox="0 0 32 32" fill="none" xmlns="http://www.w3.org/2000/svg">
<path d="M16.1001 0.865723C7.5441 0.865723 0.600098 7.80972 0.600098 16.3657C0.600098 24.9217 7.5441 31.8657 16.1001 31.8657C24.6561 31.8657 31.6001 24.9217 31.6001 16.3657C31.6001 7.80972 24.6561 0.865723 16.1001 0.865723ZM23.2921 11.4057C23.0596 13.8547 22.0521 19.8067 21.5406 22.5502C21.3236 23.7127 20.8896 24.1002 20.4866 24.1467C19.5876 24.2242 18.9056 23.5577 18.0376 22.9842C16.6736 22.0852 15.8986 21.5272 14.5811 20.6592C13.0466 19.6517 14.0386 19.0937 14.9221 18.1947C15.1546 17.9622 19.1226 14.3507 19.2001 14.0252C19.2108 13.9759 19.2094 13.9247 19.196 13.8762C19.1824 13.8275 19.1572 13.7829 19.1226 13.7462C19.0296 13.6687 18.9056 13.6997 18.7971 13.7152C18.6576 13.7462 16.4876 15.1877 12.2561 18.0397C11.6361 18.4582 11.0781 18.6752 10.5821 18.6597C10.0241 18.6442 8.9701 18.3497 8.1796 18.0862C7.2031 17.7762 6.4436 17.6057 6.5056 17.0632C6.5366 16.7842 6.9241 16.5052 7.6526 16.2107C12.1786 14.2422 15.1856 12.9402 16.6891 12.3202C20.9981 10.5222 21.8816 10.2122 22.4706 10.2122C22.5946 10.2122 22.8891 10.2432 23.0751 10.3982C23.2301 10.5222 23.2766 10.6927 23.2921 10.8167C23.2766 10.9097 23.3076 11.1887 23.2921 11.4057Z" fill="url(#paint0_linear_303_556)"/>
<defs>
<linearGradient id="paint0_linear_303_556" x1="0.600098" y1="16.3657" x2="31.6001" y2="16.3657" gradientUnits="userSpaceOnUse">
<stop stop-color="#14C087"/>
<stop offset="1" stop-color="#067C55"/>
</linearGradient>
</defs>
</svg>
