<svg width="37" height="37" viewBox="0 0 37 37" fill="none" xmlns="http://www.w3.org/2000/svg">
<path d="M34.9593 10.0115C34.5628 8.53725 33.4005 7.37513 31.9264 6.97817C29.2336 6.24137 18.462 6.24137 18.462 6.24137C18.462 6.24137 7.69076 6.24137 4.9979 6.95023C3.55224 7.34678 2.36155 8.53746 1.965 10.0115C1.25635 12.7041 1.25635 18.2883 1.25635 18.2883C1.25635 18.2883 1.25635 23.9006 1.965 26.5651C2.36197 28.0392 3.52388 29.2013 4.99811 29.5983C7.71911 30.3353 18.4624 30.3353 18.4624 30.3353C18.4624 30.3353 29.2336 30.3353 31.9264 29.6264C33.4007 29.2296 34.5628 28.0675 34.9597 26.5935C35.6682 23.9006 35.6682 18.3167 35.6682 18.3167C35.6682 18.3167 35.6965 12.7041 34.9593 10.0115ZM15.0325 23.4472V13.1294L23.9896 18.2883L15.0325 23.4472Z" fill="url(#paint0_linear_1733_1482)"/>
<defs>
<linearGradient id="paint0_linear_1733_1482" x1="1.25635" y1="18.2883" x2="35.6683" y2="18.2883" gradientUnits="userSpaceOnUse">
<stop stop-color="#14C087"/>
<stop offset="1" stop-color="#067C55"/>
</linearGradient>
</defs>
</svg>
